<svg width="44" height="51" viewBox="0 0 44 51" fill="none" xmlns="http://www.w3.org/2000/svg">
<path d="M28 51H8C3.589 51 0 47.425 0 43.0312V7.96875C0 3.57498 3.589 0 8 0H28C32.411 0 36 3.57498 36 7.96875V9.96094C36 11.0616 35.105 11.9531 34 11.9531C32.895 11.9531 32 11.0616 32 9.96094V7.96875C32 5.77137 30.206 3.98438 28 3.98438H8C5.794 3.98438 4 5.77137 4 7.96875V43.0312C4 45.2286 5.794 47.0156 8 47.0156H28C30.206 47.0156 32 45.2286 32 43.0312V41.0391C32 39.9384 32.895 39.0469 34 39.0469C35.105 39.0469 36 39.9384 36 41.0391V43.0312C36 47.425 32.411 51 28 51Z" fill="white"/>
<path d="M20 11.9531H16C14.895 11.9531 14 11.0616 14 9.96094C14 8.86025 14.895 7.96875 16 7.96875H20C21.105 7.96875 22 8.86025 22 9.96094C22 11.0616 21.105 11.9531 20 11.9531Z" fill="white"/>
<path d="M20 43.0312H16C14.895 43.0312 14 42.1397 14 41.0391C14 39.9384 14.895 39.0469 16 39.0469H20C21.105 39.0469 22 39.9384 22 41.0391C22 42.1397 21.105 43.0312 20 43.0312Z" fill="white"/>
<path d="M26 35.4609H22C18.692 35.4609 16 32.7795 16 29.4844C16 28.3857 15.103 27.4922 14 27.4922H10C8.895 27.4922 8 26.6007 8 25.5C8 24.3993 8.895 23.5078 10 23.5078H14C17.308 23.5078 20 26.1893 20 29.4844C20 30.5831 20.897 31.4766 22 31.4766H26C27.105 31.4766 28 32.3681 28 33.4688C28 34.5694 27.105 35.4609 26 35.4609Z" fill="white"/>
<path d="M34 35.8594C32.895 35.8594 32 34.9679 32 33.8672C32 31.4676 30.278 29.3768 28.454 27.1625C27.707 26.256 26.935 25.3187 26.252 24.3246C25.285 22.9181 24 20.7247 24 17.9297C24 12.4372 28.486 7.96875 34 7.96875C39.514 7.96875 44 12.4372 44 17.9297C44 21.7547 41.634 24.6274 39.546 27.1615C37.722 29.3758 36 31.4676 36 33.8672C36 34.9679 35.105 35.8594 34 35.8594ZM34 11.9531C30.692 11.9531 28 14.6346 28 17.9297C28 19.2336 28.479 20.5116 29.553 22.0734C30.138 22.9241 30.822 23.7548 31.547 24.6354C32.376 25.6424 33.249 26.7023 34.001 27.8538C34.752 26.7023 35.626 25.6414 36.455 24.6344C38.279 22.4201 40.001 20.3283 40.001 17.9297C40.001 14.6346 37.309 11.9531 34.001 11.9531H34Z" fill="white"/>
<path d="M34 19.9219C33.935 19.9219 33.869 19.9189 33.804 19.9119C33.739 19.9059 33.674 19.896 33.61 19.883C33.546 19.8701 33.482 19.8541 33.42 19.8352C33.358 19.8163 33.296 19.7944 33.236 19.7695C33.175 19.7446 33.116 19.7167 33.058 19.6858C33.001 19.6559 32.944 19.6221 32.89 19.5862C32.836 19.5503 32.783 19.5115 32.732 19.4697C32.682 19.4288 32.632 19.384 32.586 19.3382C32.54 19.2923 32.496 19.2435 32.454 19.1927C32.413 19.1429 32.374 19.0901 32.338 19.0354C32.302 18.9816 32.268 18.9258 32.237 18.868C32.207 18.8112 32.178 18.7515 32.154 18.6917C32.129 18.6319 32.107 18.5702 32.087 18.5084C32.069 18.4457 32.052 18.3819 32.04 18.3192C32.027 18.2554 32.017 18.1897 32.01 18.1259C32.004 18.0602 32 17.9944 32 17.9297C32 17.8649 32.004 17.7992 32.01 17.7335C32.017 17.6697 32.027 17.604 32.04 17.5402C32.052 17.4775 32.069 17.4137 32.087 17.351C32.107 17.2892 32.129 17.2274 32.154 17.1677C32.178 17.1079 32.207 17.0481 32.237 16.9914C32.268 16.9346 32.302 16.8778 32.338 16.824C32.374 16.7692 32.413 16.7164 32.454 16.6666C32.496 16.6158 32.54 16.567 32.586 16.5212C32.632 16.4754 32.682 16.4306 32.732 16.3897C32.783 16.3489 32.836 16.309 32.89 16.2732C32.944 16.2373 33.001 16.2035 33.058 16.1736C33.116 16.1427 33.175 16.1148 33.236 16.0899C33.296 16.065 33.358 16.0431 33.42 16.0242C33.482 16.0052 33.546 15.9893 33.61 15.9763C33.674 15.9634 33.739 15.9544 33.804 15.9475C33.934 15.9345 34.067 15.9345 34.197 15.9475C34.262 15.9544 34.327 15.9634 34.391 15.9763C34.455 15.9893 34.519 16.0052 34.581 16.0242C34.643 16.0431 34.705 16.065 34.765 16.0899C34.825 16.1148 34.885 16.1427 34.942 16.1736C35 16.2035 35.056 16.2373 35.111 16.2732C35.165 16.309 35.218 16.3489 35.268 16.3897C35.319 16.4306 35.368 16.4754 35.415 16.5212C35.461 16.567 35.505 16.6158 35.547 16.6666C35.588 16.7164 35.627 16.7692 35.663 16.824C35.699 16.8778 35.733 16.9346 35.764 16.9914C35.794 17.0481 35.822 17.1079 35.847 17.1677C35.872 17.2274 35.894 17.2892 35.913 17.351C35.932 17.4137 35.948 17.4775 35.961 17.5402C35.974 17.604 35.984 17.6697 35.99 17.7335C35.997 17.7992 36 17.8649 36 17.9297C36 17.9944 35.997 18.0602 35.99 18.1259C35.984 18.1897 35.974 18.2554 35.961 18.3192C35.948 18.3819 35.932 18.4457 35.913 18.5084C35.894 18.5702 35.872 18.6319 35.847 18.6917C35.822 18.7515 35.794 18.8112 35.764 18.868C35.733 18.9258 35.699 18.9816 35.663 19.0354C35.627 19.0901 35.588 19.1429 35.547 19.1927C35.505 19.2435 35.461 19.2923 35.415 19.3382C35.368 19.384 35.319 19.4288 35.268 19.4697C35.218 19.5115 35.165 19.5503 35.111 19.5862C35.056 19.6221 35 19.6559 34.942 19.6858C34.885 19.7167 34.825 19.7446 34.765 19.7695C34.705 19.7944 34.643 19.8163 34.581 19.8352C34.519 19.8541 34.455 19.8701 34.391 19.883C34.327 19.896 34.262 19.9059 34.197 19.9119C34.132 19.9189 34.066 19.9219 34 19.9219Z" fill="white"/>
</svg>
