<svg width="58" height="58" viewBox="0 0 58 58" fill="none" xmlns="http://www.w3.org/2000/svg">
<path d="M58.0023 29C58.0023 36.753 54.9833 44.033 49.5003 49.5C44.0293 54.987 36.6873 58 28.9903 58C27.9623 58 26.9273 57.946 25.8893 57.837C12.4213 56.425 1.60527 45.634 0.172273 32.177C-0.717727 23.827 1.86127 15.817 7.43227 9.62C12.9283 3.506 20.7903 0 29.0023 0C29.5543 0 30.0023 0.448 30.0023 1V26.053C30.0023 27.126 30.8753 28 31.9493 28H57.0023C57.5543 28 58.0023 28.448 58.0023 29ZM37.8443 24.105H56.8293C57.1153 24.105 57.3873 23.983 57.5763 23.77C57.7663 23.557 57.8553 23.272 57.8223 22.989C56.4093 10.972 47.0303 1.593 35.0133 0.18C34.7263 0.145 34.4453 0.236 34.2323 0.426C34.0193 0.615 33.8973 0.887 33.8973 1.173V20.158C33.8973 22.334 35.6673 24.105 37.8443 24.105Z" fill="#CE9643"/>
</svg>
