<svg width="38" height="28" viewBox="0 0 38 28" fill="none" xmlns="http://www.w3.org/2000/svg">
<g clip-path="url(#clip0_2437_268)">
<path d="M34.3 2.87C34.19 2.8 34.09 2.74 33.98 2.66C33.4 2.28 32.9 1.77 32.33 1.38C30.87 0.39 29.01 0.25 27.25 0.25C25.31 0.25 23.36 0.37 21.43 0.61C20.47 0.73 19.51 0.89 18.55 1.07C17.75 1.23 17.04 1.21 16.25 1.29C13.08 1.63 9.69998 2.76 7.45998 5.12C7.45998 5.12 5.76998 7.19 4.37998 10.47C2.98998 13.75 2.18998 14.84 1.39998 15.84C0.989982 16.36 1.42998 16.67 1.87998 16.88C2.35998 17.11 2.55998 17.23 2.43998 17.89C2.36998 18.26 2.18998 18.61 2.01998 18.95C1.24998 20.5 0.679982 22.16 0.329982 23.86C0.239982 24.32 0.189982 24.87 0.539982 25.18C0.699982 25.32 0.909982 25.38 1.11998 25.44C3.30998 26.04 5.50998 26.64 7.69998 27.24C7.85998 27.28 8.02998 27.33 8.18998 27.28C8.56998 27.15 8.58998 26.59 8.88998 26.32C9.03998 26.18 9.24998 26.14 9.44998 26.11C11.29 25.82 12.84 26.33 14.58 26.79C18.31 27.78 28.75 27.78 33.91 26.79C39.08 25.8 36.77 18.64 36.04 18.34C36.04 18.34 38.46 15.06 36.04 10.19C35.99 10.08 36.66 8.75 36.7 8.56C37 7.31 36.89 5.87 36.27 4.73C35.77 3.81 35.11 3.39 34.3 2.88" fill="#F5F6F8"/>
<path d="M34.43 2.65C33.58 2.11 32.87 1.35 31.97 0.880003C31.12 0.430003 30.18 0.210003 29.23 0.100003C28.17 -0.0199973 27.09 -0.0099973 26.03 0.0200027C24.88 0.0500027 23.72 0.120003 22.58 0.240003C21.45 0.360003 20.32 0.510003 19.2 0.710003C18.62 0.810003 18.04 0.930003 17.45 0.970003C16.94 1.01 16.42 1.03 15.91 1.1C14.05 1.33 12.21 1.81 10.51 2.64C9.26999 3.25 7.94999 4.08 7.09999 5.19C6.27999 6.26 5.57999 7.43 4.96999 8.63C4.09999 10.32 3.46999 12.12 2.51999 13.77C2.24999 14.24 1.95999 14.69 1.64999 15.12C1.34999 15.52 0.769992 16.02 1.04999 16.56C1.22999 16.91 1.60999 17.04 1.92999 17.22C2.27999 17.41 2.22999 17.71 2.11999 18.07C1.95999 18.61 1.63999 19.12 1.40999 19.63C1.18999 20.12 0.989992 20.63 0.809992 21.14C0.469992 22.11 0.119992 23.16 0.0099923 24.19C-0.0300077 24.58 0.0099923 25.02 0.279992 25.32C0.589992 25.65 1.08999 25.72 1.50999 25.83C2.64999 26.14 3.77999 26.45 4.91999 26.76C5.49999 26.92 6.07999 27.08 6.64999 27.24C6.92999 27.32 7.20999 27.39 7.48999 27.47C7.69999 27.53 7.91999 27.6 8.13999 27.56C8.51999 27.49 8.67999 27.18 8.82999 26.86C8.92999 26.65 9.00999 26.5 9.24999 26.42C9.52999 26.33 9.84999 26.32 10.14 26.3C11.22 26.24 12.29 26.46 13.33 26.73C14.02 26.91 14.7 27.11 15.39 27.24C15.98 27.35 16.57 27.43 17.16 27.49C18.66 27.66 20.17 27.73 21.67 27.77C24.93 27.85 28.22 27.77 31.46 27.41C32.15 27.33 32.83 27.24 33.51 27.12C34.14 27.01 34.75 26.87 35.31 26.57C36.27 26.05 36.91 25.14 37.2 24.1C37.48 23.08 37.46 21.99 37.29 20.95C37.16 20.16 36.95 19.32 36.56 18.61C36.46 18.44 36.33 18.21 36.14 18.13C36.17 18.24 36.2 18.36 36.23 18.47C36.49 18.11 36.68 17.68 36.84 17.27C37.23 16.26 37.39 15.16 37.33 14.07C37.29 13.31 37.16 12.56 36.94 11.83C36.83 11.45 36.69 11.08 36.53 10.72C36.48 10.61 36.44 10.5 36.39 10.39C36.39 10.41 36.24 10.07 36.26 10.2C36.26 10.14 36.31 10.04 36.33 9.98C36.5 9.54 36.74 9.13 36.9 8.69C37.12 8.05 37.13 7.26 37.06 6.6C36.97 5.75 36.71 4.88 36.21 4.18C35.74 3.52 35.09 3.08 34.42 2.66C34.15 2.49 33.9 2.92 34.17 3.09C34.76 3.47 35.37 3.85 35.78 4.43C36.23 5.06 36.48 5.83 36.56 6.6C36.63 7.24 36.63 7.98 36.4 8.59C36.24 9.01 36.02 9.41 35.86 9.82C35.81 9.95 35.75 10.09 35.77 10.24C35.8 10.39 35.92 10.56 35.98 10.7C36.09 10.94 36.19 11.19 36.28 11.45C36.53 12.15 36.72 12.89 36.79 13.63C36.9 14.73 36.79 15.84 36.44 16.88C36.28 17.34 36.08 17.82 35.79 18.21C35.72 18.31 35.76 18.5 35.88 18.55C35.91 18.56 35.96 18.61 35.98 18.64C36.05 18.73 36.11 18.84 36.16 18.95C36.32 19.26 36.43 19.59 36.53 19.92C36.8 20.83 36.94 21.79 36.89 22.74C36.84 23.71 36.57 24.72 35.9 25.45C35.07 26.35 33.88 26.55 32.72 26.72C29.7 27.17 26.62 27.28 23.57 27.27C20.82 27.27 17.99 27.23 15.28 26.69C13.55 26.34 11.9 25.67 10.11 25.77C9.67999 25.79 9.11999 25.8 8.74999 26.06C8.45999 26.26 8.39999 26.59 8.21999 26.87C8.06999 27.11 7.82999 27.02 7.59999 26.95C7.31999 26.87 7.03999 26.8 6.75999 26.72C6.21999 26.57 5.67999 26.42 5.14999 26.28C4.04999 25.98 2.95999 25.68 1.85999 25.38C1.44999 25.27 0.679992 25.21 0.519992 24.75C0.379992 24.34 0.549992 23.81 0.649992 23.41C0.889992 22.38 1.20999 21.36 1.60999 20.38C1.80999 19.88 2.03999 19.4 2.27999 18.92C2.47999 18.5 2.68999 18.06 2.68999 17.59C2.68999 17.31 2.59999 17.07 2.37999 16.9C2.13999 16.71 1.60999 16.62 1.47999 16.32C1.37999 16.1 1.71999 15.8 1.84999 15.63C1.97999 15.46 2.10999 15.28 2.23999 15.11C3.02999 13.98 3.63999 12.72 4.19999 11.46C4.94999 9.76 5.71999 8.1 6.73999 6.54C7.30999 5.67 7.79999 5.03 8.63999 4.37C10.07 3.23 11.79 2.49 13.55 2.03C14.43 1.8 15.33 1.63 16.24 1.54C16.77 1.48 17.31 1.47 17.84 1.42C18.36 1.37 18.87 1.26 19.38 1.17C21.59 0.780003 23.83 0.560003 26.08 0.510003C27.99 0.470003 30.12 0.410003 31.84 1.38C32.68 1.85 33.35 2.56 34.17 3.08C34.44 3.25 34.69 2.82 34.42 2.65" fill="#3F5E3E"/>
<path d="M2.03997 17.22C2.77997 17.67 3.54997 18.08 4.32997 18.45C5.06997 18.79 5.83997 19.1 6.49997 19.59C7.15997 20.08 7.72997 20.68 8.38997 21.17C9.04997 21.66 9.76997 22.0599 10.47 22.4799C11.23 22.93 11.98 23.3799 12.74 23.83C13.27 24.1399 13.75 24.51 14.27 24.82C14.64 25.0499 15.16 25.2999 15.58 25.0499C15.77 24.9399 15.89 24.75 15.98 24.5499C16.15 24.16 16.28 23.76 16.39 23.35C16.81 21.84 16.93 20.28 17.25 18.75C17.6 17.05 18.22 15.42 18.79 13.79L20.56 8.71995C20.86 7.85995 21.16 6.98995 21.47 6.12995C21.74 5.35995 22 4.57995 22.44 3.88995C22.86 3.21995 23.44 2.71995 24.2 2.49995C24.6 2.38995 25.01 2.34995 25.42 2.26995C25.9 2.17995 26.38 2.06995 26.86 2.00995C27.81 1.88995 28.8 1.95995 29.76 1.95995C30.79 1.95995 31.82 1.95995 32.85 1.94995C33.17 1.94995 33.17 1.44995 32.85 1.44995C31.07 1.46995 29.28 1.42995 27.5 1.46995C26.7 1.48995 25.92 1.68995 25.13 1.82995C24.46 1.93995 23.82 2.02995 23.23 2.38995C21.96 3.15995 21.46 4.67995 21 5.99995C20.41 7.68995 19.82 9.37995 19.23 11.07C18.65 12.74 18.04 14.39 17.49 16.07C17.23 16.88 16.98 17.69 16.8 18.52C16.64 19.26 16.53 20.02 16.41 20.77C16.28 21.56 16.15 22.35 15.94 23.12C15.85 23.46 15.74 23.7999 15.62 24.1299C15.52 24.4 15.43 24.6999 15.09 24.65C14.61 24.57 14.17 24.15 13.79 23.8799C13.14 23.42 12.42 23.0499 11.73 22.65C10.92 22.17 10.09 21.7 9.29997 21.19C8.51997 20.69 7.86997 20.0599 7.15997 19.4799C6.46997 18.91 5.69997 18.53 4.88997 18.16C3.99997 17.76 3.12997 17.3 2.28997 16.8C2.01997 16.63 1.75997 17.06 2.03997 17.23" fill="#3F5E3E"/>
<path d="M16.33 22.92C17.5 23.23 18.67 23.6 19.87 23.76C21.02 23.92 22.2 23.9 23.37 23.88C24.55 23.86 25.73 23.77 26.9 23.6C28.07 23.43 29.21 23.12 30.38 22.88C30.72 22.81 31.07 22.75 31.41 22.71C31.69 22.67 32.05 22.62 32.3 22.79C32.59 22.99 32.46 23.32 32.19 23.46C31.88 23.63 31.47 23.51 31.16 23.43C30.85 23.35 30.72 23.83 31.03 23.91C31.56 24.05 32.17 24.15 32.63 23.77C32.99 23.47 33.12 22.94 32.8 22.56C32.44 22.13 31.87 22.15 31.37 22.22C30.71 22.31 30.05 22.44 29.4 22.59C28.04 22.9 26.69 23.17 25.3 23.28C23.91 23.39 22.51 23.42 21.12 23.36C19.52 23.29 18.02 22.84 16.48 22.43C16.17 22.35 16.04 22.83 16.35 22.91" fill="#3F5E3E"/>
<path d="M5.47998 18.78C5.27998 20.04 5.07998 21.29 4.87998 22.55C4.77998 23.15 4.66998 23.75 4.59998 24.35C4.54998 24.76 4.53998 25.2 4.67998 25.59C5.07998 26.65 6.44998 26.49 7.36998 26.41C8.61998 26.31 9.85999 26.08 11.1 25.91C12.53 25.7 13.95 25.5 15.38 25.29C15.7 25.24 15.56 24.76 15.25 24.81C12.93 25.14 10.61 25.5 8.28998 25.81C7.71998 25.89 7.13998 25.95 6.55998 25.95C6.11998 25.95 5.48998 26 5.22998 25.57C5.02998 25.25 5.05998 24.82 5.08998 24.46C5.14998 23.92 5.25998 23.38 5.33998 22.84C5.54998 21.53 5.74998 20.23 5.95998 18.92C6.00998 18.6 5.52998 18.47 5.47998 18.79" fill="#3F5E3E"/>
<path d="M9.68 3.50998C11.84 4.24998 13.9 5.27998 15.79 6.55998C16.06 6.73998 16.31 6.30998 16.04 6.12998C14.11 4.81998 12.01 3.77998 9.81 3.02998C9.5 2.92998 9.37 3.40998 9.68 3.50998Z" fill="#3F5E3E"/>
<path d="M17.53 7.79002C17.81 7.95002 18.08 8.12002 18.34 8.31002C18.37 8.33002 18.4 8.36002 18.44 8.38002C18.45 8.39002 18.47 8.40002 18.48 8.41002C18.48 8.41002 18.5 8.42002 18.51 8.43002C18.57 8.48002 18.63 8.53002 18.7 8.58002C18.82 8.68002 18.94 8.79002 19.06 8.90002C19.19 9.02002 19.32 9.16002 19.45 9.29002C19.54 9.39002 19.71 9.39002 19.8 9.29002C19.89 9.19002 19.9 9.04002 19.8 8.94002C19.34 8.45002 18.83 8.02002 18.27 7.66002C18.12 7.56002 17.96 7.46002 17.79 7.37002C17.68 7.30002 17.51 7.34002 17.45 7.46002C17.39 7.58002 17.42 7.73002 17.54 7.80002" fill="#3F5E3E"/>
<path d="M21.33 5.97001C25.36 5.14001 29.56 5.22001 33.56 6.21001C33.87 6.29001 34.01 5.81001 33.69 5.73001C29.6 4.71001 25.32 4.63001 21.19 5.49001C20.88 5.56001 21.01 6.04001 21.32 5.97001" fill="#3F5E3E"/>
<path d="M19.45 11.79C23.69 10.91 28.01 10.43 32.34 10.38C33.58 10.36 34.81 10.38 36.04 10.44C36.36 10.45 36.36 9.95002 36.04 9.94002C31.69 9.76002 27.32 9.99002 23.02 10.64C21.78 10.83 20.54 11.05 19.31 11.31C19 11.38 19.13 11.86 19.44 11.79" fill="#3F5E3E"/>
<path d="M36 18.29C31.52 18.82 26.98 18.93 22.48 18.59C21.2 18.49 19.92 18.36 18.64 18.19C18.32 18.15 18.33 18.65 18.64 18.69C23.12 19.28 27.65 19.43 32.15 19.14C33.43 19.06 34.72 18.94 35.99 18.79C36.31 18.75 36.31 18.25 35.99 18.29" fill="#3F5E3E"/>
</g>
<defs>
<clipPath id="clip0_2437_268">
<rect width="37.43" height="27.78" fill="white"/>
</clipPath>
</defs>
</svg>
