<svg width="36" height="35" viewBox="0 0 36 35" fill="none" xmlns="http://www.w3.org/2000/svg">
<g clip-path="url(#clip0_2437_174)">
<path d="M34.13 20.62C34.67 22.54 35.03 23.85 35.03 23.85C35.03 23.85 35.13 24.16 33.97 24.43C32.81 24.7 31.78 25.12 31.78 25.12C31.78 25.12 30.21 25.7 29.79 25.63C29.38 25.56 28.59 22.21 28.59 22.21C28.59 22.21 27.46 18.17 27.19 17.01C26.92 15.85 28.22 24.17 28.22 24.17C28.22 24.17 28.53 24.79 28.49 25.03C28.46 25.27 27.67 25.34 27.33 25.89C26.99 26.44 26.06 27.02 25.65 29.9C25.24 32.78 25.38 33.08 24.83 33.25C24.28 33.42 24.21 33.63 23.84 33.63C23.47 33.63 19.22 34.38 13.16 33.49C13.16 33.49 12.07 33.56 11.69 33.08C11.31 32.6 11.66 31.57 11.28 29.86C10.9 28.15 10.66 25.82 7.99001 25.14C7.99001 25.14 7.75001 24.97 8.02001 23.94C8.02001 23.94 8.43001 20.76 8.50001 20.28C8.57001 19.8 9.12001 16.24 9.12001 16.24C9.12001 16.24 8.47001 19.29 7.72001 21.51C6.97001 23.74 6.39001 25.79 6.32001 25.96C6.25001 26.13 5.53001 26.03 4.51001 25.76C3.48001 25.49 0.33001 24.66 0.26001 24.25L2.49001 18.43C2.49001 18.43 4.91001 11.12 6.10001 7.99002C7.30001 4.86002 9.23001 2.58002 9.23001 2.58002C10.39 1.48002 11.66 0.630021 12.45 0.320021C12.45 0.320021 12.72 0.150021 13.41 0.590021C14.1 1.03002 15.22 1.86002 18.03 1.68002C18.51 1.65002 18.98 1.62002 19.46 1.58002C20.13 1.52002 20.8 1.44002 21.44 1.21002C21.77 1.09002 22.11 0.950021 22.42 0.790021C22.89 0.550021 23.16 0.240021 23.71 0.480021C24.8 0.950021 25.8 1.64002 26.59 2.57002C26.59 2.57002 28.52 4.85002 29.72 7.98002C30.92 11.11 33.33 18.42 33.33 18.42L34.14 20.64L34.13 20.62Z" fill="white"/>
<path d="M33.89 20.68C34.14 21.58 34.4 22.49 34.65 23.39C34.68 23.51 34.7 23.8 34.79 23.89C34.82 23.93 34.77 23.85 34.79 23.86C34.74 23.83 34.86 23.79 34.75 23.86C34.38 24.1 33.93 24.16 33.51 24.27C33.04 24.39 32.58 24.54 32.12 24.7C31.76 24.83 31.4 24.97 31.04 25.08C30.73 25.18 30.41 25.28 30.09 25.34C30.04 25.34 29.99 25.35 29.93 25.36C29.83 25.37 29.83 25.33 29.9 25.38C29.9 25.38 29.86 25.33 29.82 25.27C29.55 24.81 29.42 24.25 29.27 23.75C29.08 23.08 28.92 22.41 28.74 21.74C28.4 20.51 28.06 19.28 27.73 18.05C27.63 17.65 27.57 17.21 27.42 16.83C27.28 16.48 26.91 16.65 26.92 16.97C26.95 17.73 27.12 18.5 27.23 19.25C27.39 20.35 27.56 21.45 27.73 22.54C27.79 22.95 27.85 23.35 27.92 23.75C27.94 23.91 27.95 24.09 28 24.24C28.03 24.32 28.08 24.4 28.11 24.49C28.14 24.57 28.17 24.64 28.2 24.72C28.22 24.77 28.26 24.96 28.27 24.93C28.29 24.88 28.22 24.95 28.19 24.97C28.13 25 28.07 25.03 28 25.06C27.84 25.14 27.68 25.21 27.53 25.31C27.19 25.55 26.94 25.96 26.68 26.3C25.74 27.53 25.5 29.1 25.31 30.59C25.22 31.24 25.18 31.9 25.05 32.54C25.02 32.69 25 32.79 24.93 32.89C24.95 32.86 24.88 32.93 24.89 32.92C24.81 32.96 24.85 32.94 24.77 32.97C24.46 33.08 24.16 33.31 23.83 33.34C23.75 33.34 23.66 33.35 23.58 33.36C23.2 33.4 22.83 33.44 22.45 33.48C20.95 33.62 19.43 33.66 17.92 33.62C16.85 33.59 15.77 33.52 14.7 33.4C14.18 33.34 13.66 33.23 13.14 33.2C12.9 33.19 12.66 33.2 12.42 33.15C12.13 33.09 11.86 32.98 11.78 32.67C11.71 32.38 11.73 32.07 11.72 31.78C11.7 30.9 11.57 30.06 11.39 29.2C11.11 27.87 10.74 26.49 9.63 25.61C9.32 25.37 8.98 25.18 8.61 25.04C8.51 25 8.41 24.97 8.31 24.93C8.28 24.92 8.21 24.89 8.18 24.89C7.94 24.91 8.3 24.89 8.15 24.91C8.18 24.91 8.15 24.97 8.15 24.88C8.11 24.43 8.25 23.99 8.31 23.54C8.58 21.42 8.88 19.31 9.21 17.2C9.26 16.89 9.31 16.57 9.35 16.26C9.4 15.95 8.94 15.81 8.87 16.13C8.61 17.36 8.3 18.58 7.96 19.78C7.44 21.62 6.79 23.44 6.24 25.27C6.21 25.36 6.03 25.73 6.07 25.83C6.06 25.8 6.2 25.79 6.12 25.75C6.09 25.74 5.99 25.75 5.95 25.75C5.73 25.75 5.52 25.7 5.31 25.65C4.64 25.51 3.98 25.32 3.32 25.13C2.65 24.94 1.97 24.75 1.32 24.51C1.08 24.42 0.839998 24.33 0.619998 24.21C0.589998 24.19 0.479998 24.12 0.479998 24.12C0.519998 24.12 0.439998 24.31 0.499998 24.24C0.549998 24.19 0.579998 24.03 0.609998 23.96C0.679998 23.79 0.739998 23.62 0.809998 23.45C0.999998 22.96 1.19 22.46 1.38 21.97C1.77 20.96 2.15 19.96 2.53 18.95C3.07 17.54 3.51 16.09 3.99 14.66C4.48 13.22 4.97 11.77 5.48 10.34C6.01 8.84003 6.54 7.34003 7.29 5.93003C7.87 4.84003 8.54 3.71003 9.35 2.77003C9.86 2.18003 10.57 1.68003 11.22 1.25003C11.57 1.01003 11.94 0.790031 12.32 0.600031C12.36 0.580031 12.63 0.490031 12.54 0.510031C12.62 0.500031 12.7 0.510031 12.79 0.530031C13.27 0.670031 13.69 1.07003 14.14 1.29003C14.72 1.57003 15.35 1.75003 15.99 1.84003C17.02 1.98003 18.05 1.91003 19.09 1.84003C20.19 1.76003 21.21 1.59003 22.22 1.14003C22.59 0.970031 23.06 0.540031 23.49 0.650031C23.96 0.770031 24.43 1.09003 24.83 1.35003C25.44 1.75003 25.99 2.23003 26.46 2.79003C27.28 3.80003 27.98 4.92003 28.58 6.07003C29.31 7.47003 29.83 8.96003 30.35 10.45C30.85 11.88 31.34 13.3 31.83 14.74C32.38 16.35 32.9 17.98 33.49 19.58C33.63 19.95 33.76 20.32 33.9 20.69C34.01 20.99 34.49 20.86 34.38 20.56C33.85 19.11 33.34 17.66 32.85 16.19C31.92 13.42 31.01 10.65 29.96 7.92003C29.31 6.22003 28.42 4.62003 27.35 3.15003C26.56 2.07003 25.62 1.17003 24.42 0.540031C24.03 0.340031 23.59 0.0700308 23.14 0.150031C22.69 0.230031 22.29 0.570031 21.88 0.750031C20.75 1.24003 19.58 1.32003 18.37 1.40003C16.82 1.50003 15.26 1.44003 13.91 0.610031C13.48 0.340031 12.96 -0.0999692 12.42 0.0400308C12.17 0.110031 11.92 0.260031 11.69 0.380031C11.28 0.610031 10.88 0.870031 10.51 1.16003C9.97 1.56003 9.36 1.99003 8.93 2.52003C8.6 2.94003 8.28 3.37003 7.99 3.81003C6.15 6.56003 5.16 9.72003 4.1 12.82C3.46 14.67 2.89 16.55 2.22 18.4C1.55 20.23 0.829998 22.04 0.129998 23.86C0.0399982 24.09 -0.0800017 24.29 0.129998 24.5C0.459998 24.85 1.1 25 1.54 25.15C2.23 25.38 2.92 25.58 3.62 25.77C4.35 25.97 5.08 26.2 5.84 26.27C6.07 26.29 6.38 26.31 6.52 26.09C6.6 25.96 6.63 25.77 6.68 25.62C6.93 24.79 7.18 23.97 7.44 23.14C8.04 21.25 8.64 19.37 9.1 17.43C9.19 17.05 9.28 16.66 9.36 16.28L8.88 16.15C8.67 17.5 8.45 18.85 8.26 20.21C8.15 21 8.05 21.8 7.95 22.59C7.9 22.96 7.86 23.33 7.81 23.7C7.77 24.04 7.65 24.36 7.65 24.71C7.65 24.95 7.68 25.25 7.93 25.36C8.23 25.5 8.55 25.55 8.85 25.71C9.1 25.85 9.33 26.01 9.54 26.2C10.3 26.91 10.61 27.92 10.83 28.9C10.96 29.47 11.09 30.04 11.17 30.62C11.24 31.22 11.21 31.81 11.26 32.41C11.29 32.81 11.38 33.19 11.74 33.42C12.12 33.67 12.61 33.71 13.05 33.72C13.72 33.73 14.4 33.88 15.07 33.95C15.86 34.03 16.65 34.08 17.45 34.12C18.71 34.17 19.97 34.16 21.23 34.09C21.97 34.05 22.71 33.98 23.44 33.9C23.58 33.88 23.72 33.87 23.86 33.86C24.08 33.84 24.25 33.79 24.45 33.69C24.65 33.58 24.87 33.52 25.08 33.42C25.54 33.2 25.57 32.63 25.63 32.18C25.81 30.85 25.89 29.49 26.3 28.2C26.54 27.46 26.9 26.86 27.38 26.25C27.45 26.17 27.51 26.08 27.57 25.99C27.76 25.74 28.02 25.61 28.3 25.48C28.45 25.41 28.62 25.34 28.71 25.19C28.83 25 28.75 24.75 28.68 24.56C28.62 24.38 28.52 24.21 28.46 24.04C28.5 24.16 28.47 24.04 28.47 24.02C28.47 23.85 28.42 23.68 28.39 23.51C28.29 22.83 28.18 22.15 28.08 21.47C27.86 20.05 27.63 18.64 27.46 17.21C27.46 17.14 27.45 17.06 27.44 16.99C27.42 16.87 27.47 16.91 27.4 17.01C27.35 17.05 27.3 17.09 27.25 17.13C27.19 17.13 27.12 17.11 27.06 17.1C26.94 17.01 26.97 16.91 26.97 17.02C26.97 17.12 27.02 17.22 27.04 17.32C27.12 17.64 27.21 17.97 27.29 18.29C27.5 19.07 27.71 19.86 27.93 20.64C28.15 21.45 28.37 22.27 28.58 23.08C28.76 23.75 28.94 24.43 29.19 25.07C29.28 25.29 29.37 25.55 29.54 25.73C29.72 25.92 29.95 25.89 30.19 25.85C30.76 25.76 31.33 25.55 31.88 25.35C32.18 25.24 32.49 25.13 32.8 25.03C33.38 24.84 34 24.73 34.57 24.53C35 24.38 35.41 24.14 35.27 23.65C34.99 22.62 34.7 21.59 34.41 20.56C34.32 20.25 33.84 20.38 33.93 20.69" fill="#3F5E3E"/>
<path d="M9.33997 16.27C9.94997 13.9 10.57 11.48 10.67 9.02001C10.77 6.61001 10.77 4.15001 10.14 1.81001C10.06 1.50001 9.56997 1.63001 9.65997 1.94001C10.28 4.24001 10.28 6.65001 10.17 9.02001C10.07 11.43 9.45997 13.81 8.85997 16.13C8.77997 16.44 9.25997 16.57 9.33997 16.26" fill="#3F5E3E"/>
<path d="M12.58 0.020014C12.14 0.120014 11.97 0.570014 11.91 0.970014C11.88 1.20001 11.85 1.44001 11.85 1.67001C11.85 1.89001 11.86 2.10001 11.85 2.32001C11.8 3.13001 11.41 3.88001 10.97 4.54001C10.84 4.74001 10.7 4.93001 10.57 5.12001C10.46 5.27001 10.36 5.43001 10.23 5.57001C10.01 5.80001 10.36 6.15001 10.58 5.92001C10.83 5.66001 11.02 5.34001 11.23 5.05001C11.46 4.72001 11.67 4.38001 11.85 4.02001C12.03 3.66001 12.18 3.29001 12.26 2.89001C12.35 2.47001 12.33 2.07001 12.34 1.64001C12.34 1.40001 12.37 1.16001 12.42 0.930014C12.46 0.750014 12.52 0.540014 12.72 0.500014C13.03 0.430014 12.9 -0.049986 12.59 0.020014" fill="#3F5E3E"/>
<path d="M0.469983 23.74C2.38998 24.52 4.48998 24.7 6.39998 25.53C6.51998 25.58 6.66998 25.57 6.73998 25.44C6.79998 25.33 6.76998 25.15 6.64998 25.1C4.70998 24.26 2.55998 24.06 0.599983 23.26C0.479983 23.21 0.329983 23.32 0.289983 23.44C0.249983 23.58 0.339983 23.7 0.469983 23.75" fill="#3F5E3E"/>
<path d="M29.41 25.0801C31.24 24.5901 33.05 24.0301 34.85 23.4201C35.15 23.3201 35.02 22.8301 34.72 22.9401C32.93 23.5601 31.12 24.1201 29.28 24.6101C28.97 24.6901 29.1 25.1701 29.41 25.0901" fill="#3F5E3E"/>
<path d="M11.85 1.86003C11.96 2.23003 12.22 2.53003 12.47 2.81003C12.78 3.16003 13.14 3.47003 13.54 3.72003C14.35 4.24003 15.33 4.68003 16.28 4.86003C17.25 5.04003 18.27 5.15003 19.26 5.02003C20.22 4.90003 21.07 4.50003 21.82 3.90003C22.23 3.57003 22.69 3.22003 23 2.79003C23.33 2.34003 23.59 1.87003 23.85 1.38003C24 1.09003 23.57 0.840033 23.42 1.13003C23.22 1.51003 23.02 1.87003 22.78 2.23003C22.53 2.60003 22.25 2.89003 21.91 3.18003C21.23 3.77003 20.5 4.26003 19.61 4.46003C18.71 4.66003 17.76 4.58003 16.85 4.46003C15.97 4.34003 15.17 4.04003 14.38 3.63003C13.92 3.40003 13.48 3.12003 13.11 2.76003C12.82 2.48003 12.45 2.13003 12.33 1.73003C12.24 1.42003 11.75 1.55003 11.85 1.86003Z" fill="#3F5E3E"/>
<path d="M14.53 29.2401C13.62 28.8101 13.12 27.8401 12.56 27.0501C12.29 26.6601 11.99 26.2701 11.62 25.9601C11.18 25.5901 10.64 25.3401 10.11 25.1401C9.77997 25.0201 9.42997 24.9301 9.07997 24.8701C8.89997 24.8401 8.71997 24.8101 8.53997 24.8101C8.34997 24.8101 8.14997 24.8401 7.95997 24.8401C7.63997 24.8401 7.63997 25.3501 7.95997 25.3401C8.28997 25.3401 8.59997 25.2901 8.91997 25.3401C9.21997 25.3901 9.51997 25.4601 9.80997 25.5601C10.33 25.7301 10.87 25.9701 11.29 26.3201C12.01 26.9301 12.43 27.8001 13 28.5301C13.35 28.9801 13.76 29.4101 14.28 29.6601C14.57 29.8001 14.82 29.3701 14.53 29.2301" fill="#3F5E3E"/>
<path d="M28.26 24.93C27.17 25.1 26.05 25.28 25.08 25.85C24.64 26.11 24.26 26.44 23.95 26.84C23.64 27.24 23.38 27.68 23.09 28.1C22.8 28.53 22.48 28.97 22.03 29.25C21.76 29.42 22.01 29.85 22.28 29.68C23.12 29.15 23.58 28.22 24.13 27.43C24.4 27.04 24.71 26.7 25.1 26.43C25.54 26.13 26.03 25.94 26.54 25.79C27.14 25.62 27.76 25.52 28.38 25.42C28.51 25.4 28.59 25.23 28.55 25.11C28.51 24.97 28.38 24.91 28.24 24.93" fill="#3F5E3E"/>
<path d="M25.64 1.81002C25.19 3.46002 25.05 5.18002 25.07 6.89002C25.09 8.42002 25.35 9.88002 25.66 11.37C25.95 12.74 26.28 14.11 26.59 15.47L26.95 17.06C27.02 17.37 27.5 17.24 27.43 16.93C27.15 15.67 26.86 14.41 26.58 13.15C26.17 11.32 25.69 9.49002 25.59 7.62002C25.49 5.72002 25.63 3.79002 26.12 1.95002C26.2 1.64002 25.72 1.51002 25.64 1.82002" fill="#3F5E3E"/>
<path d="M25.56 5.57003C25.44 5.45003 25.35 5.31003 25.25 5.18003C25.13 5.02003 25.01 4.85003 24.89 4.69003C24.65 4.34003 24.42 3.98003 24.25 3.60003C24.09 3.25003 23.97 2.86003 23.95 2.47003C23.93 2.25003 23.95 2.02003 23.95 1.80003C23.95 1.57003 23.92 1.33003 23.88 1.10003C23.84 0.860029 23.76 0.620029 23.59 0.440029C23.51 0.350029 23.4 0.290029 23.29 0.250029C23.27 0.250029 23.25 0.240029 23.23 0.230029C23.23 0.230029 23.15 0.210029 23.19 0.230029C23.24 0.240029 23.15 0.210029 23.13 0.210029C23.09 0.200029 23.05 0.200029 23.02 0.190029C22.88 0.170029 22.77 0.310029 22.77 0.440029C22.77 0.590029 22.88 0.670029 23.02 0.690029C23 0.690029 22.92 0.650029 23 0.690029C23.01 0.690029 23.03 0.710029 23.05 0.710029C23.09 0.720029 23.13 0.720029 23.16 0.740029C23.22 0.770029 23.26 0.820029 23.29 0.880029C23.39 1.06003 23.41 1.28003 23.43 1.48003C23.47 1.91003 23.43 2.34003 23.49 2.77003C23.61 3.56003 24.01 4.29003 24.46 4.94003C24.59 5.12003 24.72 5.30003 24.85 5.47003C24.97 5.63003 25.08 5.80003 25.22 5.95003C25.45 6.18003 25.8 5.82003 25.57 5.60003" fill="#3F5E3E"/>
<path d="M11.46 33.0199C11.84 33.1199 12.13 32.8899 12.36 32.5999C12.65 32.2299 12.9 31.8299 13.16 31.4399C13.43 31.0199 13.71 30.5899 14.04 30.1999C14.11 30.1099 14.19 30.0299 14.27 29.9399C14.31 29.8999 14.35 29.8599 14.39 29.8199C14.39 29.8199 14.5 29.6699 14.44 29.7399C14.41 29.7699 14.44 29.7399 14.47 29.7299C14.49 29.7099 14.53 29.6999 14.55 29.6799C14.58 29.6699 14.59 29.6299 14.61 29.6099C14.61 29.6099 14.56 29.6699 14.59 29.6399C14.93 29.2699 15.39 29.0299 15.89 28.9699C16.15 28.9399 16.43 28.9499 16.69 28.9499C17.66 28.9299 18.63 28.9199 19.61 28.8999C19.92 28.8999 20.24 28.8999 20.55 28.8799C20.59 28.8799 20.74 28.8699 20.66 28.8699C20.82 28.8699 20.97 28.8899 21.11 28.9499C21.55 29.1299 21.86 29.4999 22.19 29.8399C22.59 30.2399 22.94 30.6699 23.27 31.1299C23.57 31.5499 23.86 31.9799 24.18 32.3899C24.33 32.5899 24.48 32.8099 24.67 32.9799C24.74 33.0399 24.81 33.0899 24.9 33.1299C24.97 33.1499 25.12 33.1499 25.13 33.1499C25.44 33.2299 25.57 32.7499 25.26 32.6699C25.07 32.6199 24.98 32.5899 24.84 32.4399C24.71 32.2899 24.59 32.1299 24.47 31.9699C24.23 31.6399 24 31.3099 23.76 30.9799C23.28 30.3099 22.76 29.6999 22.17 29.1199C21.81 28.7699 21.35 28.4399 20.83 28.3899C20.73 28.3799 20.64 28.3899 20.54 28.3899C20.62 28.3899 20.57 28.3899 20.49 28.3899C19.09 28.3699 17.68 28.4399 16.27 28.4599C15.48 28.4699 14.66 28.7099 14.16 29.3699C14.23 29.3299 14.3 29.2899 14.38 29.2499C14.12 29.2599 13.9 29.5999 13.75 29.7799C13.5 30.0699 13.28 30.3699 13.06 30.6899C12.85 30.9999 12.65 31.3199 12.44 31.6299C12.31 31.8299 11.89 32.6399 11.59 32.5599C11.28 32.4799 11.15 32.9599 11.46 33.0399" fill="#3F5E3E"/>
</g>
<defs>
<clipPath id="clip0_2437_174">
<rect width="35.26" height="34.15" fill="white"/>
</clipPath>
</defs>
</svg>
