<svg width="30" height="28" viewBox="0 0 30 28" fill="none" xmlns="http://www.w3.org/2000/svg">
<path d="M10.1454 8.62992L1.30889 9.49724L1.22556 9.5076C0.0203004 9.68999 -0.438129 11.1897 0.502741 11.9894L7.12165 17.6152L5.35196 26.2934L5.33811 26.3717C5.16344 27.5389 6.45365 28.4097 7.51107 27.7996L15 23.4788L22.4889 27.7996L22.5597 27.838C23.6266 28.3828 24.8886 27.4732 24.648 26.2934L22.8779 17.6152L29.4973 11.9894L29.5593 11.9338C30.4368 11.1033 29.93 9.61868 28.6911 9.49718L19.854 8.62979L16.3264 0.845368C15.8156 -0.281789 14.1845 -0.281789 13.6737 0.845368L10.1454 8.62992Z" fill="white"/>
</svg>
