<svg width="25" height="38" viewBox="0 0 25 38" fill="none" xmlns="http://www.w3.org/2000/svg">
<g clip-path="url(#clip0_2374_56)">
<path d="M13.91 27.04C13.76 27.06 13.62 27.08 13.47 27.09C13.62 27.09 13.77 27.07 13.91 27.04Z" fill="white"/>
<path d="M24.62 12.6C24.55 11.91 24.43 11.22 24.24 10.52C24.04 9.77999 23.91 9.02999 23.68 8.28999C23.11 6.38999 22.21 4.56999 20.67 3.26999C20.67 3.26999 18.24 0.47999 13.61 -0.0100098H11.1C6.47001 0.47999 4.04001 3.26999 4.04001 3.26999C2.50001 4.56999 1.60001 6.37999 1.03001 8.28999C0.720006 9.32999 0.400006 10.39 0.240006 11.47C-0.089994 13.77 -0.019994 16.21 0.100006 18.51C0.200006 20.47 0.360006 22.53 0.920006 24.42C1.49001 26.38 2.90001 26.12 4.68001 26.12C5.59001 26.12 6.51001 26.06 7.40001 26.24C8.09001 26.38 8.75001 26.67 9.45001 26.78C8.32001 26.46 7.23001 25.89 6.33001 25.13C5.42001 24.35 4.60001 23.47 3.86001 22.52C3.34001 21.85 2.93001 21.11 2.61001 20.33C2.47001 20 2.48001 19.59 2.25001 19.3C2.05001 19.05 1.78001 18.85 1.57001 18.62C1.35001 18.37 1.14001 18.19 1.05001 17.86C0.880006 17.21 1.08001 16.46 1.42001 15.9C2.24001 14.57 2.30001 12.86 2.54001 11.37C2.80001 9.72999 3.38001 7.90999 4.41001 6.58999C3.74001 8.14999 3.36001 9.82999 3.28001 11.52C3.26001 11.82 3.16001 14.72 3.06001 14.76C3.61001 14.58 4.17001 14.48 4.73001 14.37C5.27001 14.26 5.81001 14.06 6.35001 13.98C6.33001 13.98 6.31001 11.88 6.32001 11.64C6.36001 10.79 6.50001 9.94999 6.71001 9.11999C6.60001 9.53999 6.68001 10.09 6.68001 10.52C6.68001 11.65 6.64001 12.86 6.92001 13.97C6.92001 13.97 9.19001 13.7 9.40001 13.68C10.26 13.61 11.13 13.57 12 13.55C12.85 13.54 13.7 13.55 14.55 13.6C15.41 13.65 16.28 13.8 17.13 13.82C17.13 13.82 17.23 10.96 16.81 8.14999C16.81 8.14999 17.71 9.79999 17.96 14.08C17.96 14.13 21.01 14.75 21.3 14.82C21.15 14.79 21.18 13.92 21.18 13.82C21.18 13.46 21.14 13.1 21.09 12.74C21.09 12.74 20.86 8.75999 19.87 6.54999C19.87 6.54999 20.88 7.86999 21.72 12.69C21.89 13.65 21.72 14.57 22.4 15.4C23.09 16.23 23.46 17.22 22.8 18.17C22.6 18.46 22.33 18.67 22.12 18.95C21.61 19.63 21.44 20.4 21.01 21.19C20.18 22.71 19.04 24.04 17.73 25.16C16.88 25.89 15.94 26.38 14.95 26.69C14.62 26.84 14.27 26.98 13.92 27.05C14.75 26.95 15.56 26.74 16.33 26.43C16.84 26.22 17.13 26.14 17.69 26.14H21.14C23.54 26.14 23.77 23.87 24.11 21.95C24.41 20.28 24.56 18.59 24.63 16.89C24.7 15.44 24.76 14.02 24.63 12.6H24.62Z" fill="white"/>
<path d="M4.36 31.81C4.26 31.76 4.14 31.71 3.99 31.67C3.18 31.46 2.53 31.83 2.19 32.38H2.21C2.48 32.24 2.86 32.19 3.25 32.36C3.88 32.64 4.12 33.3 3.81 33.99C3.52 34.64 2.8 35.04 2.06 34.71C1.3 34.37 1.07 33.55 1.48 32.63C1.79 31.93 2.29 31.49 2.8 31.3C3.23 31.14 3.7 31.14 4.17 31.29C4.32 31.33 4.44 31.38 4.53 31.42L4.35 31.81H4.36ZM3.3 33.8C3.53 33.29 3.38 32.85 2.93 32.66C2.64 32.53 2.29 32.59 2.04 32.79C1.98 32.83 1.93 32.89 1.89 32.98C1.64 33.57 1.71 34.12 2.22 34.35C2.64 34.54 3.07 34.32 3.3 33.81V33.8Z" fill="white"/>
<path d="M5.82999 34.14L5.69999 34.51L4.29999 34.03L4.42999 33.66L5.82999 34.14Z" fill="white"/>
<path d="M6.08 35.1C6.19 34.62 6.56 34.35 7.07 34.26V34.2401C6.69 33.9401 6.59 33.5701 6.67 33.25C6.81 32.65 7.42 32.3601 8.08 32.5201C8.82 32.6901 9.07 33.24 8.96 33.71C8.88 34.03 8.65 34.3401 8.13 34.4501V34.4701C8.55 34.7701 8.77 35.1701 8.66 35.6301C8.5 36.2901 7.83 36.6 7.11 36.4301C6.32 36.2401 5.95 35.66 6.08 35.1ZM8.13 35.5601C8.24 35.1001 7.97 34.8 7.49 34.53C7.02 34.55 6.71 34.7901 6.62 35.1501C6.51 35.5301 6.72 35.94 7.21 36.05C7.67 36.16 8.04 35.94 8.13 35.55V35.5601ZM7.17 33.3301C7.08 33.7101 7.32 33.9801 7.73 34.2001C8.08 34.1601 8.39 33.9901 8.47 33.6501C8.54 33.3501 8.44 32.9901 7.97 32.8801C7.54 32.7801 7.24 33.0001 7.17 33.3301Z" fill="white"/>
<path d="M11.43 37.01L11.52 35.3L10.36 32.91L10.95 32.94L11.46 34.08C11.6 34.39 11.71 34.65 11.82 34.93H11.83C11.96 34.67 12.11 34.42 12.28 34.12L12.92 33.04L13.51 33.07L12.04 35.32L11.95 37.04L11.42 37.01H11.43Z" fill="white"/>
<path d="M13.8 35.7C13.86 36.41 14.34 36.67 14.86 36.64C15.24 36.61 15.46 36.53 15.65 36.43L15.77 36.8C15.59 36.9 15.28 37.01 14.82 37.05C13.93 37.11 13.36 36.56 13.29 35.69C13.23 34.82 13.7 34.09 14.54 34.03C15.49 33.96 15.79 34.78 15.83 35.31C15.83 35.42 15.83 35.5 15.83 35.56L13.8 35.7ZM15.32 35.21C15.3 34.87 15.12 34.36 14.53 34.41C14 34.45 13.8 34.95 13.78 35.32L15.32 35.21Z" fill="white"/>
<path d="M18.53 36.42L18.42 36.07H18.4C18.29 36.33 18.02 36.59 17.62 36.68C17.04 36.8 16.67 36.45 16.58 36.04C16.44 35.35 16.97 34.85 18.07 34.63V34.57C18.01 34.34 17.86 33.93 17.28 34.05C17.02 34.1 16.76 34.24 16.58 34.41L16.39 34.09C16.59 33.89 16.91 33.72 17.27 33.64C18.14 33.46 18.47 34.01 18.59 34.58L18.81 35.64C18.86 35.89 18.92 36.13 19 36.31L18.53 36.41V36.42ZM18.15 34.99C17.58 35.09 16.96 35.33 17.08 35.88C17.15 36.21 17.41 36.33 17.67 36.27C18.04 36.19 18.23 35.91 18.26 35.65C18.26 35.59 18.26 35.53 18.26 35.48L18.16 34.99H18.15Z" fill="white"/>
<path d="M19.41 34.13C19.31 33.8 19.21 33.53 19.11 33.27L19.55 33.13L19.74 33.67H19.76C19.76 33.25 20 32.92 20.33 32.81C20.39 32.79 20.43 32.78 20.48 32.78L20.63 33.25C20.58 33.25 20.52 33.26 20.45 33.29C20.1 33.4 19.93 33.75 19.98 34.15C19.99 34.22 20 34.31 20.03 34.39L20.5 35.86L20 36.02L19.39 34.12L19.41 34.13Z" fill="white"/>
<path d="M21.82 34.86C22 34.89 22.3 34.89 22.54 34.79C22.89 34.64 22.99 34.4 22.89 34.17C22.79 33.94 22.6 33.87 22.19 33.88C21.64 33.91 21.3 33.74 21.16 33.42C20.98 32.99 21.18 32.49 21.76 32.25C22.03 32.14 22.3 32.11 22.49 32.14L22.52 32.55C22.39 32.53 22.16 32.52 21.91 32.62C21.62 32.74 21.53 32.97 21.62 33.17C21.71 33.39 21.91 33.42 22.32 33.41C22.86 33.39 23.2 33.53 23.36 33.92C23.56 34.39 23.33 34.87 22.69 35.14C22.4 35.26 22.1 35.3 21.86 35.27L21.83 34.85L21.82 34.86Z" fill="white"/>
</g>
<defs>
<clipPath id="clip0_2374_56">
<rect width="24.71" height="37.05" fill="white"/>
</clipPath>
</defs>
</svg>
