<svg width="15" height="37" viewBox="0 0 15 37" fill="none" xmlns="http://www.w3.org/2000/svg">
<g clip-path="url(#clip0_2437_221)">
<path d="M7.99002 36.44C11.88 36.7 13.93 34.94 13.93 34.94C15.85 21.51 13.61 19.33 12.56 15.02C11.51 10.71 12.88 7.22999 13.61 5.39999C14.34 3.56999 14.65 1.17999 14.65 1.17999L11.84 0.23999C11.84 0.23999 11.81 0.24999 11.8 0.25999C11.04 0.59999 10.15 0.70999 9.32002 0.72999C8.44002 0.74999 7.57002 0.72999 6.68002 0.75999C5.93002 0.77999 5.17002 0.74999 4.43002 0.61999C4.09002 0.55999 3.76002 0.48999 3.43002 0.37999C3.38002 0.35999 3.15002 0.22999 3.10002 0.24999L0.290017 1.18999C0.290017 1.18999 0.600017 3.57999 1.33002 5.40999C2.06002 7.23999 3.44002 10.72 2.38002 15.03C1.33002 19.34 -0.909983 21.51 1.01002 34.95C1.01002 34.95 3.05002 36.7 6.95002 36.45H7.99002V36.44Z" fill="white"/>
<path d="M7.99003 36.69C9.65003 36.79 11.33 36.57 12.85 35.87C13.22 35.7 13.58 35.51 13.91 35.27C13.97 35.22 14.05 35.18 14.1 35.12C14.2 35.01 14.19 34.84 14.21 34.7C14.25 34.4 14.29 34.1 14.33 33.8C14.77 30.42 15.1 26.98 14.84 23.57C14.69 21.67 14.31 19.82 13.73 18.01C13.5 17.29 13.25 16.57 13.04 15.84C12.57 14.25 12.35 12.62 12.46 10.96C12.57 9.30001 13 7.69001 13.6 6.14001C13.9 5.36001 14.19 4.59001 14.4 3.79001C14.59 3.06001 14.74 2.32001 14.85 1.58001C14.87 1.45001 14.89 1.32001 14.91 1.19001C14.92 1.08001 14.82 0.980006 14.73 0.950006C14.1 0.740006 13.47 0.530006 12.84 0.320006C12.55 0.220006 12.26 0.0900058 11.96 0.0300058C11.8 5.81704e-06 11.7 0.0600058 11.54 0.120006C11.11 0.280006 10.66 0.380006 10.21 0.440006C9.36003 0.540006 8.50003 0.510006 7.65003 0.510006C6.77003 0.510006 5.90003 0.560006 5.02003 0.460006C4.60003 0.420006 4.18003 0.340006 3.77003 0.230006C3.54003 0.170006 3.27003 -0.0299942 3.03003 0.0100058C2.82003 0.0500058 2.61003 0.150006 2.40003 0.220006C1.67003 0.460006 0.94003 0.700006 0.22003 0.940006C0.13003 0.970006 0.0200304 1.07001 0.0400304 1.18001C0.23003 2.63001 0.55003 4.11001 1.09003 5.47001C1.67003 6.94001 2.18003 8.43001 2.39003 10.01C2.65003 11.88 2.48003 13.76 1.98003 15.57C1.76003 16.34 1.51003 17.09 1.26003 17.85C0.65003 19.72 0.24003 21.62 0.10003 23.59C-0.16997 27.21 0.21003 30.87 0.70003 34.45C0.73003 34.68 0.70003 34.98 0.89003 35.15C0.98003 35.23 1.09003 35.3 1.20003 35.37C1.62003 35.65 2.08003 35.87 2.55003 36.05C3.30003 36.35 4.10003 36.53 4.90003 36.63C5.72003 36.73 6.54003 36.68 7.36003 36.68H8.00003C8.32003 36.68 8.32003 36.18 8.00003 36.18C6.54003 36.18 5.10003 36.27 3.67003 35.89C3.05003 35.73 2.45003 35.5 1.89003 35.2C1.72003 35.11 1.56003 35.01 1.40003 34.9C1.35003 34.87 1.30003 34.83 1.25003 34.8C1.21003 34.77 1.23003 34.82 1.21003 34.77C1.21003 34.77 1.20003 34.77 1.20003 34.76C1.20003 34.76 1.21003 34.76 1.22003 34.76C1.28003 34.76 1.28003 34.71 1.22003 34.63C1.22003 34.57 1.20003 34.51 1.19003 34.45C1.14003 34.12 1.10003 33.78 1.06003 33.45C0.99003 32.9 0.92003 32.34 0.86003 31.78C0.75003 30.78 0.66003 29.78 0.60003 28.78C0.50003 27.23 0.47003 25.68 0.56003 24.13C0.67003 22.14 1.04003 20.2 1.64003 18.31C1.88003 17.57 2.13003 16.83 2.35003 16.09C2.82003 14.52 3.07003 12.9 3.00003 11.26C2.92003 9.53001 2.52003 7.84001 1.91003 6.22001C1.63003 5.48001 1.33003 4.75001 1.11003 3.98001C0.89003 3.18001 0.72003 2.37001 0.59003 1.56001C0.57003 1.46001 0.56003 1.36001 0.54003 1.27001C0.54003 1.22001 0.52003 1.11001 0.53003 1.19001C0.47003 1.27001 0.41003 1.35001 0.35003 1.43001C1.22003 1.14001 2.08003 0.850006 2.95003 0.560006C3.00003 0.540006 3.07003 0.510006 3.12003 0.500006C3.13003 0.500006 3.14003 0.490006 3.16003 0.490006C3.04003 0.490006 3.23003 0.560006 3.27003 0.580006C3.74003 0.780006 4.28003 0.860006 4.78003 0.930006C5.97003 1.08001 7.17003 1.01001 8.36003 1.00001C9.58003 1.00001 10.83 0.990006 11.96 0.470006C11.9 0.470006 11.83 0.490006 11.77 0.500006C12.71 0.810006 13.64 1.12001 14.58 1.44001C14.52 1.36001 14.46 1.28001 14.4 1.20001C14.4 1.14001 14.4 1.20001 14.4 1.25001C14.39 1.35001 14.37 1.45001 14.36 1.55001C14.31 1.87001 14.25 2.20001 14.18 2.52001C14 3.42001 13.77 4.32001 13.45 5.18001C12.93 6.56001 12.41 7.92001 12.16 9.38001C11.82 11.32 11.88 13.31 12.36 15.23C12.54 15.96 12.77 16.67 13.01 17.39C13.55 19.02 14.02 20.66 14.24 22.38C14.61 25.33 14.45 28.34 14.15 31.28C14.04 32.39 13.9 33.49 13.75 34.59C13.74 34.69 13.76 34.77 13.75 34.8C13.75 34.84 13.75 34.8 13.71 34.83C13.6 34.91 13.48 34.99 13.36 35.06C12.22 35.76 10.87 36.11 9.55003 36.2C9.04003 36.24 8.53003 36.23 8.02003 36.2C7.70003 36.18 7.70003 36.68 8.02003 36.7" fill="#3F5E3E"/>
<path d="M2.73001 10.47C3.45001 10.76 4.25001 10.68 5.00001 10.52C5.85001 10.34 6.69001 10.13 7.56001 10.14C8.37001 10.14 9.15001 10.36 9.93001 10.52C10.68 10.67 11.47 10.76 12.2 10.47C12.49 10.35 12.37 9.87001 12.07 9.99001C11.34 10.28 10.57 10.16 9.83001 9.99001C9.09001 9.83001 8.33001 9.65001 7.56001 9.64001C6.73001 9.64001 5.91001 9.81001 5.11001 9.99001C4.37001 10.15 3.59001 10.28 2.86001 9.99001C2.56001 9.87001 2.43001 10.35 2.73001 10.47Z" fill="#3F5E3E"/>
<path d="M11.55 0.390052C10.76 2.10005 9.94998 3.89005 8.53998 5.18005C8.37998 5.33005 8.20998 5.47005 8.02998 5.60005C7.86998 5.72005 7.67998 5.87005 7.46998 5.88005C7.13998 5.90005 6.83998 5.61005 6.62998 5.41005C5.97998 4.79005 5.39998 4.12005 4.91998 3.37005C4.31998 2.43005 3.84998 1.41005 3.38998 0.400052C3.25998 0.110052 2.81998 0.360052 2.95998 0.650052C3.39998 1.62005 3.84998 2.58005 4.40998 3.49005C4.92998 4.33005 5.55998 5.06005 6.25998 5.75005C6.52998 6.01005 6.84998 6.29005 7.22998 6.37005C7.67998 6.46005 8.02998 6.24005 8.37998 5.98005C9.16998 5.40005 9.79998 4.63005 10.33 3.82005C10.99 2.82005 11.49 1.74005 11.99 0.650052C12.12 0.360052 11.69 0.110052 11.56 0.400052" fill="#3F5E3E"/>
</g>
<defs>
<clipPath id="clip0_2437_221">
<rect width="14.93" height="36.71" fill="white"/>
</clipPath>
</defs>
</svg>
