<svg width="25" height="32" viewBox="0 0 25 32" fill="none" xmlns="http://www.w3.org/2000/svg">
<g clip-path="url(#clip0_2437_227)">
<path d="M19.02 10.89C19.39 11.51 19.51 12.29 19.71 12.97C19.89 13.6 20.05 14.25 20.18 14.89C20.56 16.74 20.76 18.63 20.81 20.52C20.83 21.43 20.85 22.34 20.89 23.26C20.89 23.26 21.02 26.39 20.2 28.99C19.87 30.05 19.3 31.34 18.94 31.32C18.83 31.32 18.73 31.35 18.62 31.34C18.62 31.34 15.93 31.36 14.81 30.89C14.62 30.81 14.64 30.5 14.59 30.32L14.16 27.48C13.96 26.08 13.97 24.62 13.42 23.31C13.21 22.81 12.96 22.37 12.43 22.17C12.18 22.08 11.95 22.14 11.72 22.27C11.6 22.34 11.48 22.44 11.39 22.54C11.19 22.76 11.07 23.03 10.95 23.3C10.4 24.6 10.4 26.07 10.21 27.47L9.78001 30.31C9.73001 30.49 9.75001 30.8 9.56001 30.88C8.44001 31.35 5.75001 31.33 5.75001 31.33C5.64001 31.34 5.54001 31.31 5.43001 31.31C5.07001 31.33 4.50001 30.04 4.17001 28.98C3.35001 26.38 3.48001 23.25 3.48001 23.25C3.51001 22.34 3.54001 21.43 3.56001 20.51C3.60001 18.62 3.81001 16.73 4.19001 14.88C4.32001 14.23 4.48001 13.59 4.66001 12.95C4.86001 12.27 4.98001 11.48 5.35001 10.87C5.35001 10.87 5.57001 10.69 5.87001 10.56C6.17001 10.43 6.59001 10.24 6.59001 10.24C7.77001 9.40001 7.87001 5.78001 7.99001 4.13001C8.05001 3.16001 7.96001 2.23001 7.86001 1.26001C7.83001 1.01001 7.82001 0.680013 8.06001 0.520013C8.34001 0.330013 8.80001 0.280013 9.12001 0.250013C9.20001 0.250013 9.29001 0.240013 9.36001 0.270013C9.44001 0.310013 9.50001 0.400013 9.54001 0.480013C10.01 1.30001 10.45 2.12001 10.87 2.96001C11.08 3.38001 11.29 3.80001 11.49 4.23001C11.59 4.44001 11.68 4.66001 11.79 4.86001C11.86 5.00001 11.92 5.25001 12.1 5.28001H12.27C12.45 5.25001 12.52 5.01001 12.58 4.87001C12.68 4.66001 12.78 4.45001 12.88 4.24001C13.08 3.81001 13.29 3.39001 13.5 2.97001C13.92 2.13001 14.37 1.30001 14.83 0.490013C14.88 0.410013 14.93 0.320013 15.01 0.280013C15.08 0.240013 15.17 0.250013 15.25 0.260013C15.57 0.290013 15.88 0.360013 16.18 0.470013C16.28 0.510013 16.38 0.550013 16.44 0.640013C16.44 0.640013 16.48 1.62001 16.41 3.76001C16.33 5.90001 16.78 9.02001 17.48 9.93001C17.48 9.93001 17.79 10.29 18.48 10.54C19.17 10.79 19.03 10.87 19.03 10.87" fill="#F5F6F8"/>
<path d="M18.81 11.01C19.05 11.44 19.18 11.91 19.3 12.38C19.42 12.86 19.56 13.34 19.69 13.82C19.96 14.88 20.16 15.95 20.3 17.03C20.58 19.1 20.58 21.19 20.65 23.28C20.69 24.5 20.61 25.73 20.42 26.93C20.27 27.87 20.04 28.8 19.7 29.69C19.55 30.08 19.38 30.48 19.15 30.83C18.98 31.08 18.91 31.09 18.61 31.09C17.54 31.11 16.4 31.06 15.35 30.8C15.25 30.77 15.05 30.75 14.96 30.68C14.86 30.6 14.86 30.39 14.83 30.26C14.81 30.16 14.8 30.06 14.79 29.96L14.56 28.42C14.36 27.11 14.3 25.78 14.04 24.48C13.88 23.71 13.62 22.72 12.97 22.21C12.17 21.57 11.3 22.08 10.88 22.89C10.13 24.36 10.18 26.05 9.94001 27.65C9.81001 28.51 9.70001 29.38 9.55001 30.24C9.53001 30.34 9.52001 30.44 9.50001 30.54C9.45001 30.71 9.32001 30.72 9.16001 30.76C8.85001 30.85 8.52001 30.9 8.20001 30.94C7.57001 31.02 6.94001 31.05 6.30001 31.07C6.13001 31.07 5.97001 31.07 5.80001 31.07C5.58001 31.07 5.45001 31.09 5.31001 30.92C5.07001 30.62 4.90001 30.22 4.76001 29.86C4.59001 29.43 4.44001 29 4.31001 28.55C3.87001 26.99 3.73001 25.35 3.73001 23.74C3.73001 22.14 3.77001 20.52 3.89001 18.93C3.97001 17.83 4.10001 16.73 4.30001 15.64C4.49001 14.6 4.77001 13.58 5.03001 12.55C5.15001 12.07 5.29001 11.62 5.47001 11.16C5.59001 10.86 6.07001 10.73 6.36001 10.6C6.59001 10.5 6.78001 10.42 6.96001 10.24C7.14001 10.06 7.27001 9.83002 7.38001 9.60002C7.96001 8.37002 8.05001 6.91002 8.15001 5.57002C8.20001 4.89002 8.26001 4.20002 8.26001 3.51002C8.26001 2.97002 8.22001 2.44002 8.17001 1.91002C8.14001 1.53002 7.91001 0.810018 8.36001 0.630018C8.56001 0.550018 8.78001 0.520018 8.99001 0.500018C9.14001 0.480018 9.21001 0.450018 9.33001 0.600018C9.41001 0.700018 9.47001 0.840018 9.53001 0.960018C9.79001 1.42002 10.04 1.89002 10.29 2.36002C10.76 3.26002 11.21 4.19002 11.63 5.11002C11.75 5.38002 11.95 5.56002 12.26 5.54002C12.6 5.51002 12.71 5.21002 12.83 4.94002C13.28 3.98002 13.74 3.03002 14.23 2.10002C14.47 1.65002 14.71 1.20002 14.96 0.760018C15.04 0.620018 15.1 0.510018 15.26 0.500018C15.37 0.500018 15.5 0.530018 15.61 0.550018C15.82 0.590018 16.12 0.630018 16.27 0.800018C16.25 0.740018 16.22 0.680018 16.2 0.620018C16.26 1.98002 16.12 3.35002 16.16 4.71002C16.19 5.69002 16.29 6.66002 16.46 7.62002C16.59 8.36002 16.76 9.17002 17.13 9.83002C17.27 10.07 17.45 10.24 17.68 10.4C17.89 10.55 18.12 10.65 18.36 10.75C18.49 10.8 18.62 10.87 18.76 10.92C19 11.01 18.68 10.81 18.91 10.65C18.65 10.83 18.9 11.26 19.16 11.08C19.33 10.96 19.32 10.75 19.18 10.61C18.89 10.32 18.38 10.26 18.03 10.04C17.5 9.71002 17.34 9.14002 17.17 8.53002C16.63 6.53002 16.66 4.50002 16.7 2.45002C16.71 1.87002 16.73 1.28002 16.7 0.690018C16.69 0.450018 16.51 0.320018 16.29 0.230018C15.91 0.0800181 15.18 -0.179982 14.82 0.110018C14.63 0.260018 14.53 0.510018 14.42 0.710018C14.26 1.00002 14.1 1.29002 13.94 1.59002C13.63 2.16002 13.34 2.73002 13.05 3.31002C12.79 3.83002 12.53 4.35002 12.3 4.89002C12.26 4.98002 12.27 5.03002 12.18 5.03002C12.09 5.03002 12.1 4.97002 12.07 4.88002C11.96 4.61002 11.83 4.35002 11.71 4.09002C11.18 2.96002 10.6 1.84002 9.99001 0.750018C9.87001 0.530018 9.76001 0.250018 9.56001 0.100018C9.37001 -0.0499819 9.13001 -0.0199819 8.90001 0.0100181C8.48001 0.0600181 7.91001 0.140018 7.69001 0.560018C7.47001 0.990018 7.65001 1.63002 7.69001 2.08002C7.75001 2.71002 7.78001 3.35002 7.75001 3.99002C7.71001 4.76002 7.66001 5.54002 7.59001 6.31002C7.51001 7.15002 7.40001 8.01002 7.15001 8.82002C7.05001 9.14002 6.93001 9.46002 6.73001 9.73002C6.54001 10 6.32001 10.07 6.03001 10.21C5.65001 10.38 5.24001 10.53 5.04001 10.92C4.79001 11.41 4.67001 11.95 4.53001 12.48C4.22001 13.71 3.90001 14.92 3.70001 16.17C3.33001 18.53 3.30001 20.92 3.23001 23.3C3.18001 24.94 3.32001 26.63 3.71001 28.22C3.95001 29.2 4.27001 30.31 4.86001 31.14C5.08001 31.45 5.28001 31.54 5.65001 31.56C5.81001 31.56 5.97001 31.56 6.12001 31.56C6.86001 31.55 7.60001 31.51 8.34001 31.41C8.72001 31.36 9.10001 31.3 9.47001 31.17C9.89001 31.03 9.96001 30.78 10.03 30.37C10.19 29.44 10.32 28.5 10.45 27.56C10.6 26.5 10.63 25.42 10.87 24.37C11.01 23.8 11.19 23.12 11.6 22.68C11.85 22.41 12.17 22.29 12.5 22.48C12.73 22.61 12.88 22.81 13.01 23.03C13.6 24.08 13.68 25.36 13.8 26.53C13.86 27.12 13.94 27.7 14.03 28.28C14.12 28.88 14.21 29.48 14.3 30.08C14.32 30.24 14.35 30.4 14.38 30.56C14.46 30.99 14.68 31.13 15.09 31.24C15.84 31.45 16.65 31.51 17.43 31.55C17.93 31.57 18.47 31.63 18.96 31.56C19.29 31.52 19.48 31.24 19.64 30.97C19.9 30.55 20.08 30.08 20.25 29.62C20.64 28.58 20.86 27.49 20.99 26.39C21.18 24.82 21.13 23.27 21.09 21.7C21.02 19.09 20.84 16.51 20.24 13.97C20.11 13.41 19.94 12.86 19.8 12.3C19.67 11.77 19.52 11.24 19.25 10.76C19.09 10.48 18.66 10.73 18.82 11.01" fill="#3F5E3E"/>
<path d="M15 0.280029C15 0.280029 15.21 0.560029 15 1.37003C14.79 2.17003 14.15 5.23003 14.15 5.23003" fill="#F5F6F8"/>
<path d="M14.79 0.410035C14.79 0.410035 14.81 0.440035 14.82 0.460035C14.79 0.410035 14.81 0.420035 14.82 0.460035C14.83 0.500035 14.84 0.540035 14.85 0.580035C14.85 0.590035 14.85 0.630035 14.85 0.580035C14.85 0.600035 14.85 0.630035 14.85 0.650035C14.85 0.710035 14.85 0.760035 14.85 0.820035C14.85 0.970035 14.81 1.11003 14.78 1.26003C14.7 1.57003 14.63 1.88003 14.56 2.19003C14.38 2.99003 14.21 3.79004 14.04 4.59003C14 4.78004 13.96 4.98003 13.92 5.17003C13.89 5.30003 13.96 5.44003 14.09 5.48003C14.21 5.51004 14.37 5.44003 14.4 5.31003C14.67 4.02003 14.92 2.72003 15.25 1.45003C15.33 1.13003 15.38 0.810035 15.33 0.480035C15.31 0.380035 15.29 0.250035 15.22 0.170035C15.14 0.0600348 15 0.0100348 14.88 0.0800348C14.77 0.140035 14.71 0.310035 14.79 0.420035" fill="#3F5E3E"/>
<path d="M9.32002 0.280029C9.32002 0.280029 9.11002 0.560029 9.32002 1.37003C9.53002 2.17003 10.17 5.23003 10.17 5.23003" fill="#F5F6F8"/>
<path d="M9.1 0.160005C9.05 0.230005 9.02 0.330005 9 0.410005C8.95 0.660005 8.97 0.920005 9.01 1.17001C9.07 1.52001 9.18 1.87001 9.26 2.21001C9.44 3.03001 9.62 3.85001 9.79 4.67001C9.83 4.88001 9.88 5.08001 9.92 5.29001C9.95 5.42001 10.1 5.50001 10.23 5.46001C10.37 5.42001 10.43 5.29001 10.4 5.15001C10.14 3.88001 9.89 2.60001 9.56 1.35001C9.49 1.09001 9.44 0.840006 9.47 0.570005C9.47 0.630005 9.47 0.520005 9.48 0.500005C9.48 0.480005 9.51 0.430005 9.51 0.410005C9.48 0.460005 9.51 0.430005 9.51 0.410005C9.51 0.410005 9.51 0.400005 9.52 0.390005C9.6 0.280005 9.54 0.110005 9.43 0.0500055C9.3 -0.0199945 9.17 0.0300055 9.09 0.140005" fill="#3F5E3E"/>
<path d="M16.3 5.11997C15.22 5.11997 14.17 5.32997 13.09 5.34997C12.66 5.34997 12.24 5.30997 11.81 5.31997C11.37 5.31997 10.92 5.33997 10.47 5.28997C9.81999 5.20997 9.16999 5.08997 8.49999 5.08997C8.35999 5.08997 8.12999 5.08997 7.98999 5.08997" fill="#F5F6F8"/>
<path d="M16.3 4.86999C15.57 4.86999 14.86 4.96999 14.14 5.03999C13.43 5.10999 12.73 5.08999 12.02 5.06999C11.66 5.06999 11.31 5.06999 10.95 5.06999C10.6 5.05999 10.26 5.00999 9.92001 4.96999C9.28001 4.87999 8.65001 4.84999 8.00001 4.85999C7.68001 4.85999 7.68001 5.35999 8.00001 5.35999C8.66001 5.35999 9.29001 5.38999 9.94001 5.47999C10.27 5.52999 10.61 5.56999 10.95 5.57999C11.3 5.58999 11.66 5.57999 12.02 5.57999C12.73 5.59999 13.43 5.60999 14.14 5.54999C14.86 5.47999 15.58 5.38999 16.3 5.37999C16.62 5.37999 16.62 4.87999 16.3 4.87999" fill="#3F5E3E"/>
<path d="M9.84998 3.05005C11.31 4.23005 12.29 3.94005 12.29 3.94005C13.74 3.97005 14.66 2.99005 14.66 2.99005L15.06 0.800049C14.51 1.19005 13.41 1.81005 12.04 1.81005C10.67 1.81005 9.73998 1.23005 9.22998 0.840049L9.43998 1.86005L9.69998 2.92005L9.84998 3.05005Z" fill="#F5F6F8"/>
<path d="M9.67003 3.22994C10.29 3.72994 11.02 4.15994 11.83 4.21994C12 4.22994 12.16 4.21994 12.32 4.18994C12.32 4.18994 12.34 4.18994 12.35 4.18994C12.42 4.18994 12.49 4.18994 12.56 4.18994C12.79 4.16994 13.01 4.13994 13.23 4.07994C13.8 3.92994 14.35 3.62994 14.78 3.21994C14.86 3.13994 14.89 3.05994 14.91 2.93994C14.95 2.70994 14.99 2.48994 15.03 2.25994C15.11 1.79994 15.2 1.32994 15.29 0.86994C15.32 0.67994 15.12 0.44994 14.92 0.58994C13.57 1.53994 11.82 1.88994 10.27 1.18994C9.94003 1.03994 9.62003 0.84994 9.34003 0.62994C9.15003 0.48994 8.93003 0.71994 8.97003 0.90994C9.04003 1.26994 9.11003 1.62994 9.19003 1.98994C9.25003 2.23994 9.31003 2.48994 9.37003 2.74994C9.39003 2.82994 9.40003 2.90994 9.43003 2.98994C9.47003 3.09994 9.56003 3.15994 9.65003 3.23994C9.75003 3.32994 9.90003 3.33994 10 3.23994C10.09 3.14994 10.1 2.96994 10 2.88994L9.85003 2.75994C9.85003 2.75994 9.89003 2.82994 9.91003 2.86994C9.74003 2.17994 9.59003 1.48994 9.44003 0.78994C9.32003 0.87994 9.19003 0.97994 9.07003 1.06994C9.69003 1.53994 10.42 1.86994 11.19 1.99994C12.19 2.16994 13.19 2.00994 14.11 1.60994C14.48 1.44994 14.83 1.24994 15.16 1.01994C15.04 0.92994 14.92 0.82994 14.79 0.73994C14.66 1.46994 14.52 2.19994 14.39 2.92994C14.41 2.88994 14.43 2.85994 14.45 2.81994C14.32 2.95994 14.21 3.03994 14.07 3.12994C13.74 3.35994 13.37 3.52994 12.97 3.61994C12.86 3.64994 12.74 3.66994 12.63 3.67994C12.48 3.68994 12.33 3.67994 12.19 3.69994C12.16 3.69994 12.05 3.71994 12.15 3.70994C12.05 3.70994 11.96 3.71994 11.87 3.70994C11.71 3.70994 11.64 3.68994 11.47 3.64994C10.92 3.50994 10.43 3.21994 10 2.86994C9.89003 2.78994 9.75003 2.76994 9.65003 2.86994C9.56003 2.95994 9.54003 3.13994 9.65003 3.21994" fill="#3F5E3E"/>
<path d="M11.65 5.35004L10.48 5.28004C10.48 5.28004 10.17 5.25004 10.04 4.67004C9.91999 4.09004 9.67999 2.92004 9.67999 2.92004L9.81999 3.06004C10.33 3.51004 10.82 3.75004 11.47 3.87004C12.02 3.97004 12.59 3.96004 13.13 3.82004C13.74 3.66004 14.12 3.28004 14.64 2.99004L14.2 4.92004C14.2 4.92004 14.3 5.35004 13.51 5.35004C12.72 5.35004 11.64 5.35004 11.64 5.35004" fill="#F5F6F8"/>
<path d="M11.65 5.09998L11.08 5.06998L10.68 5.04998C10.62 5.04998 10.54 5.02998 10.48 5.03998C10.54 5.02998 10.56 5.05998 10.51 5.03998C10.46 5.01998 10.56 5.06998 10.51 5.03998C10.49 5.02998 10.47 5.01998 10.45 4.99998C10.51 5.03998 10.43 4.97998 10.42 4.96998C10.42 4.96998 10.39 4.92998 10.4 4.94998C10.42 4.96998 10.39 4.92998 10.38 4.91998C10.33 4.82998 10.3 4.74998 10.27 4.64998C10.19 4.30998 10.13 3.95998 10.05 3.60998C10 3.35998 9.95001 3.10998 9.90001 2.85998C9.76001 2.93998 9.62001 3.01998 9.48001 3.09998C9.95001 3.55998 10.5 3.90998 11.14 4.05998C11.96 4.25998 12.9 4.24998 13.67 3.86998C14.05 3.67998 14.38 3.40998 14.75 3.19998C14.63 3.10998 14.51 3.00998 14.38 2.91998C14.25 3.46998 14.13 4.02998 14 4.57998C13.98 4.66998 13.96 4.74998 13.94 4.83998C13.93 4.88998 13.94 4.92998 13.94 4.98998C13.93 4.86998 13.94 4.93998 13.94 4.95998C13.94 5.02998 13.95 4.89998 13.94 4.95998C13.94 4.96998 13.94 4.97998 13.94 4.98998C13.94 5.02998 13.96 4.92998 13.94 4.97998L13.93 4.99998C13.93 4.99998 13.93 4.99998 13.93 5.00998C13.95 4.97998 13.96 4.96998 13.93 4.98998C13.88 5.02998 13.93 4.99998 13.93 4.98998C13.91 4.99998 13.9 5.00998 13.88 5.01998C13.87 5.01998 13.85 5.02998 13.84 5.03998C13.88 5.01998 13.79 5.04998 13.78 5.05998C13.52 5.12998 13.23 5.08998 12.97 5.08998C12.52 5.08998 12.07 5.08998 11.63 5.08998C11.31 5.08998 11.31 5.58998 11.63 5.58998C12.23 5.58998 12.83 5.58998 13.43 5.58998C13.75 5.58998 14.14 5.55998 14.35 5.26998C14.44 5.14998 14.47 4.98998 14.44 4.83998V4.96998C14.59 4.32998 14.73 3.67998 14.88 3.03998C14.93 2.82998 14.71 2.64998 14.51 2.75998C14.21 2.92998 13.94 3.13998 13.64 3.30998C13.32 3.48998 12.98 3.59998 12.62 3.64998C11.91 3.72998 11.14 3.61998 10.52 3.24998C10.27 3.09998 10.06 2.92998 9.85001 2.72998C9.66001 2.54998 9.38001 2.72998 9.43001 2.96998C9.55001 3.55998 9.65001 4.16998 9.80001 4.75998C9.87001 5.05998 10.05 5.40998 10.38 5.49998C10.54 5.53998 10.73 5.52998 10.89 5.53998C11.14 5.54998 11.38 5.56998 11.63 5.57998C11.95 5.59998 11.95 5.09998 11.63 5.07998" fill="#3F5E3E"/>
<path d="M7.95 2.39002C8 3.24002 7.95 4.10002 7.92 4.96002C7.87 5.94002 7.75 6.95002 7.6 7.93002C7.44 9.03002 7.14 10.14 6.09 10.49C5.84 10.57 5.6 10.61 5.43 10.81C5.22 11.04 5.08 11.31 4.85 11.53C4.72 11.66 4.55 11.78 4.36 11.75C4.24 11.73 4.14 11.66 4.05 11.58C3.83 11.4 3.6 11.27 3.39 11.08C2.96 10.71 2.61 10.25 2.2 9.85002C1.68 9.34002 1.16 8.83002 0.65 8.30002C0.38 8.02002 0.28 7.83002 0.25 7.70002C0.25 7.70002 0.3 7.49002 0.47 7.28002L4.49 2.27002C4.95 2.06002 5.41 1.85002 5.88 1.64002C6.23 1.48002 6.59 1.32002 6.94 1.16002C7.28 1.01002 7.58 0.88002 7.93 0.77002C7.87 1.28002 7.92 1.88002 7.95 2.39002Z" fill="#F5F6F8"/>
<path d="M7.7 2.39001C7.77 3.74001 7.7 5.11001 7.55 6.44001C7.48 7.07001 7.41 7.71001 7.28 8.33001C7.19 8.79001 7.07 9.25001 6.8 9.64001C6.68 9.82001 6.52 9.98001 6.34 10.09C6.12 10.23 5.87 10.27 5.63 10.37C5.4 10.47 5.25 10.62 5.1 10.81C4.95 11 4.72 11.45 4.45 11.49C4.3 11.51 4.12 11.31 4.01 11.23C3.89 11.14 3.76 11.06 3.65 10.96C3.4 10.76 3.18 10.53 2.96 10.29C2.53 9.82001 2.08 9.38001 1.63 8.93001C1.41 8.71001 1.19 8.49001 0.97 8.27001C0.88 8.17001 0.78 8.08001 0.69 7.98001C0.61 7.89001 0.57 7.78001 0.5 7.69001C0.48 7.66001 0.45 7.75001 0.5 7.73001C0.5 7.73001 0.55 7.61001 0.54 7.63001C0.57 7.57001 0.61 7.51001 0.64 7.45001C0.66 7.43001 0.67 7.41001 0.69 7.39001C0.93 7.08001 1.18 6.78001 1.43 6.47001C2.24 5.46001 3.04 4.46001 3.85 3.45001C4.02 3.24001 4.19 3.03001 4.36 2.82001C4.45 2.71001 4.53 2.56001 4.64 2.47001C4.72 2.40001 4.82 2.38001 4.92 2.34001L5.96 1.87001C6.63 1.57001 7.3 1.24001 8.01 1.00001C7.9 0.920013 7.8 0.840013 7.69 0.760013C7.64 1.30001 7.68 1.84001 7.71 2.38001C7.73 2.70001 8.23 2.70001 8.21 2.38001C8.18 1.84001 8.14 1.30001 8.19 0.760013C8.2 0.600013 8.02 0.470013 7.87 0.520013C7.21 0.740013 6.58 1.05001 5.95 1.33001C5.64 1.47001 5.33 1.61001 5.01 1.75001C4.8 1.84001 4.48 1.93001 4.31 2.08001C4.07 2.30001 3.88 2.61001 3.68 2.86001C2.81 3.94001 1.94 5.03001 1.07 6.11001C0.82 6.42001 0.56 6.74001 0.31 7.05001C0.19 7.25001 0 7.48001 0 7.71001C0 7.90001 0.14 8.09001 0.25 8.23001C0.45 8.49001 0.69 8.71001 0.92 8.93001C1.42 9.43001 1.94 9.92001 2.42 10.45C2.62 10.67 2.82 10.9 3.04 11.11C3.29 11.35 3.57 11.54 3.85 11.74C4.08 11.91 4.3 12.06 4.59 11.98C4.88 11.9 5.1 11.65 5.28 11.42C5.45 11.2 5.58 10.94 5.85 10.83C6.12 10.72 6.39 10.67 6.64 10.51C7.68 9.83001 7.8 8.41001 7.95 7.29001C8.17 5.67001 8.3 4.02001 8.21 2.38001C8.19 2.06001 7.69 2.06001 7.71 2.38001" fill="#3F5E3E"/>
<path d="M16.42 2.39001C16.37 3.24001 16.41 4.10001 16.45 4.96001C16.5 5.94001 16.62 6.95001 16.77 7.93001C16.93 9.03001 17.23 10.14 18.28 10.49C18.53 10.57 18.77 10.61 18.94 10.81C19.15 11.04 19.29 11.31 19.52 11.53C19.65 11.66 19.82 11.78 20.01 11.75C20.13 11.73 20.23 11.66 20.32 11.58C20.54 11.4 20.77 11.27 20.98 11.08C21.41 10.71 21.76 10.25 22.17 9.85001C22.69 9.34001 23.21 8.83001 23.72 8.30001C23.99 8.02001 24.09 7.83001 24.12 7.70001C24.12 7.70001 24.07 7.49001 23.9 7.28001L19.87 2.26001C19.41 2.05001 18.95 1.84001 18.48 1.63001C18.13 1.47001 17.77 1.31001 17.42 1.15001C17.08 1.00001 16.78 0.87001 16.43 0.76001C16.49 1.27001 16.44 1.87001 16.41 2.38001" fill="#F5F6F8"/>
<path d="M16.17 2.39001C16.09 3.84001 16.18 5.32001 16.36 6.76001C16.49 7.84001 16.55 9.14001 17.24 10.04C17.58 10.47 17.99 10.64 18.49 10.82C19.05 11.02 19.17 11.82 19.79 11.98C20.09 12.06 20.3 11.9 20.53 11.74C20.79 11.54 21.06 11.36 21.3 11.14C21.8 10.68 22.24 10.15 22.72 9.67001C23.19 9.20001 23.72 8.75001 24.13 8.23001C24.24 8.09001 24.38 7.90001 24.38 7.71001C24.38 7.51001 24.22 7.29001 24.11 7.14001C23.93 6.91001 23.74 6.68001 23.56 6.45001C22.7 5.37001 21.83 4.29001 20.97 3.22001C20.68 2.86001 20.41 2.45001 20.09 2.12001C20.01 2.04001 19.92 2.01001 19.82 1.96001C19.42 1.78001 19.03 1.60001 18.63 1.42001C17.93 1.10001 17.24 0.770013 16.52 0.520013C16.38 0.470013 16.19 0.600013 16.2 0.760013C16.25 1.30001 16.21 1.84001 16.18 2.38001C16.16 2.70001 16.66 2.70001 16.68 2.38001C16.71 1.84001 16.75 1.30001 16.7 0.760013C16.6 0.840013 16.49 0.920013 16.38 1.00001C17 1.21001 17.59 1.49001 18.18 1.76001L19.07 2.16001C19.22 2.23001 19.37 2.29001 19.51 2.36001C19.57 2.39001 19.67 2.40001 19.71 2.44001C19.78 2.50001 19.84 2.60001 19.89 2.67001C20.02 2.83001 20.14 2.98001 20.27 3.14001C21.07 4.14001 21.87 5.14001 22.68 6.14001C22.97 6.51001 23.27 6.87001 23.56 7.24001C23.62 7.31001 23.68 7.38001 23.73 7.45001C23.77 7.51001 23.81 7.56001 23.84 7.63001C23.84 7.64001 23.87 7.73001 23.88 7.73001C23.94 7.76001 23.84 7.71001 23.88 7.67001C23.83 7.71001 23.79 7.85001 23.75 7.90001C23.65 8.03001 23.53 8.15001 23.41 8.27001C22.95 8.74001 22.47 9.20001 22 9.67001C21.59 10.08 21.22 10.56 20.77 10.93C20.64 11.04 20.5 11.13 20.36 11.23C20.25 11.31 20.07 11.5 19.92 11.49C19.67 11.46 19.43 11.03 19.3 10.85C19.15 10.65 19 10.48 18.77 10.38C18.54 10.28 18.28 10.24 18.06 10.11C17.07 9.52001 17.02 7.97001 16.89 6.96001C16.7 5.45001 16.59 3.90001 16.67 2.37001C16.69 2.05001 16.19 2.05001 16.17 2.37001" fill="#3F5E3E"/>
<path d="M9.05999 5.91006C9.05999 6.10006 8.89999 6.26006 8.70999 6.26006C8.51999 6.26006 8.35999 6.10006 8.35999 5.91006C8.35999 5.72006 8.51999 5.56006 8.70999 5.56006C8.89999 5.56006 9.05999 5.72006 9.05999 5.91006Z" fill="#3F5E3E"/>
<path d="M15.95 5.91006C15.95 6.10006 15.79 6.26006 15.6 6.26006C15.41 6.26006 15.25 6.10006 15.25 5.91006C15.25 5.72006 15.41 5.56006 15.6 5.56006C15.79 5.56006 15.95 5.72006 15.95 5.91006Z" fill="#3F5E3E"/>
</g>
<defs>
<clipPath id="clip0_2437_227">
<rect width="24.37" height="31.61" fill="white"/>
</clipPath>
</defs>
</svg>
