<svg width="49" height="51" viewBox="0 0 49 51" fill="none" xmlns="http://www.w3.org/2000/svg">
<g clip-path="url(#clip0_2341_62)">
<path d="M33.7923 18.6995C30.9988 18.6995 28.722 20.987 28.722 23.8011C28.722 24.7403 29.4787 25.5017 30.4121 25.5017C31.3455 25.5017 32.1022 24.7403 32.1022 23.8011C32.1022 22.862 32.8622 22.1006 33.7923 22.1006H37.1725C38.1026 22.1006 38.8626 22.8653 38.8626 23.8011C38.8626 24.737 39.6194 25.5017 40.5528 25.5017C41.4862 25.5017 42.2429 24.7403 42.2429 23.8011C42.2429 20.9904 39.9694 18.6995 37.1725 18.6995H33.7923Z" fill="white"/>
<path d="M37.1725 37.4022V34.0011C37.1725 33.0619 36.4158 32.3005 35.4824 32.3005C34.549 32.3005 33.7923 33.0619 33.7923 34.0011V39.1028C33.7923 40.0419 34.549 40.8033 35.4824 40.8033H40.5528C41.4862 40.8033 42.2429 40.0419 42.2429 39.1028C42.2429 38.1636 41.4862 37.4022 40.5528 37.4022H37.1725Z" fill="white"/>
<path d="M48.5033 27.6986C47.8433 27.0345 46.7732 27.0345 46.1131 27.6986L43.473 30.3551C41.7595 28.7686 39.5827 27.6852 37.1692 27.3363V25.4983C37.1692 24.5591 36.4125 23.7977 35.4791 23.7977C34.5457 23.7977 33.789 24.5591 33.789 25.4983V27.333C31.3755 27.6818 29.1987 28.7652 27.4852 30.3517L24.845 27.6952C24.185 27.0311 23.1149 27.0311 22.4549 27.6952C21.7948 28.3594 21.7948 29.436 22.4549 30.1002L25.3384 33.0049C24.275 34.7893 23.6483 36.8722 23.6483 39.1027C23.6483 42.4301 25.0184 45.4421 27.2118 47.6022H5.07034C4.14028 47.6022 3.38023 46.8374 3.38023 45.9016V10.1999C3.38023 9.26413 4.14028 8.49938 5.07034 8.49938H10.1407V10.1999C10.1407 11.1391 10.8974 11.9005 11.8308 11.9005H25.3484C26.2818 11.9005 27.0385 11.1391 27.0385 10.1999V8.49938H32.1088C33.0389 8.49938 33.799 9.26413 33.799 10.1999V15.3016C33.799 16.2408 34.5557 17.0022 35.4891 17.0022C36.4225 17.0022 37.1792 16.2408 37.1792 15.3016V10.1999C37.1792 7.38915 34.9057 5.09826 32.1088 5.09826H27.0385C27.0385 2.28747 24.765 -0.00341797 21.9682 -0.00341797H15.211C12.4175 -0.00341797 10.1407 2.28412 10.1407 5.09826H5.07034C2.27349 5.10161 0 7.38915 0 10.1999V45.9016C0 48.7124 2.27349 51.0033 5.07034 51.0033H35.4824C42.0029 51.0033 47.3099 45.6668 47.3099 39.1027C47.3099 36.8722 46.6865 34.7926 45.6198 33.0049L48.5033 30.1035C49.1633 29.4394 49.1633 28.3627 48.5033 27.6986ZM13.5176 5.10161C13.5176 4.1658 14.2776 3.40105 15.2077 3.40105H21.9648C22.8949 3.40105 23.6549 4.1658 23.6549 5.10161V8.50273H13.5176V5.10161ZM35.4824 47.6022C30.8254 47.6022 27.0352 43.7885 27.0352 39.1027C27.0352 34.417 30.8254 30.6033 35.4824 30.6033C40.1394 30.6033 43.9297 34.417 43.9297 39.1027C43.9297 43.7885 40.1394 47.6022 35.4824 47.6022Z" fill="white"/>
<path d="M27.0352 18.6993C27.0352 17.7602 26.2785 16.9988 25.3451 16.9988H8.44724C7.51384 16.9988 6.75713 17.7602 6.75713 18.6993C6.75713 19.6385 7.51384 20.3999 8.44724 20.3999H25.3417C26.2751 20.3999 27.0318 19.6385 27.0318 18.6993H27.0352Z" fill="white"/>
<path d="M16.8945 23.801H8.44724C7.51384 23.801 6.75713 24.5624 6.75713 25.5016C6.75713 26.4407 7.51384 27.2021 8.44724 27.2021H16.8945C17.8279 27.2021 18.5846 26.4407 18.5846 25.5016C18.5846 24.5624 17.8279 23.801 16.8945 23.801Z" fill="white"/>
<path d="M16.8945 30.6001H8.44724C7.51384 30.6001 6.75713 31.3615 6.75713 32.3007C6.75713 33.2398 7.51384 34.0012 8.44724 34.0012H16.8945C17.8279 34.0012 18.5846 33.2398 18.5846 32.3007C18.5846 31.3615 17.8279 30.6001 16.8945 30.6001Z" fill="white"/>
</g>
<defs>
<clipPath id="clip0_2341_62">
<rect width="49" height="51" fill="white"/>
</clipPath>
</defs>
</svg>
