<svg width="48" height="51" viewBox="0 0 48 51" fill="none" xmlns="http://www.w3.org/2000/svg">
<path fill-rule="evenodd" clip-rule="evenodd" d="M41.1409 0C37.374 0 34.2886 3.06628 34.2886 6.80166C34.2886 7.09396 34.3139 7.38033 34.3505 7.66328L29.5105 9.58242C28.2574 7.90234 26.2515 6.80166 23.9992 6.80166C20.2322 6.80166 17.1401 9.8679 17.1401 13.6033C17.1401 13.896 17.1669 14.1817 17.2037 14.4649L12.3671 16.3841C11.116 14.7038 9.11301 13.6033 6.85906 13.6033C3.09213 13.6033 -3.42869e-07 16.663 0 20.3983C-3.42869e-07 24.1338 3.09213 27.2 6.85906 27.2C10.626 27.2 13.7114 24.1338 13.7114 20.3983C13.7114 20.106 13.6844 19.8196 13.6478 19.5367L18.4861 17.6176C19.739 19.2981 21.7451 20.3983 23.9992 20.3983C27.7661 20.3983 30.8582 17.3387 30.8582 13.6033C30.8582 13.3082 30.8337 13.019 30.7963 12.7334L35.6296 10.8159C36.8805 12.4998 38.8856 13.6033 41.1409 13.6033C44.9079 13.6033 48 10.5371 48 6.80166C48 3.06628 44.9079 0 41.1409 0ZM41.1409 3.4C43.0549 3.4 44.5696 4.90375 44.5696 6.80166C44.5696 8.69957 43.0549 10.2017 41.1409 10.2017C39.227 10.2017 37.7106 8.69957 37.7106 6.80166C37.7106 4.90375 39.227 3.4 41.1409 3.4ZM23.9992 10.2017C25.9131 10.2017 27.4295 11.7054 27.4295 13.6033C27.4295 15.5012 25.9131 16.9967 23.9992 16.9967C22.0852 16.9967 20.5705 15.5012 20.5705 13.6033C20.5705 11.7054 22.0852 10.2017 23.9992 10.2017ZM6.85906 16.9967C8.77298 16.9967 10.2811 18.5004 10.2811 20.3983C10.2811 22.2962 8.77298 23.7983 6.85906 23.7983C4.94514 23.7983 3.42869 22.2962 3.42869 20.3983C3.42869 18.5004 4.94514 16.9967 6.85906 16.9967ZM39.4266 16.9967C36.607 16.9967 34.2886 19.3024 34.2886 22.0983V45.8983C34.2886 48.6943 36.607 51 39.4266 51H42.8553C45.6749 51 48 48.6943 48 45.8983V35.7017C48 35.2506 47.8193 34.818 47.4976 34.499C47.176 34.18 46.7397 34.0008 46.2848 34.0008C45.8299 34.0008 45.3937 34.18 45.072 34.499C44.7503 34.818 44.5696 35.2506 44.5696 35.7017V45.8983C44.5696 46.8695 43.8347 47.5983 42.8553 47.5983H39.4266C38.4472 47.5983 37.7106 46.8695 37.7106 45.8983V22.0983C37.7106 21.1271 38.4472 20.3983 39.4266 20.3983H42.8553C43.8347 20.3983 44.5696 21.1271 44.5696 22.0983V25.5C44.5696 25.9511 44.7503 26.3837 45.072 26.7027C45.3937 27.0216 45.8299 27.2008 46.2848 27.2008C46.7397 27.2008 47.176 27.0216 47.4976 26.7027C47.8193 26.3837 48 25.9511 48 25.5V22.0983C48 19.3024 45.6749 16.9967 42.8553 16.9967H39.4266ZM22.2848 23.7983C19.4653 23.7983 17.1401 26.104 17.1401 28.9V45.8983C17.1401 48.6943 19.4653 51 22.2848 51H25.7152C28.5347 51 30.8582 48.6943 30.8582 45.8983V28.9C30.8582 26.104 28.5347 23.7983 25.7152 23.7983H22.2848ZM22.2848 27.2H25.7152C26.6946 27.2 27.4295 27.9288 27.4295 28.9V45.8983C27.4295 46.8695 26.6946 47.5983 25.7152 47.5983H22.2848C21.3054 47.5983 20.5705 46.8695 20.5705 45.8983V28.9C20.5705 27.9288 21.3054 27.2 22.2848 27.2ZM5.14304 30.6C2.32347 30.6 0 32.9057 0 35.7017V45.8983C0 48.6943 2.32347 51 5.14304 51H8.5734C11.393 51 13.7114 48.6943 13.7114 45.8983V35.7017C13.7114 32.9057 11.393 30.6 8.5734 30.6H5.14304ZM5.14304 34.0017H8.5734C9.55279 34.0017 10.2811 34.7305 10.2811 35.7017V45.8983C10.2811 46.8695 9.55279 47.5983 8.5734 47.5983H5.14304C4.16365 47.5983 3.42869 46.8695 3.42869 45.8983V35.7017C3.42869 34.7305 4.16365 34.0017 5.14304 34.0017Z" fill="white"/>
</svg>
