<svg width="192" height="89" viewBox="0 0 192 89" fill="none" xmlns="http://www.w3.org/2000/svg">
<g clip-path="url(#clip0_2287_9)">
<path d="M97.0151 17.4393V44.3432C97.0151 44.8367 96.6216 45.2426 96.1331 45.2426H90.2537C89.7698 45.2426 89.3718 44.8413 89.3718 44.3432V32.8261C89.3718 31.9313 88.2276 31.5854 87.7527 32.3372L82.0767 41.299H81.3034L75.6727 32.3833C75.1978 31.6315 74.0536 31.9728 74.0536 32.8676V44.334C74.0536 44.8275 73.6601 45.2334 73.1717 45.2334H67.2515C66.7676 45.2334 66.3696 44.8321 66.3696 44.334V17.4393C66.3696 16.9458 66.7631 16.5399 67.2515 16.5399H73.5696C73.8727 16.5399 74.1531 16.6967 74.3114 16.955L80.9506 27.6096C81.2943 28.163 82.0903 28.163 82.434 27.6096L89.1095 16.9504C89.2723 16.6921 89.5527 16.5353 89.8512 16.5353H96.1286C96.6125 16.5353 97.0105 16.9366 97.0105 17.4347L97.0151 17.4393Z" fill="#7A5C51"/>
<path d="M141.893 16.5399C146.041 16.5399 149.51 17.9144 152.3 20.6588C155.09 23.4077 156.483 26.8162 156.483 30.889C156.483 34.9617 155.09 38.3702 152.3 41.1192C149.51 43.8681 146.041 45.238 141.893 45.238H130.546C130.062 45.238 129.664 44.8367 129.664 44.3386V17.4393C129.664 16.9458 130.058 16.5399 130.546 16.5399H141.893ZM141.893 38.1442C143.983 38.1442 145.683 37.48 146.999 36.1563C148.316 34.8325 148.971 33.0752 148.971 30.889C148.971 28.7027 148.311 26.9454 146.999 25.6216C145.683 24.2979 143.983 23.6337 141.893 23.6337H138.438C137.954 23.6337 137.556 24.035 137.556 24.5331V37.254C137.556 37.7475 137.95 38.1534 138.438 38.1534H141.893V38.1442Z" fill="#7A5C51"/>
<path d="M78.5042 50.2562C81.5525 50.2562 84.0852 51.1971 86.143 53.0836C88.2008 54.97 89.2319 57.3869 89.2319 60.2973C89.2319 63.2077 88.2008 65.6246 86.143 67.511C84.0852 69.3975 81.5525 70.3384 78.5042 70.3384H75.3926C74.9087 70.3384 74.5107 70.7397 74.5107 71.2378V78.0503C74.5107 78.5438 74.1172 78.9497 73.6288 78.9497H67.7087C67.2247 78.9497 66.8267 78.5484 66.8267 78.0503V51.151C66.8267 50.6575 67.2202 50.2516 67.7087 50.2516H78.4997L78.5042 50.2562ZM78.5042 63.3737C80.2228 63.3737 81.5525 62.1007 81.5525 60.2973C81.5525 58.4939 80.2228 57.2624 78.5042 57.2624H75.3926C74.9087 57.2624 74.5107 57.6636 74.5107 58.1618V62.4743C74.5107 62.9678 74.9042 63.3737 75.3926 63.3737H78.5042Z" fill="#7A5C51"/>
<path d="M107.576 78.3224L106.676 75.4351C106.558 75.0615 106.219 74.8078 105.839 74.8078H97.1286C96.7442 74.8078 96.405 75.0615 96.2919 75.4351L95.3964 78.3224C95.2788 78.696 94.9396 78.9497 94.5597 78.9497H88.124C87.518 78.9497 87.0928 78.3362 87.2918 77.7551L96.5859 50.8558C96.708 50.4961 97.0427 50.2562 97.418 50.2562H105.527C105.903 50.2562 106.233 50.4961 106.359 50.8558L115.653 77.7551C115.857 78.3408 115.432 78.9497 114.821 78.9497H108.426C108.042 78.9497 107.703 78.696 107.589 78.3224H107.576ZM99.6568 68.4935H103.307C103.904 68.4935 104.324 67.9031 104.143 67.3219L102.307 61.4412C102.045 60.6063 100.887 60.6063 100.629 61.4412L98.8201 67.3219C98.6437 67.8985 99.0643 68.4888 99.6613 68.4888L99.6568 68.4935Z" fill="#7A5C51"/>
<path d="M136.692 51.151V56.4459C136.692 56.9395 136.299 57.3454 135.81 57.3454H130.148C129.664 57.3454 129.266 57.7466 129.266 58.2448V78.0548C129.266 78.5484 128.873 78.9542 128.384 78.9542H122.464C121.98 78.9542 121.582 78.553 121.582 78.0548V58.2448C121.582 57.7512 121.189 57.3454 120.7 57.3454H115.038C114.554 57.3454 114.156 56.9441 114.156 56.4459V51.151C114.156 50.6574 114.549 50.2516 115.038 50.2516H135.806C136.29 50.2516 136.688 50.6528 136.688 51.151H136.692Z" fill="#7A5C51"/>
<path d="M141.238 75.3013C138.275 72.4324 136.819 68.8671 136.819 64.6006C136.819 60.3342 138.28 56.7735 141.238 53.9415C144.2 51.0726 147.976 49.6382 152.481 49.6382C155.186 49.6382 157.714 50.2516 160.034 51.4831C162.019 52.5393 163.629 53.8954 164.887 55.5789C165.217 56.0217 165.086 56.6628 164.606 56.9257L159.523 59.7161C159.147 59.9237 158.682 59.8176 158.419 59.4763C157.157 57.8297 154.973 56.815 152.481 56.815C149.989 56.815 148.148 57.553 146.647 58.9874C145.186 60.4218 144.458 62.2668 144.458 64.6052C144.458 66.9437 145.186 68.8255 146.647 70.2646C148.148 71.699 150.08 72.3955 152.481 72.3955C154.883 72.3955 157.153 71.4131 158.419 69.7157C158.682 69.3606 159.156 69.2545 159.536 69.4667L164.62 72.2894C165.095 72.5523 165.226 73.1842 164.905 73.6224C162.182 77.3353 157.592 79.5723 152.481 79.5723C147.976 79.5723 144.2 78.1379 141.238 75.3105V75.3013Z" fill="#7A5C51"/>
<path d="M185.244 50.2563H191.123C191.607 50.2563 192.005 50.6575 192.005 51.1557V78.0549C192.005 78.5485 191.612 78.9543 191.123 78.9543H185.244C184.76 78.9543 184.362 78.5531 184.362 78.0549V68.821C184.362 68.3275 183.968 67.9216 183.48 67.9216H176.786C176.302 67.9216 175.904 68.3229 175.904 68.821V78.0549C175.904 78.5485 175.511 78.9543 175.023 78.9543H169.102C168.619 78.9543 168.221 78.5531 168.221 78.0549V51.1557C168.221 50.6622 168.614 50.2563 169.102 50.2563H175.023C175.506 50.2563 175.904 50.6575 175.904 51.1557V59.9791C175.904 60.4726 176.298 60.8785 176.786 60.8785H183.48C183.964 60.8785 184.362 60.4772 184.362 59.9791V51.1557C184.362 50.6622 184.755 50.2563 185.244 50.2563Z" fill="#7A5C51"/>
<path d="M102.185 22.7581C102.235 20.8579 102.284 18.9576 102.329 17.0619L101.886 17.5093H102.067C101.922 17.3571 101.773 17.2049 101.628 17.0527C101.271 21.9371 100.751 26.9738 101.95 31.7845C103.044 36.1663 105.731 40.0222 109.914 41.7795C113.731 43.38 117.96 42.5728 121.085 39.87C123.889 37.4393 125.246 33.8232 125.861 30.2071C126.607 25.7977 126.44 21.3006 126.58 16.8451C126.431 16.9927 126.286 17.1449 126.137 17.2925C126.517 17.2602 126.897 17.2279 127.276 17.1956C127.132 17.0434 126.982 16.8958 126.838 16.7436C126.639 21.6558 126.838 26.6371 125.883 31.4847C125.458 33.6571 124.861 35.8941 123.717 37.799C122.754 39.4041 121.424 40.774 119.859 41.7703C116.752 43.749 112.768 44.2194 109.38 42.6974C105.848 41.1107 103.311 37.6514 102.225 33.9385C100.638 28.5005 100.882 22.7166 101.366 17.1311C101.384 16.9327 101.217 16.7482 101.041 16.6929L100.855 16.6375C100.575 16.5545 100.303 16.7851 100.299 17.0665C100.249 18.9852 100.199 20.9086 100.15 22.8273C100.136 23.4085 101.018 23.4131 101.031 22.8319C101.081 20.9132 101.131 18.9898 101.181 17.0711L100.624 17.5001L100.81 17.5554C100.701 17.4078 100.593 17.2648 100.484 17.1172C99.729 25.83 99.2948 38.0066 107.987 42.9833C111.311 44.8882 115.355 44.9343 118.81 43.3523C122.546 41.6411 124.907 38.3202 126.073 34.4043C127.774 28.685 127.48 22.6474 127.715 16.7436C127.724 16.5176 127.512 16.2686 127.276 16.2916L126.137 16.3885C125.892 16.4115 125.703 16.573 125.693 16.8359C125.576 20.5165 125.671 24.2064 125.291 27.8732C124.925 31.3648 124.102 35.0455 121.845 37.8036C119.375 40.8247 115.49 42.3975 111.691 41.4336C107.399 40.3451 104.365 36.729 103.076 32.5409C101.538 27.5458 102.13 22.1862 102.51 17.0619C102.528 16.822 102.298 16.6053 102.072 16.6099H101.891C101.651 16.6191 101.452 16.8128 101.448 17.0619C101.398 18.9622 101.348 20.8625 101.303 22.7581C101.289 23.3393 102.171 23.3439 102.185 22.7628V22.7581Z" fill="#7A5C51"/>
<path d="M101.289 16.6833C101.271 17.6335 101.276 18.5882 101.258 19.5384C101.226 21.2034 101.181 22.8731 101.199 24.5428C101.199 24.7088 101.421 24.7088 101.425 24.5428C101.498 22.8777 101.498 21.208 101.521 19.5384C101.534 18.5974 101.561 17.6473 101.575 16.7018C101.48 16.6972 101.385 16.6879 101.289 16.6833Z" fill="#7A5C51"/>
<path d="M101.737 17.8594C101.755 17.4766 101.768 17.0984 101.786 16.7156C101.601 16.7017 101.415 16.6925 101.23 16.6787C101.23 17.246 101.221 17.8087 101.216 18.376C101.203 17.8087 101.189 17.2414 101.18 16.6787C101.131 16.6787 101.081 16.6741 101.027 16.6694C100.981 16.6694 100.941 16.6602 100.895 16.6602C100.932 19.7136 100.977 22.767 101.04 25.8204C101.04 25.9126 101.09 25.9633 101.153 25.9818C101.153 26.8581 101.153 27.7299 101.162 28.6062C101.162 28.7584 101.37 28.763 101.375 28.6062C101.406 27.5085 101.425 26.4061 101.438 25.3084C101.863 22.85 101.963 20.3455 101.737 17.864V17.8594Z" fill="#7A5C51"/>
<path d="M101.144 23.9063C101.026 26.7475 101.248 29.6164 101.768 32.3976C101.804 32.5913 102.098 32.5544 102.08 32.3515C101.899 30.2252 101.718 28.1035 101.551 25.9772C101.447 25.9772 101.343 25.9772 101.244 25.9772C101.415 27.9282 101.596 29.8839 101.777 31.8349C101.89 31.8349 101.999 31.8349 102.112 31.8349C101.958 30.2852 101.809 28.7354 101.655 27.1857C101.632 26.9366 101.338 26.932 101.311 27.1857C101.099 29.1597 101.357 31.1477 102.184 32.9096C102.266 33.0802 102.469 32.928 102.41 32.762C101.746 30.9816 101.452 29.1136 101.655 27.1857C101.542 27.1857 101.424 27.1857 101.311 27.1857C101.47 28.7354 101.623 30.2852 101.782 31.8349C101.804 32.0701 102.139 32.0794 102.116 31.8349C101.931 29.8839 101.75 27.9282 101.56 25.9772C101.537 25.7558 101.23 25.7512 101.253 25.9772C101.438 28.0989 101.605 30.2252 101.773 32.3515C101.877 32.3377 101.981 32.3192 102.085 32.3054C101.583 29.5287 101.375 26.7429 101.433 23.9109C101.433 23.7079 101.162 23.7033 101.153 23.9109L101.144 23.9063Z" fill="#7A5C51"/>
<path d="M100.837 23.9155C100.425 27.6007 101.068 31.738 102.456 35.0912C102.51 35.225 102.714 35.1281 102.669 34.9897C102.103 33.2555 101.61 31.4982 101.33 29.6717C101.036 27.7483 101.022 25.8573 101.05 23.9155C101.05 23.754 100.851 23.7633 100.837 23.9155Z" fill="#7A5C51"/>
<path d="M101.474 30.1698C101.809 33.2002 102.727 36.1613 104.287 38.6704C104.369 38.8042 104.559 38.6843 104.482 38.5413C103.066 35.9491 102.089 33.1587 101.709 30.1329C101.691 29.9854 101.461 30.0176 101.474 30.1652V30.1698Z" fill="#7A5C51"/>
<path d="M101.914 32.1993C102.764 34.1042 103.655 35.986 104.532 37.8725C104.605 37.8263 104.677 37.7756 104.749 37.7295C103.881 36.0921 103.004 34.4547 102.131 32.8219C102.04 32.6559 101.828 32.8035 101.905 32.9741C102.646 34.7176 103.392 36.4565 104.134 38.1999C104.211 38.1492 104.292 38.0985 104.369 38.0431C103.845 37.1114 103.325 36.1751 102.8 35.2434C102.728 35.308 102.655 35.368 102.583 35.4325C103.325 36.4703 104.066 37.5127 104.808 38.5505C104.871 38.4767 104.939 38.4029 105.003 38.3291C104.496 37.7064 103.985 37.0884 103.478 36.4657C103.374 36.3366 103.171 36.5118 103.261 36.6548C104.143 38.0431 105.03 39.4361 105.912 40.8244C105.984 40.7598 106.056 40.6998 106.129 40.6353C105.215 39.3945 104.297 38.1538 103.392 36.9039C103.325 36.9823 103.257 37.0607 103.189 37.1345C104.261 38.366 105.337 39.5883 106.414 40.8151C106.536 40.9535 106.766 40.7644 106.658 40.603C105.948 39.5514 105.238 38.5044 104.528 37.4574C104.442 37.5312 104.36 37.605 104.274 37.6787C105.333 38.9887 106.391 40.294 107.449 41.6039C107.594 41.7837 107.811 41.5208 107.68 41.341C106.911 40.2847 106.142 39.2239 105.373 38.1677C105.296 38.2553 105.22 38.3475 105.138 38.4352C106.337 39.7958 107.535 41.1565 108.734 42.5125C108.815 42.4202 108.892 42.3326 108.973 42.2404C108.101 41.2672 107.228 40.2986 106.355 39.3254C106.273 39.4176 106.197 39.5052 106.115 39.5975C107.196 40.6952 108.277 41.793 109.362 42.8907C109.444 42.7985 109.521 42.7108 109.602 42.6186C108.883 41.9175 108.168 41.2164 107.449 40.5153C107.395 40.6214 107.341 40.7275 107.286 40.8336C108.747 41.4609 110.213 42.0835 111.682 42.6832C111.85 42.7523 111.913 42.4618 111.755 42.388C110.303 41.7284 108.842 41.0919 107.377 40.4646C107.219 40.3954 107.087 40.6629 107.214 40.7829C107.933 41.4839 108.648 42.185 109.367 42.8861C109.53 43.0475 109.769 42.78 109.607 42.614C108.526 41.5162 107.445 40.4185 106.359 39.3207C106.197 39.1593 105.966 39.4176 106.12 39.5929C106.992 40.5661 107.865 41.5347 108.738 42.5079C108.892 42.6785 109.132 42.411 108.978 42.2358C107.779 40.8751 106.581 39.5191 105.378 38.163C105.224 37.9878 105.012 38.2461 105.143 38.4306C105.912 39.4868 106.68 40.543 107.449 41.5993C107.526 41.5116 107.603 41.424 107.68 41.3363C106.622 40.0311 105.563 38.7211 104.501 37.4158C104.378 37.2682 104.134 37.4712 104.247 37.6372C104.957 38.6842 105.672 39.7312 106.386 40.7783C106.468 40.7091 106.549 40.6353 106.631 40.5661C105.55 39.3438 104.473 38.1169 103.388 36.9039C103.252 36.7517 103.067 36.9777 103.184 37.1345C104.107 38.3706 105.016 39.6159 105.93 40.8567C106.029 40.9904 106.237 40.8105 106.147 40.6676C105.265 39.2792 104.378 37.8863 103.496 36.498C103.424 36.5626 103.352 36.6225 103.279 36.6871C103.786 37.3098 104.297 37.9278 104.804 38.5505C104.926 38.6981 105.107 38.4813 104.998 38.3291C104.256 37.2913 103.515 36.2489 102.773 35.2111C102.673 35.0728 102.474 35.2527 102.556 35.4002C103.08 36.3319 103.605 37.2636 104.13 38.1953C104.225 38.366 104.442 38.2184 104.365 38.0385C103.619 36.2997 102.872 34.5562 102.126 32.8173C102.049 32.8681 101.972 32.9188 101.9 32.9695C102.777 34.6023 103.646 36.2397 104.528 37.8725C104.614 38.0293 104.822 37.8909 104.745 37.7295C103.854 35.8523 102.976 33.9612 102.063 32.0978C102.009 31.9825 101.859 32.084 101.909 32.1993H101.914Z" fill="#7A5C51"/>
<path d="M126.1 17.5044C126.118 20.899 126.177 24.2937 126.213 27.6884C126.213 27.8591 126.444 27.8591 126.448 27.6884C126.48 24.7596 126.507 21.8261 126.539 18.8973C126.539 18.7082 126.281 18.7036 126.276 18.8973C126.177 22.0936 126.077 25.2854 125.982 28.4818C125.978 28.6616 126.227 28.7032 126.258 28.5233C126.914 25.1516 127.172 21.72 127.045 18.27C127.036 18.0624 126.774 18.0624 126.76 18.27C126.516 22.0567 126.281 25.8435 126.059 29.6348C126.159 29.6348 126.254 29.6348 126.353 29.6348C126.38 27.444 126.412 25.2577 126.444 23.0669C126.353 23.0669 126.258 23.0669 126.168 23.0669C126.394 25.3823 126.258 27.7161 125.761 29.9808C125.729 30.1238 125.924 30.1837 125.955 30.0407C126.507 27.753 126.67 25.4284 126.444 23.0715C126.426 22.8777 126.168 22.8639 126.168 23.0715C126.136 25.2623 126.105 27.4486 126.064 29.6395C126.064 29.8516 126.344 29.8516 126.358 29.6395C126.602 25.8527 126.828 22.0614 127.054 18.2746C126.959 18.2746 126.864 18.2746 126.769 18.2746C126.914 21.6924 126.647 25.1055 126.001 28.4449C126.091 28.4587 126.186 28.4725 126.276 28.4864C126.371 25.29 126.457 22.0983 126.548 18.9019H126.286C126.263 21.8307 126.245 24.7596 126.222 27.693C126.299 27.693 126.376 27.693 126.457 27.693C126.39 24.2984 126.335 20.9037 126.245 17.509C126.245 17.4075 126.105 17.4075 126.105 17.509L126.1 17.5044Z" fill="#7A5C51"/>
<path d="M123.346 38.2137C125.263 35.4048 126.172 31.6919 126.236 28.1911C126.141 28.1911 126.046 28.1911 125.951 28.1911C126.141 31.0415 125.462 33.8089 124.087 36.1981C124.006 36.3365 124.201 36.4564 124.282 36.3273C125.77 33.9612 126.421 31.083 126.236 28.1957C126.222 27.9928 125.955 27.9835 125.951 28.1957C125.878 31.821 124.825 35.0082 123.201 38.0938C123.147 38.1953 123.282 38.3152 123.346 38.2184V38.2137Z" fill="#7A5C51"/>
<path d="M122.193 38.9056C123.943 37.5773 125.096 35.4787 125.508 33.1586C125.531 33.0341 125.368 32.9834 125.341 33.1079C124.884 35.4002 123.722 37.319 122.098 38.7627C122.026 38.8272 122.121 38.961 122.197 38.9056H122.193Z" fill="#7A5C51"/>
<path d="M125.761 29.704C125.874 33.5461 124.445 37.2083 121.962 39.8143C121.867 39.9157 122.007 40.0726 122.107 39.9757C124.658 37.3697 126.137 33.9289 126.304 30.0407C126.308 29.8885 126.105 29.8885 126.096 30.0407C125.811 33.9796 123.993 37.4943 121.261 39.925C121.306 39.9665 121.356 40.008 121.401 40.0449C122.568 38.0939 123.735 36.1382 124.866 34.1595C124.924 34.0534 124.78 33.9612 124.716 34.0627C123.536 36.0045 122.392 37.9739 121.248 39.9434C121.198 40.0264 121.297 40.1371 121.37 40.0818C124.278 37.7987 126.046 34.0027 126.304 30.0407H126.096C125.969 33.7121 124.431 37.402 121.967 39.8143C122.016 39.8696 122.062 39.9204 122.111 39.9757C124.735 37.4435 126.132 33.583 125.983 29.7086C125.978 29.5518 125.766 29.5518 125.77 29.7086L125.761 29.704Z" fill="#7A5C51"/>
<path d="M125.024 32.5821C124.278 33.9796 123.6 35.4325 122.926 36.8762C122.89 36.9546 122.994 37.0238 123.034 36.9454C123.749 35.5294 124.472 34.1042 125.115 32.6374C125.146 32.5683 125.06 32.5129 125.024 32.5775V32.5821Z" fill="#7A5C51"/>
<path d="M122.044 38.6888C124.721 36.0044 126.123 31.9871 125.839 27.9651C125.834 27.8728 125.707 27.8682 125.712 27.9651C125.78 30.1467 125.477 32.3145 124.825 34.367C124.798 34.4547 124.92 34.4916 124.952 34.4039C125.427 32.9695 125.739 31.4843 125.834 29.953C125.861 29.5287 125.87 29.0997 125.866 28.6754C125.861 28.2557 125.725 28.0204 125.735 28.5693C125.748 29.3719 125.685 30.1698 125.567 30.9585C125.133 33.8781 123.867 36.5579 121.981 38.6104C121.936 38.6565 122.003 38.7303 122.049 38.6842L122.044 38.6888Z" fill="#7A5C51"/>
<path d="M126.902 18.7266C126.925 18.0163 126.938 17.2922 126.938 16.5634C126.703 16.5726 126.467 16.5865 126.231 16.5957C126.285 17.1907 126.34 17.7903 126.394 18.3853C126.399 18.436 126.421 18.4729 126.449 18.5006C126.48 18.9526 126.517 19.4046 126.548 19.852C126.553 19.935 126.603 19.9904 126.657 20.0088C126.666 20.1103 126.671 20.2118 126.675 20.3179C126.689 20.5254 126.97 20.53 126.966 20.3179C126.947 19.7967 126.92 19.2755 126.893 18.7543C126.893 18.7451 126.898 18.7358 126.898 18.7266H126.902Z" fill="#7A5C51"/>
<path d="M126.702 16.5726C126.738 17.1077 126.793 17.6381 126.879 18.1547C126.897 18.2654 127.051 18.2377 127.051 18.1316C127.06 17.6104 127.033 17.0846 126.992 16.5588C126.897 16.5588 126.802 16.568 126.702 16.5726Z" fill="#7A5C51"/>
<path d="M106.744 40.4184C107.825 41.3224 109.037 42.1803 110.222 42.8906C110.344 42.9644 110.435 42.7707 110.326 42.6831C109.241 41.7883 108.029 40.9304 106.839 40.2247C106.726 40.1555 106.64 40.3354 106.74 40.4184H106.744Z" fill="#7A5C51"/>
<path d="M107.218 40.0638C107.987 41.7427 109.48 42.9696 111.162 43.1541C111.289 43.1679 111.32 42.9327 111.194 42.9004C109.584 42.5176 108.254 41.5536 107.404 39.9439C107.331 39.8101 107.155 39.93 107.218 40.0684V40.0638Z" fill="#7A5C51"/>
<path d="M106.391 40.3401C106.965 41.5255 108.214 42.3557 109.308 42.7985C110.543 43.2966 111.877 43.3519 113.125 42.8907C113.256 42.8446 113.202 42.6232 113.071 42.6601C111.886 42.9645 110.647 42.9322 109.484 42.5125C108.25 42.0605 107.436 41.2072 106.509 40.2386C106.445 40.174 106.355 40.2571 106.395 40.3401H106.391Z" fill="#7A5C51"/>
<path d="M107.775 40.5569C109.747 43.435 113.772 44.0807 116.603 42.7108C116.716 42.6555 116.635 42.4341 116.517 42.4848C115.056 43.1213 113.46 43.2874 111.922 42.9415C110.312 42.5771 109.055 41.6823 107.802 40.5338C107.788 40.52 107.757 40.5384 107.77 40.5615L107.775 40.5569Z" fill="#7A5C51"/>
<path d="M108.779 41.9683C111.063 43.3981 113.84 43.6748 116.327 42.7939C116.467 42.7431 116.408 42.5033 116.268 42.5448C113.758 43.3197 111.212 43.0475 108.851 41.8299C108.77 41.7884 108.702 41.9175 108.779 41.9683Z" fill="#7A5C51"/>
<path d="M112.632 42.9691C114.712 44.0207 117.227 43.5318 118.977 41.9406C119.067 41.8575 118.945 41.673 118.85 41.7561C117.041 43.292 114.816 43.5964 112.69 42.8123C112.609 42.7846 112.555 42.9276 112.632 42.9691Z" fill="#7A5C51"/>
<path d="M115.464 43.2597C118.299 43.3935 121.099 41.9637 122.881 39.4776C122.976 39.3485 122.813 39.1594 122.713 39.2885C120.864 41.6685 118.268 43.0153 115.464 43.0522C115.346 43.0522 115.346 43.2551 115.464 43.2597Z" fill="#7A5C51"/>
<path d="M117.87 42.7016C120.09 41.816 121.958 39.9942 123.152 37.7203C123.225 37.5819 123.039 37.4666 122.967 37.6003C121.691 39.8189 119.928 41.4332 117.802 42.5171C117.711 42.5632 117.775 42.7385 117.87 42.7016Z" fill="#7A5C51"/>
<path d="M116.449 42.4249C118.801 41.9175 120.976 40.5061 122.6 38.532C122.686 38.426 122.55 38.2691 122.455 38.3706C120.75 40.2893 118.729 41.567 116.418 42.2957C116.345 42.3188 116.372 42.4433 116.449 42.4249Z" fill="#7A5C51"/>
<path d="M117.019 42.0239C119.177 41.3367 121.176 40.036 122.745 38.228C122.849 38.108 122.691 37.9282 122.578 38.0435C120.941 39.75 119.082 41.0138 116.965 41.8025C116.843 41.8487 116.893 42.0654 117.019 42.0239Z" fill="#7A5C51"/>
<path d="M122.636 38.2507C121.239 40.2202 119.452 41.6454 117.358 42.5171C117.214 42.5771 117.268 42.8123 117.422 42.78C120.208 42.162 122.609 40.068 123.717 37.0976C123.767 36.9638 123.595 36.8439 123.541 36.9823C122.374 39.8051 120.081 41.9221 117.358 42.5171C117.381 42.6048 117.399 42.6924 117.422 42.78C119.561 41.9682 121.424 40.4047 122.776 38.3706C122.835 38.283 122.7 38.1631 122.636 38.2507Z" fill="#7A5C51"/>
<path d="M124.576 34.2748C123.559 36.7563 122.202 38.9287 120.529 40.9028C120.438 41.0089 120.556 41.1841 120.669 41.1057C123.211 39.3623 125.106 36.7056 126.006 33.4954L125.752 33.4169C125.463 35.1789 124.631 36.7148 123.373 37.8079C123.242 37.9232 123.373 38.1815 123.505 38.0662C125.354 36.4703 126.376 33.952 126.146 31.3275C126.06 31.3275 125.974 31.3275 125.888 31.3275C126.033 32.9695 125.639 34.5516 124.775 35.8799C124.703 35.9906 124.87 36.1382 124.947 36.0275C125.888 34.6715 126.304 33.0387 126.146 31.3275C126.128 31.1431 125.87 31.1384 125.888 31.3275C126.11 33.8228 125.173 36.3227 123.373 37.8125C123.419 37.9002 123.464 37.9832 123.505 38.0708C124.83 36.9408 125.703 35.3449 126.001 33.5C126.033 33.3155 125.802 33.2371 125.748 33.4216C124.888 36.5303 123.039 39.2285 120.547 40.8843C120.592 40.9535 120.642 41.0181 120.687 41.0873C122.401 39.187 123.762 36.8578 124.703 34.3625C124.739 34.261 124.613 34.1688 124.567 34.2748H124.576Z" fill="#7A5C51"/>
<path d="M107.399 40.3908C108.543 40.9581 109.71 41.4655 110.877 41.9682C110.949 42.0005 111.003 41.8575 110.931 41.8253C109.778 41.281 108.624 40.7414 107.449 40.2617C107.381 40.234 107.331 40.3585 107.399 40.3954V40.3908Z" fill="#7A5C51"/>
<path d="M106.843 40.0726C108.309 40.8013 109.801 41.4747 111.294 42.1251C111.384 42.162 111.447 41.9913 111.357 41.9498C109.887 41.2349 108.404 40.5338 106.907 39.8973C106.816 39.8604 106.753 40.0264 106.843 40.0726Z" fill="#7A5C51"/>
<path d="M108.508 41.7192C110.032 42.0882 111.551 42.471 113.08 42.7985C113.184 42.8215 113.234 42.6416 113.125 42.614C111.606 42.2173 110.077 41.8806 108.553 41.5301C108.444 41.507 108.399 41.6915 108.508 41.7192Z" fill="#7A5C51"/>
<path d="M110.199 42.1297C111.352 42.2911 112.505 42.4618 113.663 42.5955C113.745 42.6047 113.74 42.4664 113.663 42.4571C112.51 42.2773 111.357 42.1389 110.199 41.9867C110.118 41.9775 110.118 42.1204 110.199 42.1297Z" fill="#7A5C51"/>
<path d="M110.316 42.1389C111.985 42.4018 113.65 42.7062 115.328 42.9045C115.404 42.9138 115.423 42.7662 115.346 42.7523C113.686 42.4249 112.008 42.2035 110.339 41.9452C110.24 41.9313 110.217 42.1251 110.316 42.1435V42.1389Z" fill="#7A5C51"/>
<path d="M111.858 42.5079C113.238 42.6094 114.631 42.7847 116.015 42.7847C116.128 42.7847 116.123 42.6048 116.015 42.5909C114.64 42.3926 113.242 42.3557 111.858 42.2542C111.714 42.245 111.714 42.4987 111.858 42.5079Z" fill="#7A5C51"/>
<path d="M112.691 42.6186C113.962 42.7154 115.296 42.7108 116.571 42.6324C116.698 42.6232 116.702 42.4156 116.571 42.4064C115.3 42.328 113.966 42.3234 112.691 42.4202C112.578 42.4295 112.573 42.614 112.691 42.6186Z" fill="#7A5C51"/>
<path d="M113.112 42.6186C114.437 42.5494 115.857 42.4803 117.155 42.1758C117.273 42.1482 117.246 41.9452 117.128 41.9452C115.803 41.9452 114.401 42.2127 113.09 42.4572C113.008 42.471 113.026 42.6279 113.108 42.6232L113.112 42.6186Z" fill="#7A5C51"/>
<path d="M114.812 42.8537C115.78 42.6185 116.748 42.351 117.711 42.0696C117.856 42.0281 117.797 41.7837 117.653 41.816C117.069 41.9543 116.486 42.065 115.898 42.1619C115.776 42.1803 115.803 42.4202 115.925 42.4063C116.744 42.3187 117.562 42.2219 118.381 42.1296C118.548 42.1112 118.553 41.8206 118.381 41.8298C117.635 41.8805 116.884 41.9405 116.138 41.9959C116.029 42.0051 115.943 42.1665 116.038 42.2588C116.499 42.7015 117.029 42.8307 117.603 42.6001C117.775 42.5309 117.707 42.2357 117.531 42.291C117.092 42.4248 116.658 42.5586 116.219 42.6923C116.097 42.7292 116.07 42.9275 116.183 42.9967C116.644 43.2781 117.11 43.2181 117.494 42.8122C117.617 42.6831 117.481 42.5032 117.345 42.5263C116.983 42.5862 116.622 42.6416 116.26 42.7015C116.129 42.7246 116.16 42.9737 116.291 42.9598C116.658 42.9275 117.02 42.8953 117.386 42.863C117.35 42.7661 117.313 42.6693 117.277 42.5724C117.001 42.8768 116.685 42.9229 116.332 42.7108C116.319 42.8122 116.309 42.9137 116.296 43.0152C116.73 42.8768 117.169 42.7431 117.603 42.6047C117.58 42.5032 117.553 42.3971 117.531 42.2957C117.056 42.4894 116.631 42.4294 116.233 42.0466C116.201 42.1342 116.169 42.2219 116.133 42.3095C116.879 42.2495 117.63 42.1942 118.376 42.1342C118.376 42.0327 118.376 41.9359 118.376 41.8344C117.558 41.9405 116.739 42.0466 115.921 42.1573L115.948 42.4017C116.531 42.2726 117.115 42.1573 117.707 42.065C117.689 41.982 117.666 41.8944 117.648 41.8114C116.68 42.0604 115.712 42.3233 114.758 42.6185C114.627 42.66 114.681 42.8814 114.812 42.8491V42.8537Z" fill="#7A5C51"/>
<path d="M109.8 43.2413C109.438 43.149 109.081 43.0568 108.724 42.9415C108.706 43.0107 108.688 43.0799 108.674 43.1536C110.65 43.6195 112.677 43.578 114.648 43.0983C114.793 43.0614 114.752 42.8308 114.617 42.8216C113.233 42.7016 111.844 42.6002 110.46 42.4895C110.293 42.4756 110.28 42.7432 110.424 42.7985C111.966 43.3935 113.595 43.5688 115.214 43.3889C115.349 43.375 115.449 43.1444 115.291 43.0614C114.219 42.5033 113.052 42.554 112.025 43.2136C111.894 43.2966 111.948 43.5503 112.102 43.5411C113.387 43.4673 114.676 43.3981 115.96 43.3243C116.168 43.3151 116.173 42.9692 115.96 42.9599C114.852 42.9092 113.744 42.8446 112.636 42.78C112.487 42.7708 112.428 43.0199 112.559 43.0983C113.69 43.7902 114.947 43.9377 116.177 43.5134C116.349 43.4535 116.308 43.1905 116.136 43.1721C114.938 43.0614 113.739 42.9461 112.541 42.8308C112.364 42.8123 112.351 43.0983 112.5 43.1583C114.074 43.7717 115.915 43.5964 117.276 42.4572C117.403 42.3511 117.294 42.1159 117.149 42.2127C115.72 43.149 114.164 43.4488 112.582 42.84C112.568 42.9507 112.554 43.0568 112.541 43.1675C113.739 43.2828 114.938 43.4027 116.136 43.5226C116.123 43.4073 116.109 43.2966 116.096 43.1813C114.942 43.5826 113.771 43.4535 112.708 42.8077C112.681 42.9138 112.658 43.0199 112.631 43.126C113.739 43.1905 114.847 43.2505 115.955 43.3243C115.955 43.2044 115.955 43.0799 115.955 42.9599C114.671 43.0337 113.382 43.1121 112.098 43.1859L112.175 43.5134C113.102 42.9138 114.151 42.8585 115.123 43.3612C115.15 43.2505 115.178 43.1444 115.2 43.0337C113.59 43.2228 112.03 43.0199 110.483 42.4895L110.447 42.7985C111.835 42.8954 113.219 43.0107 114.608 43.0983L114.576 42.8216C112.631 43.2828 110.678 43.2966 108.719 42.9369C108.584 42.9138 108.552 43.1306 108.692 43.1536C109.054 43.2044 109.407 43.2828 109.764 43.3566C109.832 43.3704 109.863 43.2551 109.791 43.2367L109.8 43.2413Z" fill="#7A5C51"/>
<path d="M112.121 43.0614C114.445 43.684 116.919 43.3935 119.013 42.0697C119.117 42.0051 119.027 41.8345 118.923 41.8944C116.802 43.0475 114.482 43.435 112.175 42.84C112.048 42.8077 111.994 43.0291 112.121 43.0614Z" fill="#7A5C51"/>
<path d="M116.381 42.5125C117.385 42.1112 118.389 41.7053 119.389 41.281C119.497 41.2349 119.457 41.0366 119.339 41.0781C118.326 41.4563 117.322 41.8576 116.318 42.2588C116.178 42.3142 116.236 42.5679 116.377 42.5125H116.381Z" fill="#7A5C51"/>
<path d="M125.468 32.416C126.182 30.179 126.449 27.8452 126.2 25.4791C126.187 25.3453 126.001 25.3407 126.015 25.4791C126.196 27.8129 125.974 30.1468 125.305 32.3653C125.269 32.4806 125.432 32.5267 125.468 32.416Z" fill="#7A5C51"/>
<path d="M103.618 22.5502C103.664 20.7145 103.704 18.8788 103.75 17.0431L103.306 17.4905H103.465C103.32 17.3383 103.171 17.1861 103.026 17.0339C102.714 21.7246 102.253 26.5445 103.288 31.1799C104.211 35.2942 106.508 39.2331 110.434 40.9766C113.867 42.4987 117.621 41.6454 120.316 39.0625C122.844 36.641 123.984 33.1448 124.509 29.7317C125.164 25.4652 125.02 21.1342 125.142 16.8309C124.993 16.9785 124.848 17.1307 124.699 17.2783L125.703 17.1815L125.264 16.7294C125.092 21.3787 125.264 26.0787 124.477 30.6772C123.812 34.5746 122.537 38.4813 119.217 40.8428C116.504 42.7754 112.935 43.2874 109.914 41.7791C106.558 40.1049 104.437 36.5257 103.555 32.9373C102.284 27.7622 102.483 22.375 102.904 17.0984C102.922 16.8955 102.755 16.7202 102.578 16.6603L102.415 16.6049C102.14 16.5127 101.864 16.7571 101.859 17.0339C101.814 18.888 101.773 20.7468 101.728 22.601C101.714 23.1821 102.596 23.1867 102.61 22.6056C102.655 20.7514 102.696 18.8926 102.741 17.0385C102.556 17.1815 102.37 17.3244 102.185 17.4674L102.348 17.5228C102.239 17.3752 102.131 17.2322 102.022 17.0846C101.624 22.0936 101.439 27.1857 102.47 32.1301C103.279 36.0137 105.183 39.8558 108.571 42.0374C111.529 43.9377 115.237 44.0069 118.335 42.4203C121.836 40.6307 123.808 37.2406 124.78 33.4907C126.2 28.0251 125.947 22.3242 126.15 16.7248C126.159 16.4988 125.947 16.2498 125.712 16.2728L124.708 16.3697C124.468 16.3927 124.269 16.5542 124.264 16.8171C124.165 20.3501 124.246 23.897 123.916 27.4163C123.604 30.7279 122.93 34.2149 120.967 36.9546C118.896 39.8466 115.405 41.5531 111.918 40.5569C107.947 39.4222 105.423 35.7185 104.369 31.8395C103.062 27.0334 103.582 21.9322 103.912 17.0292C103.931 16.7894 103.7 16.5726 103.474 16.5772H103.315C103.076 16.5865 102.877 16.7802 102.872 17.0292C102.827 18.865 102.786 20.7007 102.741 22.5364C102.728 23.1176 103.609 23.1222 103.623 22.541L103.618 22.5502Z" fill="#7A5C51"/>
<path d="M102.773 16.6787C102.759 17.6012 102.759 18.519 102.746 19.4369C102.718 21.0466 102.678 22.6609 102.696 24.2706C102.696 24.4321 102.891 24.4321 102.895 24.2706C102.959 22.6609 102.959 21.0466 102.977 19.4369C102.986 18.5236 103.013 17.6104 103.022 16.6925C102.94 16.6879 102.854 16.6787 102.773 16.6741V16.6787Z" fill="#7A5C51"/>
<path d="M103.171 17.8133C103.184 17.4444 103.202 17.0754 103.216 16.7064C103.053 16.6925 102.89 16.6833 102.728 16.6695C102.728 17.2137 102.723 17.7626 102.718 18.3069C102.709 17.758 102.696 17.2137 102.687 16.6649C102.642 16.6649 102.596 16.6603 102.551 16.6556C102.51 16.6556 102.474 16.6464 102.434 16.6464C102.465 19.5983 102.506 22.5502 102.56 25.4975C102.56 25.5852 102.605 25.6359 102.66 25.6544C102.66 26.4984 102.66 27.3471 102.669 28.1911C102.669 28.3387 102.854 28.3434 102.854 28.1911C102.881 27.1303 102.899 26.0649 102.913 25.004C103.288 22.6286 103.379 20.2072 103.175 17.8087L103.171 17.8133Z" fill="#7A5C51"/>
<path d="M102.646 23.6572C102.542 26.4015 102.737 29.1736 103.198 31.8626C103.229 32.0517 103.487 32.0148 103.474 31.8211C103.315 29.7686 103.153 27.7161 103.008 25.659C102.917 25.659 102.827 25.659 102.737 25.659C102.886 27.5454 103.049 29.4319 103.207 31.3183C103.306 31.3183 103.401 31.3183 103.501 31.3183C103.365 29.8193 103.229 28.3249 103.098 26.8259C103.076 26.586 102.818 26.5814 102.795 26.8259C102.605 28.7354 102.836 30.6541 103.564 32.3607C103.637 32.5267 103.817 32.3792 103.763 32.2177C103.18 30.4973 102.917 28.6893 103.098 26.8305C102.999 26.8305 102.895 26.8305 102.795 26.8305C102.931 28.3295 103.071 29.8239 103.211 31.3229C103.234 31.5535 103.523 31.5582 103.505 31.3229C103.343 29.4365 103.184 27.55 103.017 25.6636C102.999 25.4514 102.727 25.4422 102.746 25.6636C102.908 27.7161 103.058 29.7732 103.202 31.8257C103.293 31.8118 103.388 31.798 103.478 31.7842C103.035 29.0998 102.854 26.4062 102.904 23.671C102.904 23.4727 102.664 23.4727 102.655 23.671L102.646 23.6572Z" fill="#7A5C51"/>
<path d="M102.375 23.671C102.013 27.2318 102.578 31.2307 103.804 34.4732C103.854 34.6023 104.03 34.5101 103.989 34.3763C103.492 32.702 103.058 31.0001 102.809 29.2381C102.547 27.3794 102.538 25.5529 102.56 23.6756C102.56 23.5234 102.384 23.5281 102.37 23.6756L102.375 23.671Z" fill="#7A5C51"/>
<path d="M102.94 29.7132C103.239 32.6421 104.044 35.5063 105.423 37.9324C105.496 38.0616 105.663 37.9463 105.595 37.8079C104.347 35.3034 103.483 32.6052 103.148 29.6809C103.13 29.538 102.927 29.5702 102.94 29.7132Z" fill="#7A5C51"/>
<path d="M103.325 31.6734C104.076 33.5138 104.863 35.331 105.636 37.1575C105.699 37.1114 105.763 37.0653 105.826 37.0191C105.062 35.4325 104.288 33.8551 103.515 32.273C103.438 32.1116 103.248 32.2546 103.316 32.4206C103.972 34.1041 104.627 35.7876 105.283 37.4712C105.351 37.4204 105.423 37.3697 105.491 37.319C105.03 36.4149 104.569 35.5155 104.107 34.6161C104.044 34.6761 103.981 34.736 103.917 34.8006C104.573 35.8061 105.224 36.8116 105.88 37.8171C105.939 37.7479 105.993 37.6741 106.052 37.6049C105.604 37.0053 105.157 36.4057 104.709 35.8015C104.618 35.677 104.438 35.843 104.519 35.986C105.297 37.3282 106.079 38.6704 106.857 40.0172C106.92 39.9572 106.984 39.8926 107.047 39.8327C106.242 38.6335 105.432 37.4343 104.632 36.2258C104.573 36.2996 104.51 36.378 104.451 36.4518C105.396 37.6418 106.351 38.8226 107.296 40.008C107.4 40.1417 107.608 39.9572 107.513 39.8004C106.889 38.7857 106.26 37.771 105.636 36.7562C105.564 36.83 105.487 36.8992 105.414 36.973C106.346 38.2368 107.282 39.5006 108.214 40.769C108.341 40.9396 108.535 40.6906 108.417 40.5153C107.739 39.4914 107.061 38.472 106.382 37.4481C106.314 37.5357 106.247 37.6188 106.174 37.7064C107.232 39.0209 108.286 40.3354 109.345 41.65C109.412 41.5623 109.485 41.4747 109.553 41.387C108.784 40.4461 108.01 39.5098 107.242 38.5689C107.174 38.6565 107.101 38.7442 107.033 38.8318C107.988 39.8926 108.942 40.9535 109.896 42.0143C109.964 41.9267 110.037 41.8391 110.104 41.7514C109.471 41.0734 108.838 40.3954 108.205 39.7174C108.155 39.8188 108.11 39.9249 108.06 40.0264C109.349 40.6352 110.643 41.2348 111.941 41.816C112.085 41.8806 112.144 41.5992 112.004 41.53C110.719 40.8935 109.431 40.2801 108.142 39.6713C108.001 39.6067 107.888 39.8604 107.997 39.9803C108.63 40.6583 109.263 41.3363 109.896 42.0143C110.041 42.1665 110.249 41.9129 110.104 41.7514C109.15 40.6906 108.196 39.6297 107.242 38.5689C107.101 38.4121 106.893 38.6611 107.033 38.8318C107.802 39.7727 108.576 40.709 109.345 41.65C109.48 41.816 109.688 41.5577 109.553 41.387C108.494 40.0725 107.436 38.7626 106.378 37.4481C106.242 37.2774 106.052 37.5311 106.17 37.7064C106.848 38.7257 107.526 39.7497 108.205 40.769C108.273 40.686 108.341 40.5983 108.408 40.5153C107.472 39.2515 106.541 37.9877 105.604 36.724C105.496 36.581 105.283 36.7793 105.383 36.9407C106.011 37.9555 106.64 38.9656 107.269 39.9757C107.341 39.9065 107.413 39.8373 107.486 39.7681C106.531 38.5873 105.582 37.402 104.627 36.2258C104.51 36.0782 104.343 36.295 104.447 36.4518C105.261 37.6464 106.066 38.8503 106.871 40.0495C106.957 40.1786 107.142 40.0033 107.061 39.865C106.283 38.5228 105.5 37.1806 104.722 35.8338C104.659 35.8937 104.596 35.9537 104.532 36.0183C104.98 36.6179 105.428 37.2175 105.876 37.8217C105.984 37.9647 106.143 37.7571 106.048 37.6095C105.392 36.604 104.736 35.5985 104.085 34.593C103.999 34.4593 103.822 34.6346 103.895 34.7775C104.356 35.677 104.822 36.581 105.283 37.4804C105.365 37.6418 105.559 37.4988 105.491 37.3282C104.831 35.6447 104.175 33.9658 103.515 32.2823C103.447 32.333 103.379 32.3791 103.316 32.4299C104.089 34.0073 104.858 35.5893 105.636 37.1667C105.708 37.3189 105.894 37.1852 105.826 37.0284C105.039 35.2111 104.266 33.3892 103.461 31.5858C103.411 31.4751 103.28 31.572 103.325 31.6827V31.6734Z" fill="#7A5C51"/>
<path d="M124.667 17.472C124.685 20.7514 124.735 24.0354 124.766 27.3148C124.766 27.4808 124.97 27.4808 124.975 27.3148C125.002 24.4828 125.029 21.6508 125.051 18.8188C125.051 18.6344 124.825 18.6344 124.821 18.8188C124.735 21.9045 124.644 24.9948 124.563 28.0805C124.558 28.2511 124.776 28.2926 124.807 28.122C125.386 24.8656 125.612 21.5447 125.499 18.2146C125.49 18.0117 125.259 18.0117 125.246 18.2146C125.033 21.8768 124.821 25.5344 124.626 29.1966C124.712 29.1966 124.798 29.1966 124.884 29.1966C124.907 27.0796 124.934 24.9671 124.961 22.85C124.88 22.85 124.798 22.85 124.717 22.85C124.916 25.0917 124.798 27.3425 124.359 29.5287C124.332 29.6671 124.504 29.7271 124.531 29.5887C125.015 27.3794 125.164 25.1285 124.961 22.85C124.943 22.6609 124.717 22.6471 124.717 22.85C124.69 24.9671 124.658 27.0796 124.626 29.1966C124.626 29.4042 124.87 29.3996 124.884 29.1966C125.101 25.5344 125.3 21.8722 125.499 18.2146C125.413 18.2146 125.332 18.2146 125.246 18.2146C125.373 21.5171 125.137 24.8149 124.567 28.0436C124.649 28.0574 124.73 28.0712 124.812 28.0851C124.893 24.9994 124.97 21.9091 125.051 18.8235H124.821C124.803 21.6554 124.785 24.4874 124.766 27.3194C124.834 27.3194 124.902 27.3194 124.975 27.3194C124.916 24.04 124.866 20.756 124.789 17.4767C124.789 17.3798 124.667 17.3798 124.667 17.4767V17.472Z" fill="#7A5C51"/>
<path d="M122.238 37.4897C123.93 34.7776 124.735 31.1892 124.789 27.8037C124.703 27.8037 124.622 27.8037 124.536 27.8037C124.703 30.5573 124.106 33.2324 122.89 35.5432C122.817 35.677 122.989 35.7923 123.062 35.6678C124.373 33.38 124.952 30.5988 124.785 27.8083C124.771 27.61 124.536 27.6054 124.531 27.8083C124.468 31.3137 123.536 34.3948 122.103 37.3743C122.058 37.4712 122.175 37.5911 122.234 37.4943L122.238 37.4897Z" fill="#7A5C51"/>
<path d="M121.221 38.1585C122.763 36.8762 123.781 34.8468 124.143 32.6052C124.161 32.4853 124.016 32.4345 123.994 32.5545C123.591 34.7684 122.564 36.6226 121.131 38.0201C121.067 38.0801 121.149 38.2138 121.217 38.1585H121.221Z" fill="#7A5C51"/>
<path d="M124.369 29.2658C124.468 32.9788 123.206 36.5164 121.017 39.0348C120.931 39.1316 121.058 39.2839 121.144 39.187C123.396 36.6687 124.699 33.3431 124.848 29.5841C124.853 29.4365 124.672 29.4365 124.663 29.5841C124.409 33.3893 122.808 36.7886 120.398 39.1363C120.438 39.1778 120.479 39.2147 120.524 39.2562C121.556 37.3697 122.582 35.4833 123.577 33.5692C123.631 33.4677 123.5 33.3754 123.446 33.4769C122.406 35.3541 121.393 37.259 120.384 39.1639C120.343 39.2423 120.429 39.353 120.493 39.2977C123.057 37.0884 124.622 33.4216 124.848 29.5933H124.663C124.55 33.1402 123.193 36.7102 121.017 39.0394C121.058 39.0901 121.103 39.1409 121.144 39.1916C123.46 36.7425 124.69 33.0157 124.559 29.2704C124.554 29.1228 124.364 29.1182 124.369 29.2704V29.2658Z" fill="#7A5C51"/>
<path d="M123.722 32.0471C123.061 33.3985 122.464 34.8007 121.872 36.1982C121.84 36.2766 121.931 36.3412 121.967 36.2674C122.6 34.8975 123.238 33.5184 123.803 32.107C123.83 32.0425 123.753 31.9871 123.722 32.0517V32.0471Z" fill="#7A5C51"/>
<path d="M121.09 37.9509C123.45 35.3587 124.69 31.4751 124.436 27.5869C124.432 27.4993 124.323 27.4947 124.323 27.5869C124.387 29.6948 124.115 31.7888 123.541 33.7767C123.514 33.8643 123.627 33.8966 123.649 33.8136C124.07 32.4299 124.346 30.9908 124.427 29.5149C124.45 29.1044 124.459 28.6893 124.454 28.2788C124.45 27.8729 124.332 27.6469 124.341 28.1773C124.35 28.9522 124.301 29.7224 124.197 30.4881C123.812 33.3109 122.695 35.8984 121.031 37.8863C120.995 37.9324 121.049 38.0016 121.09 37.9555V37.9509Z" fill="#7A5C51"/>
<path d="M125.379 18.6528C125.397 17.9655 125.41 17.2644 125.41 16.5634C125.202 16.5726 124.993 16.5864 124.785 16.5957C124.835 17.1722 124.88 17.7487 124.93 18.3253C124.93 18.376 124.953 18.4083 124.975 18.436C125.002 18.8742 125.034 19.3077 125.061 19.7459C125.066 19.8289 125.111 19.8797 125.161 19.8981C125.166 19.995 125.175 20.0964 125.179 20.1933C125.193 20.3916 125.442 20.4008 125.433 20.1933C125.415 19.6905 125.392 19.1832 125.37 18.6804C125.37 18.6712 125.374 18.662 125.374 18.6528H125.379Z" fill="#7A5C51"/>
<path d="M125.2 16.5726C125.232 17.0892 125.282 17.6011 125.354 18.1039C125.372 18.21 125.504 18.1869 125.508 18.0808C125.513 17.5781 125.49 17.0707 125.454 16.5634C125.368 16.5634 125.286 16.5726 125.2 16.5772V16.5726Z" fill="#7A5C51"/>
<path d="M107.585 39.6206C108.539 40.4923 109.606 41.3225 110.656 42.0098C110.764 42.0789 110.846 41.8944 110.751 41.8114C109.792 40.9443 108.724 40.1141 107.675 39.4361C107.576 39.3715 107.499 39.5421 107.589 39.6206H107.585Z" fill="#7A5C51"/>
<path d="M108.01 39.2793C108.688 40.9028 110.009 42.0882 111.492 42.2634C111.605 42.2773 111.633 42.0467 111.52 42.019C110.099 41.65 108.924 40.7183 108.173 39.1593C108.109 39.0302 107.956 39.1455 108.01 39.2793Z" fill="#7A5C51"/>
<path d="M107.277 39.5422C107.783 40.6861 108.887 41.4932 109.85 41.9176C110.94 42.4019 112.116 42.4526 113.215 42.0098C113.328 41.9637 113.283 41.7515 113.165 41.7884C112.116 42.0836 111.026 42.0513 109.999 41.6454C108.91 41.2073 108.19 40.3863 107.372 39.4499C107.318 39.39 107.236 39.4684 107.272 39.5468L107.277 39.5422Z" fill="#7A5C51"/>
<path d="M108.498 39.7497C110.239 42.5356 113.789 43.1537 116.286 41.8299C116.385 41.7792 116.313 41.5624 116.213 41.6085C114.924 42.2266 113.518 42.3834 112.161 42.0513C110.741 41.7008 109.633 40.8336 108.525 39.7221C108.511 39.7082 108.484 39.7267 108.498 39.7497Z" fill="#7A5C51"/>
<path d="M109.38 41.115C111.398 42.4987 113.844 42.7662 116.038 41.9129C116.16 41.8668 116.11 41.6316 115.988 41.6731C113.772 42.4203 111.524 42.162 109.444 40.9812C109.371 40.9397 109.313 41.0642 109.38 41.115Z" fill="#7A5C51"/>
<path d="M112.786 42.0836C114.622 43.1029 116.838 42.6278 118.385 41.0919C118.466 41.0135 118.358 40.8336 118.272 40.912C116.675 42.3972 114.712 42.6878 112.835 41.9314C112.763 41.9037 112.713 42.042 112.786 42.0836Z" fill="#7A5C51"/>
<path d="M115.282 42.3649C117.783 42.4941 120.253 41.1103 121.827 38.7073C121.908 38.5828 121.768 38.3983 121.677 38.5274C120.045 40.829 117.752 42.1297 115.282 42.1666C115.178 42.1666 115.178 42.3603 115.282 42.3695V42.3649Z" fill="#7A5C51"/>
<path d="M117.408 41.8253C119.366 40.972 121.017 39.2054 122.071 37.01C122.134 36.8762 121.971 36.7655 121.903 36.89C120.782 39.0348 119.222 40.5938 117.345 41.6454C117.263 41.6915 117.322 41.8622 117.403 41.8253H117.408Z" fill="#7A5C51"/>
<path d="M116.151 41.5578C118.227 41.0689 120.149 39.7036 121.578 37.7941C121.655 37.6926 121.533 37.5404 121.451 37.6419C119.95 39.496 118.163 40.7322 116.124 41.4332C116.056 41.4563 116.083 41.5762 116.151 41.5578Z" fill="#7A5C51"/>
<path d="M116.657 41.1703C118.561 40.5061 120.325 39.247 121.709 37.5035C121.804 37.3882 121.659 37.2129 121.564 37.3236C120.117 38.9748 118.48 40.1925 116.612 40.9582C116.504 41.0043 116.544 41.2118 116.657 41.1703Z" fill="#7A5C51"/>
<path d="M121.609 37.5265C120.375 39.4268 118.801 40.8059 116.956 41.6499C116.829 41.7099 116.874 41.9359 117.01 41.9036C119.47 41.304 121.587 39.2838 122.568 36.4103C122.613 36.2811 122.46 36.1658 122.41 36.2996C121.379 39.0255 119.357 41.078 116.956 41.6499C116.974 41.7329 116.992 41.8206 117.01 41.9036C118.896 41.1195 120.542 39.6066 121.731 37.6418C121.786 37.5541 121.664 37.4435 121.609 37.5265Z" fill="#7A5C51"/>
<path d="M123.324 33.6799C122.424 36.0783 121.23 38.177 119.756 40.0865C119.679 40.188 119.779 40.3586 119.878 40.2848C122.121 38.6013 123.795 36.0322 124.586 32.9281L124.365 32.8543C124.107 34.5563 123.374 36.0414 122.266 37.0977C122.148 37.2084 122.266 37.4574 122.384 37.3467C124.012 35.8016 124.916 33.3709 124.717 30.8295C124.64 30.8295 124.564 30.8295 124.487 30.8295C124.618 32.4161 124.265 33.9474 123.505 35.2297C123.442 35.3358 123.591 35.4787 123.659 35.3727C124.491 34.0627 124.857 32.4853 124.717 30.8295C124.704 30.6496 124.473 30.645 124.487 30.8295C124.681 33.2417 123.853 35.6586 122.266 37.0977C122.307 37.1807 122.343 37.2637 122.384 37.3467C123.555 36.2536 124.324 34.7131 124.586 32.9281C124.613 32.7482 124.41 32.6744 124.365 32.8543C123.609 35.857 121.977 38.4675 119.779 40.068C119.819 40.1326 119.86 40.1972 119.901 40.2664C121.416 38.4306 122.614 36.1752 123.446 33.7676C123.478 33.6707 123.365 33.5831 123.329 33.6845L123.324 33.6799Z" fill="#7A5C51"/>
<path d="M108.164 39.5929C109.172 40.1372 110.203 40.6307 111.23 41.115C111.293 41.1473 111.339 41.0089 111.275 40.9766C110.258 40.4508 109.24 39.9296 108.204 39.4638C108.146 39.4361 108.1 39.5606 108.159 39.5929H108.164Z" fill="#7A5C51"/>
<path d="M107.675 39.2839C108.969 39.9896 110.285 40.6399 111.601 41.2672C111.678 41.3041 111.736 41.138 111.66 41.0965C110.362 40.4047 109.054 39.7313 107.734 39.1132C107.657 39.0763 107.598 39.2378 107.675 39.2839Z" fill="#7A5C51"/>
<path d="M109.145 40.8797C110.488 41.2349 111.832 41.6085 113.179 41.9221C113.274 41.9452 113.315 41.7699 113.22 41.7422C111.881 41.3594 110.529 41.0366 109.186 40.6952C109.091 40.6722 109.05 40.8521 109.145 40.8797Z" fill="#7A5C51"/>
<path d="M110.637 41.2718C111.655 41.4286 112.673 41.59 113.695 41.7192C113.767 41.7284 113.763 41.5946 113.695 41.5854C112.677 41.4148 111.66 41.2764 110.637 41.1334C110.565 41.1242 110.565 41.2626 110.637 41.2718Z" fill="#7A5C51"/>
<path d="M110.741 41.2811C112.211 41.5347 113.685 41.8299 115.16 42.019C115.228 42.0283 115.246 41.8853 115.178 41.8714C113.712 41.5532 112.234 41.341 110.764 41.092C110.678 41.0781 110.655 41.2672 110.741 41.2811Z" fill="#7A5C51"/>
<path d="M112.103 41.6408C113.319 41.7423 114.55 41.9083 115.771 41.9083C115.87 41.9083 115.866 41.733 115.771 41.7192C114.559 41.5255 113.324 41.4932 112.103 41.3963C111.976 41.3871 111.976 41.6316 112.103 41.6408Z" fill="#7A5C51"/>
<path d="M112.836 41.7469C113.957 41.8391 115.133 41.8345 116.259 41.7607C116.372 41.7515 116.372 41.5532 116.259 41.5439C115.138 41.4655 113.957 41.4609 112.836 41.5578C112.736 41.567 112.732 41.7423 112.836 41.7515V41.7469Z" fill="#7A5C51"/>
<path d="M113.206 41.7469C114.373 41.6777 115.63 41.6131 116.775 41.3179C116.879 41.2903 116.856 41.0965 116.752 41.0965C115.581 41.0965 114.346 41.3548 113.188 41.5901C113.116 41.6039 113.129 41.7561 113.206 41.7515V41.7469Z" fill="#7A5C51"/>
<path d="M114.708 41.9729C115.563 41.7469 116.418 41.4886 117.263 41.2164C117.39 41.1749 117.34 40.9397 117.209 40.972C116.694 41.1058 116.178 41.2118 115.662 41.3087C115.554 41.3271 115.576 41.5578 115.685 41.5485C116.409 41.4655 117.128 41.3687 117.851 41.281C117.996 41.2626 118.005 40.9812 117.851 40.9904C117.191 41.0412 116.531 41.0965 115.87 41.1473C115.775 41.1565 115.699 41.3133 115.784 41.4009C116.191 41.8299 116.657 41.9544 117.168 41.7284C117.318 41.6638 117.263 41.3779 117.105 41.4286C116.721 41.5578 116.336 41.6869 115.952 41.8161C115.848 41.853 115.821 42.0421 115.92 42.1066C116.327 42.3788 116.739 42.3188 117.078 41.9314C117.186 41.8068 117.069 41.6316 116.947 41.6546C116.626 41.71 116.309 41.7653 115.988 41.8253C115.875 41.8437 115.898 42.0882 116.015 42.0743C116.336 42.0421 116.657 42.0098 116.978 41.9821C116.947 41.8899 116.915 41.793 116.883 41.7007C116.639 41.9913 116.363 42.0374 116.047 41.8345C116.038 41.9314 116.024 42.0282 116.015 42.1251C116.4 41.9913 116.784 41.8622 117.168 41.7284C117.146 41.6269 117.123 41.5301 117.105 41.4286C116.684 41.6177 116.309 41.5578 115.956 41.1888C115.929 41.2718 115.898 41.3594 115.87 41.4425C116.531 41.3871 117.191 41.3318 117.851 41.2718C117.851 41.1749 117.851 41.0781 117.851 40.9812C117.128 41.0873 116.404 41.1842 115.685 41.2949L115.708 41.5347C116.223 41.4102 116.739 41.2995 117.259 41.2072C117.241 41.1242 117.223 41.0458 117.205 40.9628C116.35 41.2026 115.5 41.4609 114.654 41.7423C114.536 41.7792 114.586 41.9959 114.704 41.9637L114.708 41.9729Z" fill="#7A5C51"/>
<path d="M110.285 42.3465C109.968 42.2588 109.647 42.1712 109.335 42.0559C109.322 42.1251 109.303 42.1896 109.29 42.2588C111.031 42.7108 112.822 42.6693 114.559 42.2081C114.685 42.1758 114.649 41.9498 114.532 41.9406C113.31 41.8253 112.085 41.7284 110.864 41.6177C110.719 41.6039 110.705 41.8668 110.832 41.9175C112.193 42.4894 113.627 42.6647 115.056 42.4848C115.178 42.471 115.264 42.2496 115.124 42.1666C114.179 41.6269 113.148 41.6777 112.243 42.3142C112.13 42.3926 112.175 42.637 112.311 42.6324C113.446 42.5632 114.581 42.4941 115.717 42.4249C115.897 42.4156 115.902 42.0836 115.717 42.0743C114.74 42.0236 113.758 41.9636 112.781 41.9037C112.646 41.8944 112.596 42.1343 112.714 42.2127C113.713 42.8815 114.821 43.0245 115.906 42.614C116.056 42.5586 116.024 42.3003 115.87 42.2865C114.812 42.1758 113.754 42.0697 112.695 41.9544C112.542 41.936 112.528 42.2127 112.659 42.2681C114.048 42.863 115.671 42.6924 116.874 41.59C116.987 41.4886 116.888 41.2626 116.761 41.3502C115.504 42.2542 114.125 42.5448 112.732 41.9544C112.718 42.0605 112.709 42.1666 112.695 42.2681C113.754 42.3787 114.812 42.4987 115.87 42.614C115.857 42.5033 115.848 42.3926 115.834 42.2865C114.817 42.6739 113.781 42.5494 112.845 41.9221C112.822 42.0236 112.799 42.1297 112.777 42.2312C113.754 42.2911 114.735 42.3511 115.712 42.4249C115.712 42.3096 115.712 42.1896 115.712 42.0743C114.577 42.1481 113.442 42.2219 112.306 42.2957L112.374 42.614C113.193 42.0374 114.12 41.9775 114.979 42.4664C115.002 42.3603 115.025 42.2542 115.047 42.1481C113.627 42.328 112.252 42.1343 110.886 41.6223C110.877 41.7238 110.864 41.8207 110.855 41.9221C112.076 42.019 113.301 42.1251 114.523 42.2127L114.495 41.9452C112.777 42.388 111.058 42.4064 109.326 42.0559C109.204 42.0328 109.181 42.245 109.303 42.2634C109.62 42.3142 109.937 42.388 110.249 42.4618C110.307 42.4756 110.335 42.3649 110.276 42.3465H110.285Z" fill="#7A5C51"/>
<path d="M112.334 42.1712C114.383 42.7708 116.567 42.4941 118.417 41.2119C118.507 41.1473 118.426 40.9859 118.336 41.0412C116.463 42.1528 114.414 42.531 112.379 41.9545C112.266 41.9222 112.221 42.1343 112.334 42.1666V42.1712Z" fill="#7A5C51"/>
<path d="M116.092 41.6454C116.978 41.2579 117.865 40.8659 118.747 40.4554C118.842 40.4093 118.806 40.2155 118.706 40.2571C117.815 40.6214 116.929 41.0089 116.042 41.3963C115.92 41.4517 115.97 41.6961 116.097 41.6408L116.092 41.6454Z" fill="#7A5C51"/>
<path d="M124.11 31.8857C124.739 29.7225 124.974 27.4671 124.757 25.184C124.744 25.0548 124.585 25.0502 124.594 25.184C124.753 27.4394 124.558 29.6948 123.97 31.8396C123.939 31.9503 124.079 31.9964 124.11 31.8857Z" fill="#7A5C51"/>
<path d="M105.015 21.8999C105.051 20.304 105.088 18.7081 105.124 17.1076C104.975 17.2552 104.83 17.4074 104.681 17.555H104.812C104.667 17.4028 104.518 17.2506 104.373 17.0984C104.115 21.1388 103.74 25.2669 104.563 29.2658C105.296 32.8311 107.164 36.3827 110.547 37.9601C113.446 39.3115 116.611 38.5781 118.873 36.3458C121.03 34.2148 121.975 31.1707 122.418 28.2188C122.979 24.4828 122.853 20.6914 122.957 16.9277C122.807 17.0753 122.663 17.2275 122.513 17.3751C122.794 17.3475 123.074 17.3198 123.35 17.2921L122.911 16.8401C122.771 20.8759 122.911 24.9579 122.26 28.9568C121.713 32.3053 120.682 35.7369 117.855 37.8079C115.585 39.4729 112.586 39.8834 110.081 38.5089C107.335 37.0007 105.667 33.9289 104.961 30.9309C103.898 26.4246 104.07 21.7477 104.418 17.1676C104.432 16.96 104.269 16.7894 104.093 16.7294L103.957 16.6833C103.681 16.5864 103.405 16.8401 103.401 17.1122C103.365 18.7266 103.328 20.3409 103.292 21.9552C103.279 22.5364 104.161 22.541 104.174 21.9598C104.21 20.3455 104.246 18.7312 104.283 17.1168L103.726 17.5458L103.862 17.5919L103.536 17.1537C103.202 21.5539 103.048 26.0279 103.939 30.3728C104.613 33.6752 106.178 36.9823 109.013 38.8964C111.483 40.5661 114.626 40.6352 117.236 39.2515C120.243 37.6511 121.867 34.6346 122.667 31.3875C123.839 26.6368 123.631 21.6969 123.798 16.8447C123.807 16.6187 123.594 16.3696 123.359 16.3927L122.522 16.4757C122.283 16.4988 122.084 16.6602 122.079 16.9231C121.998 19.9765 122.061 23.0391 121.794 26.0833C121.541 28.9429 120.998 31.9502 119.375 34.3624C117.697 36.8531 114.784 38.4075 111.835 37.5035C108.453 36.4657 106.44 33.1402 105.608 29.8285C104.563 25.6866 104.997 21.3187 105.269 17.1076C105.282 16.8678 105.061 16.651 104.83 16.6556H104.699C104.459 16.6648 104.26 16.8539 104.256 17.103C104.219 18.6989 104.183 20.2948 104.147 21.8952C104.133 22.4764 105.015 22.481 105.029 21.8999H105.015Z" fill="#7A5C51"/>
<path d="M104.238 16.7894C104.224 17.5919 104.224 18.3899 104.215 19.1878C104.192 20.59 104.156 21.9921 104.17 23.3943C104.17 23.5326 104.333 23.5326 104.337 23.3943C104.387 21.9921 104.392 20.59 104.405 19.1878C104.414 18.3945 104.437 17.5965 104.446 16.8032C104.378 16.7986 104.306 16.794 104.238 16.7894Z" fill="#7A5C51"/>
<path d="M104.569 17.7764C104.583 17.4582 104.592 17.1353 104.605 16.817C104.469 16.8078 104.333 16.7986 104.197 16.7847C104.197 17.2598 104.193 17.7349 104.188 18.21C104.179 17.7349 104.17 17.2552 104.161 16.7801C104.125 16.7801 104.084 16.7755 104.048 16.7709C104.016 16.7709 103.984 16.7663 103.953 16.7617C103.98 19.3308 104.011 21.8952 104.061 24.4643C104.061 24.5427 104.098 24.5842 104.143 24.6027C104.143 25.3361 104.143 26.074 104.147 26.8074C104.147 26.9365 104.302 26.9365 104.302 26.8074C104.324 25.8849 104.338 24.9578 104.351 24.0354C104.664 21.969 104.741 19.8612 104.574 17.7764H104.569Z" fill="#7A5C51"/>
<path d="M104.134 22.8592C104.048 25.2484 104.211 27.6561 104.595 29.9992C104.622 30.1606 104.839 30.1329 104.826 29.9623C104.69 28.1773 104.559 26.3877 104.437 24.6027C104.36 24.6027 104.283 24.6027 104.211 24.6027C104.337 26.2447 104.473 27.8867 104.604 29.5287C104.685 29.5287 104.767 29.5287 104.848 29.5287C104.735 28.2234 104.622 26.9227 104.514 25.6174C104.495 25.4099 104.283 25.4052 104.26 25.6174C104.102 27.2779 104.292 28.9475 104.903 30.4327C104.961 30.5757 105.115 30.4512 105.065 30.3082C104.577 28.8092 104.36 27.241 104.509 25.622C104.423 25.622 104.342 25.622 104.256 25.622C104.369 26.9273 104.486 28.228 104.6 29.5333C104.618 29.7316 104.862 29.7362 104.844 29.5333C104.708 27.8913 104.577 26.2493 104.437 24.6073C104.419 24.4228 104.192 24.4182 104.211 24.6073C104.346 26.3923 104.468 28.1819 104.59 29.9669C104.667 29.953 104.744 29.9438 104.821 29.93C104.45 27.5961 104.301 25.253 104.342 22.8731C104.342 22.7024 104.143 22.7024 104.134 22.8731V22.8592Z" fill="#7A5C51"/>
<path d="M103.908 22.8731C103.605 25.9726 104.08 29.4503 105.102 32.2685C105.142 32.3792 105.292 32.3008 105.255 32.1855C104.839 30.728 104.478 29.2474 104.27 27.7161C104.052 26.0972 104.043 24.5105 104.061 22.8731C104.061 22.7394 103.917 22.744 103.903 22.8731H103.908Z" fill="#7A5C51"/>
<path d="M104.377 28.1265C104.626 30.6771 105.295 33.1632 106.444 35.2756C106.503 35.3863 106.643 35.2849 106.589 35.1695C105.549 32.9879 104.829 30.6402 104.549 28.0988C104.535 27.9743 104.364 28.0019 104.377 28.1265Z" fill="#7A5C51"/>
<path d="M104.699 29.8377C105.328 31.4382 105.979 33.0202 106.621 34.6069C106.676 34.5653 106.725 34.5284 106.78 34.4869C106.142 33.1078 105.495 31.7334 104.853 30.3589C104.79 30.2205 104.631 30.3404 104.686 30.488C105.233 31.9548 105.78 33.4169 106.327 34.8836C106.386 34.8421 106.44 34.796 106.499 34.7545C106.115 33.9704 105.73 33.1863 105.346 32.4022C105.292 32.4529 105.242 32.5082 105.188 32.559C105.735 33.4353 106.278 34.3071 106.825 35.1834C106.875 35.1234 106.92 35.0589 106.97 34.9989C106.594 34.4777 106.223 33.9519 105.848 33.4307C105.771 33.3246 105.622 33.4676 105.69 33.5921C106.341 34.7591 106.988 35.9306 107.639 37.0975C107.693 37.0422 107.743 36.9914 107.797 36.9361C107.123 35.8937 106.45 34.8513 105.785 33.7997C105.735 33.8643 105.685 33.9288 105.635 33.9934C106.422 35.0312 107.218 36.0598 108.01 37.0883C108.1 37.2036 108.272 37.0468 108.191 36.9084C107.671 36.0275 107.146 35.1419 106.626 34.2609C106.563 34.3209 106.504 34.3855 106.44 34.4454C107.218 35.5478 107.996 36.6455 108.774 37.7479C108.883 37.9001 109.041 37.6787 108.946 37.5265C108.381 36.6363 107.815 35.7461 107.25 34.8605C107.191 34.9343 107.137 35.0081 107.078 35.0865C107.96 36.2304 108.842 37.3743 109.719 38.5181C109.778 38.4443 109.837 38.3659 109.896 38.2921C109.254 37.4757 108.611 36.6594 107.969 35.8384C107.91 35.9122 107.852 35.9906 107.793 36.0644C108.589 36.9868 109.385 37.9093 110.181 38.8318C110.24 38.758 110.298 38.6796 110.357 38.6058C109.828 38.0154 109.303 37.425 108.774 36.8346C108.733 36.9223 108.693 37.0145 108.652 37.1021C109.728 37.6326 110.805 38.1538 111.886 38.6611C112.008 38.7165 112.053 38.472 111.94 38.4121C110.873 37.8586 109.796 37.3235 108.72 36.7931C108.602 36.7378 108.507 36.9592 108.598 37.0606C109.127 37.651 109.652 38.2414 110.181 38.8318C110.298 38.9655 110.475 38.7441 110.357 38.6058C109.561 37.6833 108.765 36.7608 107.969 35.8384C107.852 35.7 107.68 35.9214 107.793 36.0644C108.435 36.8808 109.077 37.6971 109.719 38.5181C109.832 38.6611 110.009 38.4351 109.896 38.2921C109.014 37.1483 108.132 36.009 107.25 34.8651C107.137 34.7176 106.979 34.9343 107.078 35.0912C107.644 35.9813 108.209 36.8669 108.774 37.7571C108.833 37.6833 108.887 37.6095 108.946 37.5357C108.168 36.438 107.39 35.3356 106.608 34.2379C106.517 34.1133 106.341 34.284 106.422 34.4224C106.947 35.3033 107.472 36.1843 107.996 37.0652C108.055 37.0053 108.114 36.9453 108.177 36.8854C107.381 35.8568 106.594 34.8283 105.794 33.8043C105.694 33.6798 105.559 33.8643 105.645 33.998C106.323 35.0358 106.992 36.0828 107.666 37.1252C107.738 37.2405 107.892 37.0883 107.824 36.9638C107.173 35.7968 106.526 34.6253 105.875 33.4584C105.821 33.5137 105.771 33.5645 105.717 33.6198C106.092 34.141 106.463 34.6622 106.838 35.188C106.929 35.3126 107.06 35.1281 106.983 35.0035C106.436 34.1272 105.893 33.2554 105.346 32.3791C105.274 32.2638 105.129 32.416 105.188 32.5359C105.572 33.32 105.957 34.1041 106.346 34.8882C106.413 35.0312 106.572 34.9067 106.517 34.7591C105.97 33.297 105.418 31.8302 104.871 30.3681C104.817 30.4096 104.758 30.4511 104.704 30.4973C105.346 31.8717 105.988 33.2462 106.635 34.6161C106.698 34.7452 106.852 34.6299 106.793 34.4962C106.137 32.9141 105.495 31.3275 104.821 29.7593C104.781 29.6624 104.672 29.75 104.708 29.8423L104.699 29.8377Z" fill="#7A5C51"/>
<path d="M122.486 17.4812C122.5 20.3363 122.541 23.1913 122.572 26.0464C122.572 26.1894 122.744 26.1894 122.744 26.0464C122.767 23.5834 122.789 21.1204 122.807 18.6528C122.807 18.4913 122.617 18.4913 122.617 18.6528C122.545 21.3372 122.473 24.0262 122.405 26.7105C122.405 26.8581 122.581 26.895 122.608 26.7474C123.092 23.9109 123.278 21.0281 123.187 18.127C123.183 17.9517 122.988 17.9517 122.975 18.127C122.798 21.3095 122.622 24.4966 122.459 27.6838C122.532 27.6838 122.604 27.6838 122.676 27.6838C122.694 25.8434 122.717 24.0031 122.74 22.1628C122.672 22.1628 122.604 22.1628 122.536 22.1628C122.703 24.1092 122.604 26.074 122.238 27.9743C122.215 28.0943 122.355 28.145 122.382 28.0251C122.789 26.1017 122.907 24.1461 122.74 22.1628C122.726 21.9967 122.536 21.9875 122.536 22.1628C122.513 24.0031 122.491 25.8434 122.459 27.6838C122.459 27.8636 122.663 27.8636 122.676 27.6838C122.857 24.5012 123.024 21.3141 123.187 18.127C123.115 18.127 123.047 18.127 122.975 18.127C123.079 21.0005 122.884 23.8693 122.409 26.6783C122.477 26.6921 122.545 26.7013 122.613 26.7152C122.681 24.0308 122.744 21.3418 122.812 18.6574H122.622C122.604 21.1204 122.59 23.5834 122.577 26.0464C122.636 26.0464 122.69 26.0464 122.749 26.0464C122.699 23.1913 122.658 20.3363 122.595 17.4812C122.595 17.3982 122.491 17.3936 122.491 17.4812H122.486Z" fill="#7A5C51"/>
<path d="M120.46 34.8929C121.871 32.5313 122.541 29.4134 122.586 26.4661C122.518 26.4661 122.446 26.4661 122.378 26.4661C122.518 28.8645 122.021 31.1891 121.008 33.2001C120.949 33.3154 121.089 33.4169 121.152 33.3062C122.247 31.3137 122.726 28.8968 122.591 26.4707C122.582 26.3001 122.383 26.2908 122.383 26.4707C122.328 29.5195 121.555 32.1993 120.361 34.796C120.325 34.879 120.42 34.9851 120.469 34.9021L120.46 34.8929Z" fill="#7A5C51"/>
<path d="M119.61 35.474C120.894 34.3578 121.744 32.5912 122.047 30.6448C122.065 30.5434 121.943 30.4972 121.925 30.6033C121.591 32.5313 120.736 34.1456 119.542 35.3587C119.488 35.4094 119.56 35.5247 119.614 35.4786L119.61 35.474Z" fill="#7A5C51"/>
<path d="M122.233 27.7391C122.319 30.9677 121.265 34.0488 119.438 36.2397C119.37 36.3227 119.474 36.4565 119.542 36.3734C121.419 34.1826 122.504 31.2906 122.626 28.0205C122.631 27.8913 122.482 27.8913 122.473 28.0205C122.265 31.3321 120.926 34.284 118.918 36.3319C118.954 36.3642 118.986 36.4011 119.022 36.4334C119.881 34.7914 120.736 33.1494 121.568 31.4843C121.613 31.3967 121.505 31.3137 121.46 31.4013C120.591 33.0341 119.75 34.6899 118.909 36.3458C118.873 36.4149 118.945 36.5118 118.999 36.4611C121.134 34.5423 122.441 31.3506 122.626 28.0205H122.473C122.378 31.1061 121.247 34.2102 119.433 36.2397C119.47 36.2858 119.501 36.3273 119.538 36.3734C121.464 34.2425 122.495 31 122.382 27.7391C122.382 27.61 122.219 27.6053 122.224 27.7391H122.233Z" fill="#7A5C51"/>
<path d="M121.695 30.1606C121.143 31.3367 120.65 32.559 120.153 33.772C120.125 33.8366 120.202 33.8966 120.229 33.832C120.759 32.642 121.288 31.4428 121.758 30.2113C121.781 30.156 121.717 30.1052 121.69 30.1606H121.695Z" fill="#7A5C51"/>
<path d="M119.502 35.2942C121.469 33.0387 122.505 29.6625 122.292 26.2816C122.288 26.2032 122.197 26.2032 122.197 26.2816C122.247 28.1174 122.025 29.9346 121.546 31.6643C121.523 31.7381 121.618 31.7703 121.637 31.6966C121.989 30.4927 122.215 29.2428 122.283 27.9559C122.301 27.5962 122.31 27.241 122.306 26.8813C122.306 26.5307 122.202 26.3324 122.211 26.7936C122.22 27.467 122.175 28.1404 122.089 28.8046C121.768 31.263 120.841 33.5138 119.452 35.2388C119.42 35.2804 119.47 35.3403 119.502 35.2988V35.2942Z" fill="#7A5C51"/>
<path d="M123.075 18.5052C123.089 17.9056 123.102 17.2968 123.102 16.688C122.93 16.6972 122.753 16.7064 122.581 16.7156C122.622 17.2184 122.662 17.7211 122.703 18.2193C122.703 18.2608 122.721 18.2931 122.744 18.3161C122.767 18.6943 122.794 19.0726 122.817 19.4554C122.817 19.5246 122.857 19.5707 122.898 19.5891C122.903 19.6768 122.907 19.7598 122.912 19.8474C122.921 20.0181 123.129 20.0273 123.125 19.8474C123.111 19.4093 123.093 18.9711 123.075 18.5329C123.075 18.5237 123.075 18.5191 123.075 18.5099V18.5052Z" fill="#7A5C51"/>
<path d="M122.925 16.6971C122.952 17.1445 122.993 17.5919 123.052 18.0255C123.065 18.1177 123.179 18.0947 123.179 18.0024C123.183 17.5642 123.165 17.1215 123.133 16.6833C123.061 16.6833 122.993 16.6925 122.92 16.6925L122.925 16.6971Z" fill="#7A5C51"/>
<path d="M108.249 36.747C109.045 37.5081 109.936 38.2276 110.809 38.8272C110.899 38.8872 110.967 38.7257 110.886 38.6519C110.09 37.9001 109.199 37.176 108.321 36.5856C108.235 36.5303 108.177 36.6778 108.249 36.747Z" fill="#7A5C51"/>
<path d="M108.602 36.4472C109.167 37.8586 110.266 38.8917 111.501 39.044C111.596 39.0578 111.614 38.8548 111.524 38.8318C110.339 38.5135 109.362 37.6971 108.738 36.3457C108.684 36.235 108.557 36.3319 108.602 36.4472Z" fill="#7A5C51"/>
<path d="M107.991 36.6779C108.412 37.6741 109.33 38.3752 110.135 38.7442C111.044 39.1639 112.021 39.2101 112.939 38.8226C113.034 38.7811 112.998 38.6012 112.898 38.6289C112.025 38.8826 111.116 38.8595 110.261 38.5044C109.352 38.1262 108.755 37.4066 108.072 36.5949C108.027 36.5395 107.959 36.6087 107.986 36.6779H107.991Z" fill="#7A5C51"/>
<path d="M109.009 36.8624C110.461 39.2838 113.418 39.8235 115.499 38.675C115.58 38.6289 115.521 38.4398 115.436 38.4813C114.364 39.0163 113.188 39.1547 112.057 38.8641C110.872 38.5597 109.95 37.8033 109.027 36.8393C109.013 36.8255 108.995 36.8393 109.004 36.8624H109.009Z" fill="#7A5C51"/>
<path d="M109.746 38.0477C111.428 39.2515 113.468 39.4821 115.295 38.7442C115.399 38.7027 115.354 38.4997 115.25 38.5366C113.405 39.1869 111.532 38.9609 109.796 37.9324C109.737 37.8955 109.683 38.0062 109.746 38.0477Z" fill="#7A5C51"/>
<path d="M112.582 38.8918C114.11 39.7773 115.96 39.3668 117.249 38.0293C117.317 37.9601 117.226 37.8032 117.154 37.8724C115.824 39.1639 114.187 39.4176 112.622 38.758C112.563 38.7349 112.523 38.8549 112.582 38.8918Z" fill="#7A5C51"/>
<path d="M114.662 39.1362C116.747 39.2469 118.805 38.0431 120.116 35.9537C120.184 35.843 120.067 35.6862 119.994 35.7969C118.637 37.7986 116.724 38.9333 114.662 38.961C114.576 38.961 114.576 39.1316 114.662 39.1362Z" fill="#7A5C51"/>
<path d="M116.431 38.6658C118.063 37.9232 119.438 36.3873 120.316 34.4777C120.37 34.3624 120.234 34.2656 120.18 34.3763C119.244 36.2443 117.946 37.6003 116.381 38.5136C116.313 38.5551 116.363 38.7027 116.431 38.6704V38.6658Z" fill="#7A5C51"/>
<path d="M115.385 38.4351C117.113 38.0108 118.714 36.8208 119.908 35.1603C119.971 35.0727 119.872 34.9389 119.804 35.0266C118.551 36.6409 117.063 37.7156 115.363 38.3244C115.308 38.3428 115.331 38.4489 115.385 38.4351Z" fill="#7A5C51"/>
<path d="M115.807 38.0938C117.394 37.5173 118.864 36.4195 120.018 34.9021C120.094 34.8006 119.977 34.6484 119.895 34.7452C118.692 36.1797 117.327 37.2405 115.766 37.9047C115.676 37.9416 115.712 38.1261 115.807 38.0892V38.0938Z" fill="#7A5C51"/>
<path d="M119.936 34.9251C118.91 36.5809 117.594 37.7801 116.056 38.5135C115.952 38.5642 115.988 38.7626 116.101 38.7349C118.15 38.2137 119.914 36.4564 120.732 33.9565C120.768 33.8412 120.642 33.7443 120.601 33.8596C119.742 36.2304 118.059 38.0154 116.056 38.5135C116.069 38.5873 116.088 38.6611 116.101 38.7349C117.675 38.0523 119.045 36.7377 120.036 35.0266C120.081 34.9528 119.982 34.8513 119.936 34.9251Z" fill="#7A5C51"/>
<path d="M121.361 31.5811C120.61 33.6659 119.615 35.4924 118.385 37.1529C118.321 37.2405 118.403 37.3881 118.489 37.3235C120.357 35.8568 121.75 33.6244 122.41 30.9262L122.225 30.8616C122.012 32.3422 121.401 33.6336 120.474 34.5561C120.379 34.653 120.474 34.8698 120.574 34.7729C121.931 33.4307 122.686 31.3136 122.518 29.1043C122.455 29.1043 122.392 29.1043 122.329 29.1043C122.437 30.4834 122.143 31.8164 121.51 32.9326C121.456 33.0248 121.582 33.1493 121.637 33.0571C122.329 31.9178 122.632 30.548 122.518 29.1043C122.505 28.9475 122.315 28.9429 122.329 29.1043C122.491 31.2029 121.804 33.3062 120.479 34.5607C120.51 34.6345 120.542 34.7037 120.578 34.7775C121.551 33.8274 122.197 32.4852 122.414 30.9354C122.437 30.7786 122.265 30.714 122.229 30.8708C121.6 33.486 120.239 35.7553 118.407 37.1436C118.444 37.199 118.475 37.259 118.511 37.3143C119.773 35.7138 120.773 33.7582 121.465 31.6596C121.492 31.5719 121.397 31.4981 121.365 31.5858L121.361 31.5811Z" fill="#7A5C51"/>
<path d="M108.733 36.7194C109.574 37.1945 110.434 37.6234 111.289 38.0431C111.343 38.0708 111.379 37.9509 111.329 37.9232C110.484 37.4666 109.633 37.01 108.769 36.6087C108.72 36.5856 108.684 36.6917 108.733 36.7194Z" fill="#7A5C51"/>
<path d="M108.322 36.4564C109.398 37.0699 110.497 37.6326 111.592 38.1814C111.655 38.2137 111.705 38.0707 111.637 38.0338C110.556 37.4296 109.466 36.8439 108.367 36.3088C108.304 36.2765 108.254 36.4195 108.322 36.4564Z" fill="#7A5C51"/>
<path d="M109.547 37.8402C110.669 38.1492 111.786 38.4721 112.912 38.7488C112.989 38.7672 113.025 38.6197 112.944 38.592C111.826 38.2599 110.705 37.9785 109.579 37.6787C109.497 37.6557 109.466 37.8171 109.547 37.8356V37.8402Z" fill="#7A5C51"/>
<path d="M110.791 38.1815C111.641 38.3198 112.487 38.4582 113.337 38.5735C113.396 38.5828 113.396 38.4674 113.337 38.4582C112.491 38.3106 111.641 38.1907 110.791 38.0616C110.732 38.0523 110.732 38.1723 110.791 38.1815Z" fill="#7A5C51"/>
<path d="M110.877 38.1953C112.102 38.4167 113.328 38.675 114.563 38.8364C114.621 38.8456 114.635 38.7211 114.576 38.7073C113.355 38.4305 112.125 38.246 110.895 38.0292C110.822 38.0154 110.804 38.1815 110.877 38.1953Z" fill="#7A5C51"/>
<path d="M112.011 38.5043C113.024 38.592 114.051 38.735 115.069 38.7396C115.154 38.7396 115.15 38.5874 115.069 38.5735C114.06 38.4075 113.029 38.3752 112.011 38.2922C111.903 38.283 111.903 38.4951 112.011 38.5043Z" fill="#7A5C51"/>
<path d="M112.628 38.5966C113.564 38.6796 114.545 38.675 115.481 38.6058C115.576 38.6012 115.576 38.4259 115.481 38.4167C114.545 38.3475 113.564 38.3475 112.628 38.4259C112.542 38.4351 112.542 38.5873 112.628 38.5966Z" fill="#7A5C51"/>
<path d="M112.93 38.5966C113.902 38.5366 114.947 38.4813 115.906 38.223C115.992 38.1999 115.974 38.0293 115.888 38.0293C114.911 38.0293 113.884 38.2553 112.921 38.4582C112.857 38.4721 112.871 38.6012 112.934 38.5966H112.93Z" fill="#7A5C51"/>
<path d="M114.183 38.7949C114.897 38.5966 115.607 38.3752 116.313 38.1354C116.421 38.0985 116.376 37.8955 116.268 37.9232C115.838 38.0385 115.408 38.1353 114.979 38.2138C114.888 38.2322 114.906 38.4305 115.001 38.4213C115.603 38.3475 116.204 38.2645 116.806 38.1861C116.928 38.1722 116.932 37.9232 116.806 37.937C116.254 37.9831 115.707 38.0293 115.155 38.0754C115.074 38.08 115.01 38.2184 115.083 38.2968C115.422 38.6704 115.811 38.7765 116.236 38.5827C116.363 38.5274 116.313 38.2737 116.182 38.3198C115.861 38.4305 115.54 38.5458 115.218 38.6565C115.128 38.6888 115.11 38.8549 115.191 38.9102C115.53 39.1501 115.874 39.0947 116.155 38.758C116.245 38.6519 116.146 38.4997 116.046 38.5182C115.779 38.5689 115.512 38.615 115.25 38.6658C115.155 38.6842 115.173 38.8918 115.273 38.8826C115.54 38.8549 115.811 38.8272 116.078 38.7995C116.051 38.7165 116.023 38.6335 116.001 38.5551C115.797 38.8088 115.567 38.8503 115.304 38.6704C115.295 38.7534 115.286 38.841 115.277 38.9241C115.598 38.8088 115.919 38.6934 116.241 38.5781C116.222 38.4905 116.204 38.4029 116.186 38.3152C115.838 38.4767 115.526 38.4259 115.232 38.1031C115.209 38.1769 115.182 38.2507 115.16 38.3245C115.711 38.2737 116.259 38.2276 116.81 38.1769C116.81 38.0938 116.81 38.0108 116.81 37.9278C116.209 38.02 115.607 38.1077 115.006 38.1999L115.028 38.4075C115.458 38.2968 115.888 38.1999 116.322 38.1261C116.308 38.0569 116.29 37.9831 116.277 37.914C115.567 38.1215 114.852 38.3475 114.151 38.592C114.056 38.6243 114.092 38.8134 114.192 38.7857L114.183 38.7949Z" fill="#7A5C51"/>
<path d="M110.497 39.1178C110.23 39.0394 109.968 38.9656 109.705 38.8687C109.692 38.9287 109.678 38.9886 109.669 39.044C111.121 39.436 112.613 39.4038 114.061 38.9979C114.169 38.9702 114.137 38.7719 114.038 38.7626C113.02 38.6612 111.998 38.5781 110.981 38.4813C110.858 38.4721 110.845 38.6981 110.953 38.7442C112.089 39.2423 113.283 39.3945 114.472 39.2377C114.572 39.2239 114.644 39.0302 114.531 38.961C113.744 38.4905 112.885 38.532 112.129 39.0901C112.034 39.1593 112.071 39.3715 112.188 39.3669C113.133 39.3069 114.079 39.2469 115.024 39.187C115.178 39.1777 115.178 38.8872 115.024 38.8826C114.21 38.8364 113.396 38.7857 112.577 38.735C112.464 38.7257 112.423 38.9379 112.518 39.0025C113.35 39.5836 114.273 39.7082 115.178 39.3484C115.304 39.2977 115.277 39.0763 115.15 39.0624C114.269 38.9656 113.387 38.8733 112.505 38.7765C112.378 38.7626 112.365 39.0025 112.478 39.0532C113.635 39.5698 114.988 39.4222 115.987 38.4628C116.082 38.3752 116.001 38.1769 115.892 38.2553C114.843 39.0394 113.699 39.2977 112.532 38.7811C112.523 38.8733 112.514 38.9656 112.505 39.0578C113.387 39.1547 114.269 39.2562 115.15 39.3576C115.141 39.2608 115.132 39.1685 115.123 39.0717C114.278 39.4084 113.414 39.3023 112.631 38.758C112.613 38.8457 112.595 38.9379 112.573 39.0255C113.387 39.0809 114.201 39.1316 115.019 39.1916C115.019 39.0901 115.019 38.9886 115.019 38.8872C114.074 38.9517 113.129 39.0163 112.184 39.0763L112.242 39.353C112.925 38.8503 113.699 38.7995 114.413 39.2239C114.431 39.1316 114.454 39.0394 114.472 38.9471C113.287 39.1039 112.143 38.9333 111.003 38.4905L110.976 38.7534C111.994 38.8364 113.016 38.9287 114.033 39.0071C114.024 38.9287 114.02 38.8503 114.011 38.7719C112.582 39.1593 111.143 39.1731 109.705 38.8687C109.606 38.8457 109.583 39.0348 109.687 39.0486C109.954 39.0901 110.212 39.1593 110.479 39.2193C110.528 39.2331 110.551 39.1316 110.501 39.1178H110.497Z" fill="#7A5C51"/>
<path d="M112.207 38.9656C113.916 39.4915 115.735 39.247 117.277 38.1308C117.354 38.0755 117.286 37.9325 117.209 37.9832C115.649 38.9518 113.944 39.2793 112.248 38.7812C112.153 38.7535 112.112 38.938 112.207 38.9656Z" fill="#7A5C51"/>
<path d="M115.336 38.5089C116.073 38.1722 116.815 37.8309 117.548 37.4758C117.629 37.4343 117.597 37.2682 117.511 37.3051C116.77 37.6234 116.028 37.9601 115.291 38.2968C115.187 38.3429 115.232 38.5551 115.336 38.5089Z" fill="#7A5C51"/>
<path d="M122.021 30.0176C122.547 28.1358 122.742 26.1755 122.561 24.1876C122.552 24.0769 122.415 24.0723 122.425 24.1876C122.556 26.1478 122.397 28.1127 121.903 29.9807C121.876 30.0776 121.994 30.1191 122.021 30.0222V30.0176Z" fill="#7A5C51"/>
<path d="M56.8045 23.2878C54.2356 11.0927 44.5752 1.96948 32.5088 0.318252C31.749 0.212168 30.9892 0.106084 30.2249 0H27.4027C25.6615 0.276741 23.8977 0.442786 22.1836 0.853285C10.6011 3.60686 1.87238 13.4496 0.312063 25.451C0.208042 26.2258 0.104021 27.0053 0 27.7802C0 38.9606 0 50.1363 0 61.3166C0.212564 62.7326 0.357289 64.1578 0.646739 65.5554C3.15681 77.7643 12.7358 86.9429 24.7751 88.7094C39.8491 90.9233 54.3487 80.2319 56.9673 64.9788C57.1572 63.8765 57.302 62.7603 57.4648 61.6533V27.2729C57.2477 25.9445 57.0849 24.6023 56.809 23.2878H56.8045ZM4.52265 33.9377H4.53169C4.54074 32.8769 4.56335 30.746 4.56335 30.5891C4.5724 30.1463 4.58144 29.7036 4.59501 29.2608C4.6131 28.7673 4.68546 28.306 4.74878 27.8171C4.79401 27.4435 4.8528 27.0699 4.9116 26.7009C5.24175 24.7361 5.77994 22.8127 6.52166 20.9678C7.24076 19.1782 8.15434 17.467 9.23525 15.8757C10.2981 14.3167 11.5282 12.8731 12.9031 11.5908C14.2599 10.3224 15.7614 9.20626 17.367 8.27918C18.977 7.35209 20.6911 6.62334 22.4685 6.11137C24.2776 5.59479 26.15 5.29959 28.0269 5.25808C28.0856 5.25808 28.149 5.25808 28.2078 5.25808C28.3389 5.25808 28.4655 5.25347 28.5967 5.25347C40.2154 5.25808 49.9346 14.2337 52.1868 26.1244C52.2049 26.1244 52.2728 26.5994 52.2818 26.6456C52.3677 27.1622 52.4446 27.6787 52.5034 28.1999C52.5396 28.5274 52.5622 28.8503 52.5713 29.1778C52.5306 29.2285 52.4672 29.2377 52.3723 29.1593C51.8974 28.1676 50.9069 27.4712 49.7582 27.4712H49.713C48.519 27.4712 47.4878 28.2138 47.0355 29.27C46.8999 29.4038 46.823 29.3622 46.7823 29.2838C45.828 19.1274 38.0445 11.1757 28.6058 11.1665H28.5877C27.7962 11.1665 27.0047 11.2219 26.2223 11.3326C24.4268 11.5908 22.6766 12.1443 21.0484 12.9607C19.4293 13.7725 17.9368 14.8426 16.6207 16.1017C15.282 17.384 14.1242 18.8645 13.188 20.4789C12.2202 22.1439 11.483 23.9473 10.9991 25.82C10.479 27.8171 10.2935 29.8465 10.2935 31.9083V34.1591V36.9403C10.2664 37.028 10.2076 37.1018 10.1036 37.0464C9.63776 36.0317 8.63374 35.3214 7.46689 35.3214H7.42167C6.27291 35.3214 5.28698 36.0086 4.80758 36.9957C4.59953 37.1802 4.53622 36.9496 4.52265 36.8389V33.9331V33.9377ZM26.7515 63.549C26.0052 63.8488 25.2771 64.1901 24.5896 64.6052C24.16 64.8635 23.7575 65.1818 23.4318 65.5646C23.3595 65.6522 23.2148 65.6153 23.1876 65.5C22.9298 64.2962 22.9027 63.0463 23.1741 61.8471C23.4997 60.4218 24.2685 59.0843 25.4037 58.1848C26.4032 57.3961 27.6289 56.981 28.8409 56.612C30.053 56.243 31.2877 55.9017 32.3686 55.2376C33.3229 54.6472 34.155 53.7478 34.4671 52.6685C34.5033 52.5393 34.6797 52.5255 34.7294 52.65C35.7606 55.2191 36.24 58.0695 35.6294 60.7678C34.9872 63.609 32.9837 66.2196 30.243 67.059C29.1801 67.3865 28.0585 67.4418 26.955 67.5664C25.8515 67.6955 24.7253 67.9077 23.7801 68.4981C23.165 68.8855 22.6359 69.4667 22.3555 70.1401C22.2921 70.2923 22.066 70.2415 22.0841 70.0709C22.2017 68.8255 22.8439 67.6171 23.7077 66.6992C24.8474 65.4862 26.3263 64.679 27.7781 63.8811C29.2299 63.0832 30.6997 62.2529 31.8078 61.0076C32.9339 59.7392 33.6123 58.0926 33.8204 56.3953C32.7892 59.7715 31.6585 61.5703 26.7605 63.5352L26.7515 63.549ZM25.7972 41.0868V20.239C25.7972 18.4079 27.1088 16.9227 28.7324 16.9227C30.356 16.9227 31.6676 18.4079 31.6676 20.239V41.0868C31.6676 42.918 30.356 44.4031 28.7324 44.4031C27.1088 44.4031 25.7972 42.918 25.7972 41.0868ZM35.6656 45.404V25.082C35.6656 23.297 36.9772 21.8487 38.6008 21.8487C40.2244 21.8487 41.536 23.297 41.536 25.082V45.4086C41.536 47.1936 40.2244 48.6419 38.6008 48.6419C36.9772 48.6419 35.6656 47.1936 35.6656 45.4086V45.404ZM21.573 25.0774V45.404C21.573 47.189 20.2615 48.6373 18.6378 48.6373C17.0142 48.6373 15.7026 47.189 15.7026 45.404V25.082C15.7026 23.297 17.0142 21.8487 18.6378 21.8487C20.2615 21.8487 21.573 23.297 21.573 25.082V25.0774ZM52.6889 57.4146C52.6889 71.8282 41.8797 83.5528 28.5922 83.5528C15.3046 83.5528 4.49099 71.8236 4.49099 57.4146C4.49099 57.4146 4.50456 51.8659 4.5136 48.4574C4.5136 48.4251 4.5136 48.3928 4.5136 48.3605V44.9566C4.5136 43.3331 5.80708 42.0139 7.39905 42.0139C8.99102 42.0139 10.2845 43.3331 10.2845 44.9566V57.4146C10.2845 68.5626 18.4931 77.6351 28.5831 77.6351C38.6732 77.6351 46.8818 68.5626 46.8818 57.4146V45.0304V37.1018C46.8818 36.8204 46.9225 36.5529 46.9994 36.2992C47.3295 35.1554 48.3516 34.3021 49.5818 34.2144C49.6496 34.2144 49.7175 34.2052 49.7853 34.2052C49.8532 34.2052 49.9165 34.2052 49.9798 34.2144C51.219 34.2975 52.2456 35.1554 52.5758 36.3085C52.621 36.4653 52.6572 36.6313 52.6708 36.7974V57.4146H52.6889Z" fill="#7A5C51"/>
</g>
<defs>
<clipPath id="clip0_2287_9">
<rect width="192" height="89" fill="white"/>
</clipPath>
</defs>
</svg>
