<svg width="32" height="32" viewBox="0 0 32 32" fill="none" xmlns="http://www.w3.org/2000/svg">
<path d="M27.3017 0C26.9497 0 26.6617 0.28797 26.6617 0.639949V15.6414C26.6617 15.9935 26.9497 16.2815 27.3017 16.2815H29.868C30.22 16.2815 30.508 15.9935 30.508 15.6414V0.639949C30.508 0.287901 30.22 0 29.868 0H27.3017Z" fill="white"/>
<path d="M11.2573 10.739C10.9053 10.739 10.6173 11.027 10.6173 11.3791V15.6414C10.6173 15.9935 10.9053 16.2814 11.2573 16.2814H13.8236C14.1756 16.2814 14.4636 15.9935 14.4636 15.6414V11.3791C14.4636 11.027 14.1756 10.739 13.8236 10.739H11.2573Z" fill="white"/>
<path d="M19.1741 6.8737H16.6077C16.2557 6.8737 15.9677 7.15525 15.9677 7.51372V15.6416C15.9677 15.9937 16.2557 16.2817 16.6077 16.2817H19.1741C19.5261 16.2817 19.814 15.9937 19.814 15.6416V7.51372C19.814 7.15532 19.5261 6.8737 19.1741 6.8737Z" fill="white"/>
<path d="M12.8317 25.6576C14.9948 25.6576 17.0812 25.1072 18.9179 24.1216L25.721 30.9248C26.4185 31.616 27.3401 32 28.3257 32C29.2985 32 30.2264 31.616 30.9305 30.9184C32.3576 29.4848 32.3576 27.1489 30.924 25.7153L24.121 18.9121C24.281 18.6305 24.4218 18.3425 24.5561 18.0417C24.697 17.7153 24.5498 17.3377 24.2298 17.1969C23.9098 17.0497 23.5258 17.1969 23.385 17.5233C21.5291 21.6832 17.3884 24.3777 12.8317 24.3777C6.46383 24.3777 1.28001 19.1937 1.28001 12.8257C1.28001 6.45778 6.46383 1.28011 12.8317 1.28011C15.0652 1.28011 17.2348 1.92013 19.1035 3.12967C19.3979 3.3217 19.7947 3.23845 19.9867 2.94413C20.1787 2.64333 20.0955 2.24652 19.8011 2.05456C17.7211 0.710517 15.3148 7.62954e-05 12.8317 7.62954e-05C5.75989 7.62954e-05 0 5.75375 0 12.8257C0 19.8976 5.75989 25.6576 12.8317 25.6576Z" fill="white"/>
<path d="M21.9515 4.04475C21.5995 4.04475 21.3116 4.33272 21.3116 4.68477V15.6415C21.3116 15.9935 21.5995 16.2815 21.9515 16.2815H24.5178C24.8762 16.2815 25.1578 15.9935 25.1578 15.6415V4.6847C25.1578 4.33265 24.8763 4.04468 24.5178 4.04468L21.9515 4.04475Z" fill="white"/>
</svg>
