<svg width="29" height="33" viewBox="0 0 29 33" fill="none" xmlns="http://www.w3.org/2000/svg">
<g clip-path="url(#clip0_2437_247)">
<path d="M4.23997 15.9L4.21997 14.74L2.12997 13.97C0.0399727 13.19 0.809973 11.96 0.809973 11.96L3.51997 5.53001C3.51997 5.53001 4.75997 3.90001 6.53997 3.44001C8.31997 2.97001 8.47997 1.04001 9.47997 0.73001C10.48 0.42001 11.73 0.26001 11.73 0.26001H13.21C13.21 0.26001 14.45 0.42001 15.46 0.73001C16.47 1.04001 16.62 2.98001 18.4 3.44001C20.18 3.90001 21.42 5.53001 21.42 5.53001L24.13 11.96C24.13 11.96 24.9 13.2 22.81 13.97L20.72 14.74L20.57 25.82C20.57 25.82 19.33 28.3 13.21 28.45H11.73C5.60997 28.3 4.36997 25.82 4.36997 25.82L4.32997 23.34L4.22997 15.9H4.23997Z" fill="#F5F6F8"/>
<path d="M4.49002 15.9C4.49002 15.51 4.48002 15.13 4.47002 14.74C4.47002 14.62 4.39002 14.54 4.29002 14.5C3.94002 14.37 3.59002 14.24 3.23002 14.11C2.51002 13.84 0.780022 13.47 0.930022 12.38C0.960022 12.15 1.08002 11.96 1.19002 11.7L1.97002 9.85C2.54002 8.49 3.12002 7.13 3.69002 5.76C3.71002 5.71 3.74002 5.66 3.75002 5.61C3.76002 5.55 3.64002 5.74 3.75002 5.63C4.01002 5.37 4.24002 5.09 4.51002 4.85C4.97002 4.44 5.50002 4.09 6.07002 3.85C6.62002 3.62 7.17002 3.53 7.65002 3.14C8.03002 2.83 8.32002 2.44 8.59002 2.03C8.81002 1.7 9.01002 1.29 9.35002 1.06C9.55002 0.92 9.82002 0.88 10.05 0.82C10.4 0.73 10.74 0.66 11.09 0.6C11.39 0.55 11.63 0.5 11.91 0.5C12.62 0.5 13.24 0.5 13.92 0.61C14.24 0.67 14.56 0.73 14.88 0.81C15.13 0.87 15.41 0.92 15.62 1.08C15.95 1.33 16.15 1.74 16.37 2.08C16.63 2.48 16.92 2.86 17.3 3.16C17.8 3.55 18.39 3.64 18.96 3.89C19.5 4.13 20 4.48 20.44 4.87C20.71 5.11 20.93 5.4 21.19 5.64C21.29 5.73 21.16 5.52 21.17 5.6C21.18 5.65 21.22 5.71 21.24 5.76C21.34 5.99 21.43 6.22 21.53 6.45C21.84 7.19 22.15 7.93 22.47 8.67C22.94 9.78 23.38 10.9 23.87 12C23.93 12.15 23.97 12.17 23.99 12.36C24.04 12.72 23.83 13.03 23.56 13.25C23.03 13.68 22.31 13.85 21.68 14.09L20.75 14.44L20.63 14.49C20.52 14.53 20.45 14.61 20.45 14.73L20.35 22.29C20.33 23.42 20.32 24.55 20.3 25.68C20.3 25.91 20.3 25.68 20.33 25.69C20.32 25.69 20.24 25.84 20.23 25.85C20.2 25.9 20.06 26.06 19.96 26.16C19.8 26.32 19.62 26.47 19.43 26.6C17.83 27.74 15.73 28.07 13.81 28.17C11.84 28.27 9.79002 28.21 7.89002 27.68C6.74002 27.36 5.49002 26.85 4.72002 25.89C4.71002 25.87 4.69002 25.86 4.65002 25.8C4.63002 25.78 4.62002 25.73 4.59002 25.71C4.48002 25.62 4.92002 25.87 4.61002 25.81C4.61002 25.81 4.61002 25.58 4.61002 25.57C4.61002 24.85 4.59002 24.14 4.58002 23.42C4.55002 21 4.51002 18.57 4.48002 16.15C4.48002 16.06 4.48002 15.98 4.48002 15.89C4.48002 15.57 3.97002 15.57 3.98002 15.89C4.01002 18.35 4.05002 20.81 4.08002 23.27C4.08002 23.78 4.09002 24.3 4.10002 24.81C4.10002 25.12 4.09002 25.44 4.11002 25.75C4.11002 25.84 4.13002 25.91 4.18002 25.98C4.65002 26.79 5.62002 27.34 6.45002 27.69C8.40002 28.53 10.55 28.68 12.65 28.68C14.75 28.68 16.9 28.46 18.79 27.55C19.33 27.29 19.85 26.96 20.28 26.54C20.46 26.37 20.66 26.17 20.77 25.94C20.85 25.76 20.82 25.52 20.82 25.33C20.82 24.77 20.84 24.21 20.84 23.65C20.88 20.74 20.92 17.83 20.96 14.92C20.96 14.85 20.96 14.79 20.96 14.72C20.9 14.8 20.84 14.88 20.78 14.96C21.21 14.8 21.64 14.64 22.07 14.48C22.99 14.14 24.44 13.75 24.51 12.54C24.52 12.3 24.47 12.06 24.36 11.85C24.31 11.75 24.37 11.89 24.36 11.85C24.33 11.8 24.31 11.74 24.29 11.68C24.04 11.08 23.78 10.48 23.53 9.88C22.93 8.45 22.33 7.02 21.72 5.59C21.53 5.15 21.15 4.81 20.8 4.49C20.35 4.09 19.85 3.73 19.3 3.47C18.72 3.19 18.05 3.12 17.55 2.69C17.17 2.37 16.9 1.95 16.63 1.53C16.4 1.18 16.16 0.79 15.79 0.57C15.55 0.43 15.27 0.37 15.01 0.31C14.65 0.22 14.29 0.15 13.93 0.09C13.65 0.06 13.36 0 13.07 0C12.35 0 11.67 0 10.96 0.12C10.61 0.18 10.26 0.25 9.92002 0.34C9.64002 0.41 9.34002 0.47 9.10002 0.63C8.75002 0.86 8.51002 1.25 8.28002 1.59C8.01002 2.01 7.73002 2.45 7.33002 2.76C6.81002 3.17 6.13002 3.25 5.55002 3.53C4.74002 3.93 3.90002 4.57 3.37002 5.31C3.16002 5.6 3.05002 6 2.92002 6.32C2.59002 7.1 2.26002 7.88 1.93002 8.66C1.60002 9.44 1.27002 10.22 0.940022 11C0.840022 11.24 0.740022 11.48 0.640022 11.71C0.620022 11.76 0.600022 11.81 0.580022 11.86C0.560022 11.89 0.620022 11.76 0.570022 11.87C0.250022 12.52 0.510022 13.22 1.06002 13.66C1.60002 14.09 2.30002 14.28 2.95002 14.52C3.31002 14.65 3.66002 14.78 4.02002 14.92C4.07002 14.94 4.11002 14.95 4.16002 14.97C4.10002 14.89 4.04002 14.81 3.98002 14.73C3.98002 15.12 3.99002 15.51 4.00002 15.89C4.00002 16.21 4.50002 16.21 4.50002 15.89" fill="#3F5E3E"/>
<path d="M12.53 26.5899C12.53 22.8399 12.38 19.0899 12.37 15.3399C12.37 13.4999 12.28 11.6699 12.25 9.83994C12.24 9.05995 12.22 8.04994 12.75 7.40994C12.94 7.17994 13.19 6.99994 13.41 6.79994C13.72 6.52994 13.99 6.22994 14.24 5.90994C14.77 5.24994 15.3 4.52994 15.49 3.68994C15.67 2.87995 15.58 2.04994 15.24 1.28994C15.11 0.999945 14.68 1.24994 14.81 1.53994C15.13 2.25994 15.17 3.07994 14.93 3.82994C14.69 4.57994 14.15 5.25994 13.64 5.83994C13.21 6.32994 12.6 6.69994 12.24 7.24994C11.82 7.87994 11.76 8.74994 11.75 9.47994C11.75 10.3399 11.81 11.2099 11.84 12.0699C11.86 13.0099 11.87 13.9499 11.88 14.8899C11.88 16.6899 11.88 18.4899 11.94 20.2999C12 22.3899 12.04 24.4799 12.04 26.5699C12.04 26.8899 12.54 26.8899 12.54 26.5699" fill="#3F5E3E"/>
<path d="M1.41002 11.35C1.95002 11.97 2.65002 12.43 3.42002 12.7C3.63002 12.78 3.85002 12.83 4.07002 12.87C4.20003 12.89 4.35002 12.83 4.38002 12.7C4.41002 12.58 4.34002 12.42 4.21002 12.39C4.02002 12.35 3.83002 12.31 3.65002 12.25C3.56002 12.22 3.47002 12.19 3.38002 12.15C3.36002 12.15 3.34002 12.13 3.31002 12.12C3.28002 12.11 3.31002 12.12 3.32002 12.12C3.31002 12.12 3.29002 12.11 3.28002 12.1C3.24002 12.08 3.19002 12.06 3.15003 12.04C2.98003 11.96 2.81002 11.86 2.65003 11.76C2.57002 11.71 2.49003 11.65 2.41003 11.6C2.39003 11.59 2.37002 11.57 2.35002 11.56C2.34002 11.56 2.33002 11.54 2.32002 11.53C2.28002 11.5 2.25002 11.47 2.21002 11.44C2.04002 11.3 1.89002 11.14 1.74002 10.98C1.65002 10.88 1.47002 10.89 1.39002 10.98C1.29002 11.09 1.30002 11.23 1.39002 11.33" fill="#3F5E3E"/>
<path d="M4.46997 14.58V8.68995C4.46997 8.36995 3.96997 8.36995 3.96997 8.68995V14.58C3.96997 14.9 4.46997 14.9 4.46997 14.58Z" fill="#3F5E3E"/>
<path d="M20.97 15.2V8.62C20.97 8.3 20.47 8.3 20.47 8.62V15.2C20.47 15.52 20.97 15.52 20.97 15.2Z" fill="#3F5E3E"/>
<path d="M20.95 12.9C21.72 12.65 22.43 12.25 23.04 11.72C23.21 11.57 23.37 11.42 23.52 11.25C23.61 11.15 23.62 10.99 23.52 10.9C23.42 10.81 23.26 10.8 23.17 10.9C23.04 11.04 22.91 11.17 22.77 11.3C22.7 11.36 22.63 11.42 22.55 11.48C22.53 11.5 22.51 11.51 22.49 11.52C22.48 11.52 22.42 11.57 22.47 11.54C22.43 11.57 22.39 11.6 22.36 11.62C22.05 11.84 21.73 12.04 21.38 12.19C21.33 12.21 21.28 12.23 21.23 12.26C21.28 12.24 21.21 12.26 21.2 12.27C21.17 12.28 21.15 12.29 21.12 12.3C21.02 12.34 20.92 12.37 20.81 12.41C20.69 12.45 20.59 12.59 20.64 12.72C20.68 12.84 20.81 12.94 20.95 12.89" fill="#3F5E3E"/>
<path d="M9.47002 1.29997C8.93002 2.07997 8.93002 3.08997 9.23002 3.96997C9.55002 4.91997 10.21 5.68997 10.91 6.38997C11.32 6.79997 11.75 7.19997 12.14 7.62997C12.36 7.86997 12.71 7.50997 12.49 7.27997C11.31 5.99997 9.56002 4.77997 9.53002 2.85997C9.53002 2.38997 9.64002 1.94997 9.90002 1.55997C10.08 1.28997 9.65002 1.03997 9.47002 1.30997" fill="#3F5E3E"/>
<path d="M13.19 8.48C13.99 9.22 15.28 9.51 16.21 8.82C17.25 8.04 17.38 6.69 17.46 5.49C17.51 4.7 17.57 3.91 17.62 3.12C17.64 2.8 17.14 2.8 17.12 3.12C17.08 3.76 17.03 4.4 16.99 5.04C16.95 5.64001 16.93 6.25001 16.81 6.83C16.61 7.77 16.02 8.73001 14.95 8.72001C14.43 8.72001 13.92 8.48 13.54 8.13C13.3 7.91001 12.95 8.26 13.19 8.48Z" fill="#3F5E3E"/>
<path d="M10.91 7.99001C10.25 8.58001 9.15999 8.81001 8.43999 8.20001C7.58999 7.48001 7.54999 6.29001 7.47999 5.27001C7.42999 4.56001 7.37999 3.84001 7.32999 3.13001C7.30999 2.81001 6.80999 2.81001 6.82999 3.13001C6.87999 3.83001 6.92999 4.52001 6.96999 5.22001C7.01999 5.87001 7.03999 6.53001 7.21999 7.16001C7.36999 7.69001 7.64999 8.20001 8.06999 8.56001C8.48999 8.92001 9.02999 9.10001 9.57999 9.07001C10.2 9.03001 10.79 8.77001 11.25 8.36001C11.49 8.14001 11.14 7.79001 10.9 8.01001" fill="#3F5E3E"/>
<path d="M19.42 30.19C19.5 29.7 19.56 29.2 19.61 28.73C19.66 28.04 19.75 27.35 19.81 26.67C19.87 26.05 19.81 25.32 19.97 24.72C20.32 25.89 20.41 27.23 20.61 28.44C20.79 29.5 20.86 30.49 21.22 31.5C21.3 31.73 21.39 31.96 21.58 32.11C21.87 32.35 22.28 32.32 22.65 32.27C24.3 32.06 25.93 31.77 27.55 31.4C27.78 31.35 28.05 31.26 28.13 31.04C28.25 30.69 28.04 30.07 27.97 29.72C27.86 29.17 27.76 28.62 27.68 28.06C27.53 27.01 27.41 25.95 27.29 24.9C27.17 23.89 27.04 22.89 26.89 21.89C26.81 21.38 26.85 20.5 26.57 20.06C26.37 19.74 26.57 19.3 26.47 18.92C26.34 18.44 26.27 17.78 25.77 17.61C25.26 17.43 24.65 17.61 24.13 17.67C23.39 17.75 22.65 17.79 21.91 17.87C20.53 18.02 19.13 18 17.75 17.82C16.74 17.69 15.81 17.23 14.79 17.53C13.72 17.84 13.93 19.15 13.69 20.04C13.81 20.12 13.88 20.26 13.91 20.4C13.97 20.71 13.78 21.06 13.71 21.36C13.63 21.73 13.57 22.12 13.51 22.49C13.25 23.99 13 25.49 12.77 26.99C12.55 28.45 12.18 29.87 11.88 31.32C11.82 31.61 15.36 32.37 15.71 32.43C16.38 32.54 17.06 32.6 17.74 32.62C18.16 32.64 18.62 32.73 18.81 32.29C19.09 31.64 19.27 30.92 19.4 30.19" fill="#F5F6F8"/>
<path d="M19.66 30.26C19.81 29.35 19.88 28.43 19.98 27.52C20.03 27.06 20.08 26.6 20.1 26.13C20.11 25.68 20.12 25.23 20.22 24.79H19.74C19.96 25.55 20.08 26.34 20.18 27.12C20.28 27.89 20.41 28.66 20.52 29.43C20.63 30.2 20.75 30.97 21.04 31.69C21.28 32.3 21.72 32.59 22.38 32.55C23.18 32.51 23.98 32.34 24.77 32.21C25.61 32.07 26.44 31.91 27.27 31.73C27.82 31.61 28.4 31.49 28.42 30.82C28.43 30.53 28.36 30.24 28.29 29.96C28.2 29.58 28.13 29.21 28.06 28.83C27.77 27.15 27.63 25.45 27.41 23.76C27.31 23.01 27.17 22.27 27.11 21.52C27.09 21.24 27.07 20.95 27.03 20.67C27.01 20.53 26.98 20.4 26.94 20.26C26.89 20.11 26.79 19.98 26.75 19.83C26.67 19.52 26.79 19.18 26.72 18.86C26.66 18.59 26.6 18.31 26.49 18.05C26.26 17.47 25.78 17.26 25.17 17.29C24.82 17.3 24.48 17.38 24.14 17.42C23.69 17.47 23.24 17.5 22.79 17.54C21.93 17.61 21.08 17.71 20.22 17.72C19.28 17.72 18.32 17.69 17.4 17.51C16.6 17.34 15.8 17.09 14.97 17.25C14.38 17.36 13.97 17.71 13.77 18.28C13.58 18.83 13.61 19.43 13.47 19.99C13.45 20.07 13.47 20.18 13.53 20.23C13.87 20.52 13.53 21.06 13.46 21.41C13.36 21.87 13.3 22.33 13.22 22.79C13.05 23.76 12.89 24.74 12.73 25.71C12.58 26.67 12.43 27.62 12.23 28.57C12.13 29.04 12.03 29.5 11.92 29.97C11.88 30.16 11.83 30.36 11.79 30.55C11.74 30.78 11.62 31.08 11.63 31.32C11.64 31.62 11.99 31.72 12.22 31.81C12.65 31.97 13.1 32.09 13.55 32.2C14.38 32.41 15.22 32.62 16.07 32.73C16.59 32.8 17.1 32.84 17.63 32.87C17.97 32.88 18.38 32.96 18.7 32.79C19.04 32.61 19.15 32.18 19.26 31.84C19.43 31.33 19.55 30.8 19.65 30.27C19.71 29.96 19.22 29.82 19.17 30.14C19.1 30.56 19.01 30.97 18.89 31.38C18.8 31.7 18.7 32.34 18.31 32.39C18 32.43 17.65 32.37 17.34 32.36C16.86 32.33 16.39 32.28 15.91 32.21C15.16 32.1 14.42 31.9 13.69 31.72C13.27 31.61 12.86 31.5 12.45 31.36C12.34 31.32 12.22 31.24 12.11 31.21C12.03 31.19 12.17 31.27 12.16 31.27C12.22 31.25 12.32 30.54 12.34 30.45C12.72 28.72 13.03 26.98 13.32 25.23C13.48 24.22 13.66 23.22 13.83 22.22C13.91 21.75 14.04 21.31 14.15 20.86C14.23 20.5 14.19 20.13 13.89 19.87C13.91 19.95 13.93 20.03 13.95 20.11C14.14 19.34 13.95 18.02 14.93 17.76C15.64 17.57 16.35 17.78 17.04 17.94C17.74 18.1 18.46 18.16 19.17 18.2C20.71 18.28 22.24 18.1 23.77 17.96C24.07 17.93 24.36 17.89 24.66 17.85C24.98 17.8 25.4 17.71 25.71 17.85C25.95 17.96 26.03 18.22 26.1 18.45C26.18 18.73 26.27 19.03 26.26 19.32C26.25 19.59 26.21 19.85 26.32 20.11C26.42 20.34 26.51 20.54 26.55 20.8C26.64 21.38 26.67 21.98 26.75 22.56C26.96 24.07 27.12 25.58 27.31 27.09C27.4 27.81 27.5 28.54 27.63 29.26C27.68 29.56 27.74 29.85 27.81 30.14C27.86 30.36 28.01 30.78 27.88 30.99C27.75 31.2 27.23 31.23 27.01 31.27C26.61 31.35 26.22 31.44 25.82 31.51C25.1 31.65 24.39 31.77 23.67 31.88C23.24 31.95 22.8 32.03 22.37 32.05C21.99 32.07 21.7 31.99 21.54 31.63C21.21 30.91 21.11 30.08 21 29.3C20.89 28.52 20.76 27.73 20.65 26.95C20.55 26.18 20.43 25.41 20.21 24.66C20.14 24.43 19.79 24.41 19.73 24.66C19.53 25.51 19.59 26.41 19.5 27.28C19.4 28.23 19.33 29.19 19.18 30.13C19.13 30.45 19.61 30.58 19.66 30.26Z" fill="#3F5E3E"/>
<path d="M21.03 30.9301C22.1 31.3001 23.28 30.9601 24.36 30.8101C25.55 30.6501 26.72 30.3401 27.91 30.1101C28.23 30.0501 28.09 29.5701 27.78 29.6301C26.64 29.8501 25.51 30.1401 24.36 30.3101C23.83 30.3901 23.3 30.4801 22.76 30.5401C22.22 30.6101 21.68 30.6201 21.16 30.4401C20.85 30.3401 20.72 30.8201 21.03 30.9201" fill="#3F5E3E"/>
<path d="M12.41 30.11C14.43 30.82 16.56 31.18 18.7 31.2C19.02 31.2 19.02 30.7 18.7 30.7C16.6 30.68 14.53 30.32 12.55 29.63C12.25 29.52 12.11 30.01 12.42 30.11" fill="#3F5E3E"/>
<path d="M2.28001 16.7599C4.53001 16.7899 6.77001 16.8199 9.02001 16.8399C9.37001 16.8399 9.71001 16.8399 10.04 16.9499C11.15 17.2999 11.65 18.6299 11.58 19.7899C11.56 20.1499 11.49 20.5199 11.3 20.8299C11.14 21.0899 10.89 21.2899 10.62 21.4299C9.59001 21.9999 8.19001 21.7799 7.38001 20.9299C6.98001 20.5099 6.60001 19.8999 6.02001 19.9599C5.51001 20.0099 5.23001 20.5599 4.91001 20.9599C4.14001 21.9399 2.62001 22.2299 1.54001 21.5999C0.46001 20.9799 -0.0499896 19.5199 0.40001 18.3599C0.85001 17.1999 2.22001 16.4799 3.43001 16.7499" fill="#F5F6F8"/>
<path d="M2.27998 17.0101C3.52998 17.0301 4.77997 17.0401 6.03998 17.0601C6.67998 17.0601 7.32998 17.0801 7.96997 17.0801C8.56997 17.0801 9.23997 17.0201 9.82998 17.1601C10.72 17.3601 11.18 18.2401 11.31 19.0701C11.38 19.5301 11.38 20.0601 11.2 20.5001C11 20.9901 10.5 21.2901 10.01 21.4201C9.07998 21.6701 8.09997 21.3501 7.46997 20.6501C7.18997 20.3301 6.91998 19.9701 6.50998 19.8001C6.12998 19.6401 5.72998 19.7201 5.40998 19.9801C5.07998 20.2501 4.88998 20.6501 4.58998 20.9601C4.27998 21.2801 3.88998 21.4901 3.46998 21.6001C2.60998 21.8301 1.67998 21.5901 1.08998 20.9001C0.459975 20.1501 0.289975 19.0101 0.789975 18.1601C1.29998 17.2901 2.37998 16.8001 3.36998 17.0101C3.67998 17.0801 3.81998 16.5901 3.49998 16.5301C2.52998 16.3301 1.51998 16.6401 0.809975 17.3301C0.0899754 18.0301 -0.160025 19.0501 0.0799754 20.0101C0.319975 20.9601 1.01998 21.7701 1.95998 22.0701C2.88998 22.3601 3.95998 22.1401 4.70998 21.5301C5.10998 21.2101 5.30998 20.7201 5.69998 20.3901C6.15998 20.0001 6.57998 20.4201 6.88998 20.7701C7.24998 21.1701 7.59998 21.5301 8.09998 21.7501C8.54998 21.9501 9.05998 22.0401 9.54998 22.0101C10.09 21.9701 10.62 21.8001 11.05 21.4701C11.5 21.1201 11.73 20.6401 11.8 20.0801C11.92 19.1301 11.7 18.0601 11.04 17.3301C10.64 16.8901 10.11 16.6701 9.52997 16.6201C8.73997 16.5501 7.92998 16.5901 7.12998 16.5801L2.26998 16.5201C1.94998 16.5201 1.94998 17.0201 2.26998 17.0201" fill="#3F5E3E"/>
<path d="M2.27002 19.5499C2.53002 19.7699 2.86002 19.8599 3.20002 19.8799C3.54002 19.8899 3.88002 19.8299 4.19002 19.6899C4.34002 19.6199 4.49002 19.5299 4.60002 19.4099C4.69002 19.3099 4.70002 19.1499 4.60002 19.0599C4.50002 18.9699 4.34002 18.9599 4.25002 19.0599C4.23002 19.0799 4.21002 19.0999 4.19002 19.1199C4.19002 19.1199 4.17002 19.1399 4.16002 19.1499C4.14002 19.1699 4.21002 19.1099 4.18002 19.1299C4.18002 19.1299 4.17002 19.1399 4.16002 19.1499C4.11002 19.1899 4.05002 19.2199 4.00002 19.2499C3.99002 19.2499 3.97002 19.2599 3.96002 19.2699C3.96002 19.2699 3.94002 19.2699 3.93002 19.2799C3.90002 19.2899 3.98002 19.2599 3.96002 19.2699C3.93002 19.2799 3.90002 19.2999 3.86002 19.3099C3.79002 19.3299 3.73002 19.3499 3.66002 19.3599C3.63002 19.3599 3.59002 19.3699 3.55002 19.3799C3.55002 19.3799 3.53002 19.3799 3.52002 19.3799C3.49002 19.3799 3.58002 19.3799 3.55002 19.3799C3.53002 19.3799 3.51002 19.3799 3.49002 19.3799C3.42002 19.3799 3.35002 19.3799 3.27002 19.3799C3.20002 19.3799 3.12002 19.3799 3.05002 19.3699C3.02002 19.3699 3.11002 19.3699 3.08002 19.3699C3.08002 19.3699 3.06002 19.3699 3.05002 19.3699C3.03002 19.3699 3.02002 19.3699 3.00002 19.3699C2.97002 19.3699 2.93002 19.3499 2.90002 19.3399C2.87002 19.3399 2.83002 19.3199 2.80002 19.3099C2.72002 19.2699 2.78002 19.3099 2.80002 19.3099C2.79002 19.3099 2.77002 19.2999 2.75002 19.2899C2.72002 19.2699 2.69002 19.2599 2.66002 19.2399C2.65002 19.2399 2.63002 19.2199 2.62002 19.2099C2.61002 19.1999 2.59002 19.1799 2.65002 19.2299C2.65002 19.2299 2.63002 19.2199 2.63002 19.2099C2.53002 19.1199 2.37002 19.1099 2.28002 19.2099C2.19002 19.2999 2.17002 19.4699 2.28002 19.5599" fill="#3F5E3E"/>
<path d="M8.03003 19.6099C8.36003 19.7599 8.69003 19.9199 9.05003 19.9799C9.38003 20.0299 9.73003 19.9899 10.03 19.8299C10.19 19.7399 10.33 19.5999 10.43 19.4399C10.5 19.3299 10.46 19.1599 10.34 19.0999C10.22 19.0399 10.07 19.0699 10 19.1899C10 19.1999 9.98003 19.2199 9.98003 19.2299C9.98003 19.2299 9.98003 19.2399 9.97003 19.2499C9.96003 19.2699 9.99003 19.2299 9.99003 19.2299C9.97003 19.2499 9.95003 19.2799 9.92003 19.2999C9.90003 19.3199 9.88003 19.3399 9.85003 19.3599C9.85003 19.3599 9.89003 19.3299 9.87003 19.3399C9.87003 19.3399 9.86003 19.3399 9.85003 19.3499C9.84003 19.3599 9.82003 19.3699 9.81003 19.3799C9.78003 19.3999 9.75003 19.4099 9.73003 19.4199C9.72003 19.4199 9.70003 19.4299 9.69003 19.4399C9.69003 19.4399 9.74003 19.4199 9.72003 19.4299C9.72003 19.4299 9.70003 19.4299 9.69003 19.4399C9.63003 19.4599 9.57003 19.4799 9.50003 19.4899C9.49003 19.4899 9.47003 19.4899 9.46003 19.4899C9.43003 19.4899 9.49003 19.4899 9.49003 19.4899C9.49003 19.4899 9.48003 19.4899 9.47003 19.4899C9.44003 19.4899 9.40003 19.4899 9.37003 19.4899C9.34003 19.4899 9.31003 19.4899 9.27003 19.4899C9.25003 19.4899 9.24003 19.4899 9.22003 19.4899C9.21003 19.4899 9.17003 19.4799 9.16003 19.4899C9.16003 19.4899 9.21003 19.4899 9.18003 19.4899C9.18003 19.4899 9.16003 19.4899 9.15003 19.4899C9.13003 19.4899 9.11003 19.4899 9.10003 19.4799C9.06003 19.4799 9.02003 19.4599 8.97003 19.4499C8.90003 19.4299 8.82003 19.4099 8.75003 19.3799C8.71003 19.3599 8.66003 19.3499 8.62003 19.3299C8.62003 19.3299 8.60003 19.3299 8.59003 19.3199C8.56003 19.3099 8.63003 19.3399 8.59003 19.3199C8.57003 19.3199 8.55003 19.2999 8.53003 19.2899C8.45003 19.2499 8.36003 19.2099 8.28003 19.1699C8.16003 19.1099 8.00003 19.1299 7.94003 19.2599C7.88003 19.3699 7.90003 19.5399 8.03003 19.5999" fill="#3F5E3E"/>
<path d="M14.33 20.34C18.28 20.64 22.26 20.56 26.19 20.09C26.51 20.05 26.51 19.55 26.19 19.59C22.26 20.06 18.28 20.14 14.33 19.84C14.01 19.82 14.01 20.32 14.33 20.34Z" fill="#3F5E3E"/>
</g>
<defs>
<clipPath id="clip0_2437_247">
<rect width="28.42" height="32.89" fill="white"/>
</clipPath>
</defs>
</svg>
