<svg width="49" height="49" viewBox="0 0 49 49" fill="none" xmlns="http://www.w3.org/2000/svg">
<path d="M9.80229 0C8.44996 0 7.35316 1.09693 7.35316 2.44943C7.35316 3.80192 8.44996 4.89885 9.80229 4.89885H39.2006C40.5529 4.89885 41.6497 3.80192 41.6497 2.44943C41.6497 1.09693 40.5529 0 39.2006 0H9.80229Z" fill="white"/>
<path d="M4.90115 9.8005C4.90115 8.448 5.99795 7.35107 7.35029 7.35107H41.6468C42.9992 7.35107 44.096 8.448 44.096 9.8005C44.096 11.153 42.9992 12.2499 41.6468 12.2499H7.35316C6.00083 12.2499 4.90402 11.153 4.90402 9.8005H4.90115Z" fill="white"/>
<path fill-rule="evenodd" clip-rule="evenodd" d="M24.5 22.0508C19.0878 22.0508 14.7006 26.4385 14.7006 31.8514C14.7006 37.2642 19.0878 41.6519 24.5 41.6519C29.9122 41.6519 34.2994 37.2642 34.2994 31.8514C34.2994 26.4385 29.9122 22.0508 24.5 22.0508ZM19.6017 31.8514C19.6017 29.1464 21.7953 26.9525 24.5 26.9525C27.2047 26.9525 29.3983 29.1464 29.3983 31.8514C29.3983 34.5563 27.2047 36.7502 24.5 36.7502C21.7953 36.7502 19.6017 34.5563 19.6017 31.8514Z" fill="white"/>
<path fill-rule="evenodd" clip-rule="evenodd" d="M7.55701 14.6995C3.00328 14.6995 -0.68909 18.6737 0.109105 23.2739L3.51148 42.875C4.1374 46.4817 7.34454 49 10.9594 49H38.0406C41.6554 49 44.8626 46.4817 45.4885 42.875L48.8909 23.2739C49.6891 18.6708 45.9967 14.6995 41.443 14.6995H7.55701ZM4.9356 22.4383C4.69729 21.0657 5.8027 19.6012 7.55701 19.6012H41.443C43.1973 19.6012 44.3027 21.0657 44.0644 22.4383L40.662 42.0394C40.4668 43.1593 39.4159 44.1041 38.0406 44.1041H10.9594C9.58408 44.1041 8.53322 43.1593 8.33798 42.0394L4.9356 22.4383Z" fill="white"/>
</svg>
