<svg width="26" height="38" viewBox="0 0 26 38" fill="none" xmlns="http://www.w3.org/2000/svg">
<g clip-path="url(#clip0_2374_94)">
<path d="M23.77 19.6101C23.35 20.0101 22.91 20.3801 22.62 20.8601C22.2 21.5601 21.9 22.3201 21.49 23.0301C21.02 23.8401 20.35 24.5301 19.69 25.1801C17.91 26.9101 15.54 27.9901 13.03 27.9901C10.16 27.9901 7.5 26.5801 5.66 24.4201C5.19 23.8701 4.78 23.2701 4.42 22.6501C4.09 22.0701 3.88 21.0001 3.46 20.5301C2.97 19.9901 2.35 19.8101 1.93 19.1901C1.56 18.6501 1.22 18.1101 1.06 17.4601C0.749998 16.1801 1.31 15.0701 2.43 14.4201C2.82 14.1901 3.14 13.8501 3.44 13.5301C3.99 12.9401 4.29 12.2801 4.93 11.8001C4.86 11.8501 4.87 12.3201 4.87 12.4101C4.86 12.6301 4.85 12.8601 4.85 13.0801C4.85 13.8801 4.85 14.6201 5.06 15.4001C5.17 15.8101 5.3 16.2201 5.47 16.6101C5.51 16.7101 5.67 16.7601 5.78 16.7701C5.78 16.0501 5.95 15.3301 6.19 14.6501C7.05 12.1701 8.73 9.95006 10.96 8.56006C10.96 8.56006 8.94 14.0701 12.52 16.0101L12.97 16.2401C12.97 16.2401 11.82 14.9001 12.08 12.3201C12.33 9.75006 14.16 8.79006 14.16 8.79006C14.16 8.79006 12.78 10.8301 13.91 13.3901L14.1 13.7501C14.1 13.7501 14.16 11.8401 15.12 11.0101C16.08 10.1801 17.14 9.39006 18.67 9.35006C20.2 9.31006 21.92 11.8001 21.92 11.8001C22.24 12.4401 22.53 13.0901 22.91 13.6901C23.33 14.3501 23.77 14.6001 24.33 15.0501C25.47 15.9501 25.19 17.6501 24.5 18.7601C24.3 19.0801 24.04 19.3501 23.76 19.6101" fill="white"/>
<path d="M24.42 14.13C24.45 13.91 24.53 13.68 24.56 13.56C24.6 13.34 24.65 13.12 24.69 12.91C24.87 12.03 25.07 11.15 25.08 10.25C25.09 9.02 24.99 7.76 24.74 6.58C24.33 4.63 22.3 2.46 20.12 2.2C20.02 2.19 19.92 2.18 19.82 2.14C19.73 2.1 19.66 2.03 19.59 1.96C18.83 1.19 18.19 0.760001 17.09 0.480001C16.39 0.300001 15.67 0.160001 14.94 0.0900007C13.71 -0.0399993 12.43 0.0400007 11.24 0.150001C10.44 0.230001 9.55001 0.270001 8.79001 0.530001C6.72001 1.25 4.48001 2.58 3.24001 4.29C2.46001 5.36 1.56001 6.51 1.27001 7.8C0.930011 9.3 1.10001 10.8 1.45001 12.27C1.64001 13.08 1.72001 13.56 1.72001 14.4C1.72001 14.49 1.74001 14.61 1.84001 14.62C1.90001 14.62 1.95001 14.58 1.99001 14.53C2.11001 14.39 2.82001 13.78 2.82001 13.59C3.43001 12.8 3.96001 11.94 4.75001 11.34C5.08001 11.09 5.45001 10.89 5.85001 10.75C5.85001 10.75 5.72001 11.25 5.71001 11.28C5.64001 11.5 5.59001 11.72 5.54001 11.95C5.44001 12.42 5.37001 12.89 5.33001 13.36C5.26001 14.29 5.33001 15.24 5.52001 16.15C5.19001 14.62 6.81001 12.29 7.58001 11.04C8.65001 9.31 10.94 8 12.68 6.93C12.76 6.88 12.87 6.83 12.95 6.88C13.08 6.96 12.97 7.14 12.87 7.25C11.29 8.78 10.75 10.28 10.95 12.41C11.06 13.56 11.4 14.67 12.26 15.51C11.65 14.91 11.64 13.56 11.6 12.78C11.54 11.77 11.88 10.33 12.57 9.55C13.56 8.42 15.08 7.65 16.59 7.36C16.67 7.35 16.75 7.33 16.82 7.36C16.89 7.38 16.95 7.46 16.94 7.53C16.92 7.59 16.86 7.63 16.8 7.65C15.83 8.13 15.15 8.37 14.6 9.28C14.32 9.75 14.08 10.18 13.96 10.71C13.83 11.3 13.91 12.05 13.96 12.65C14.12 11.92 14.15 11.36 14.65 10.75C15.06 10.24 15.69 9.63 16.35 9.42C17.84 8.73 19.59 8.5 20.81 9.8C21.45 10.49 22.07 11.25 22.62 12.06C23.01 12.64 23.05 13.3 23.58 13.79C23.88 14.07 24.23 14.3 24.47 14.63C24.41 14.54 24.41 14.38 24.44 14.2" fill="white"/>
<path d="M0.20001 33.88C0.30001 33.94 0.42001 33.99 0.59001 34.06C0.88001 34.16 1.19001 34.18 1.49001 34.1C1.83001 34.01 2.15001 33.79 2.43001 33.42H2.41001C2.10001 33.55 1.75001 33.54 1.40001 33.36C0.78001 33.04 0.62001 32.36 0.93001 31.77C1.27001 31.12 2.04001 30.79 2.75001 31.15C3.46001 31.51 3.60001 32.32 3.14001 33.2C2.75001 33.96 2.21001 34.36 1.70001 34.52C1.30001 34.64 0.85001 34.61 0.45001 34.46C0.27001 34.4 0.11001 34.33 0.0100098 34.26L0.21001 33.88H0.20001ZM1.40001 31.98C1.18001 32.41 1.28001 32.85 1.68001 33.06C1.99001 33.22 2.32001 33.19 2.55001 33.06C2.60001 33.03 2.64001 32.99 2.68001 32.91C2.99001 32.32 3.00001 31.75 2.51001 31.5C2.11001 31.29 1.65001 31.5 1.39001 31.99L1.40001 31.98Z" fill="white"/>
<path d="M4.69999 34.3799L4.54999 34.7399L3.17999 34.1799L3.32999 33.8199L4.69999 34.3799Z" fill="white"/>
<path d="M6.74001 33.3899H6.73001L5.98001 33.5399L6.00001 33.1299L6.95001 32.9399L7.38001 33.0699L6.25001 36.7999L5.76001 36.6499L6.75001 33.3899H6.74001Z" fill="white"/>
<path d="M7.94 37.2599L7.99 36.9399L8.46 36.6099C9.6 35.8399 10.13 35.4199 10.23 34.8399C10.3 34.4499 10.17 34.0599 9.59 33.9599C9.24 33.8999 8.92 34.0299 8.72 34.1499L8.62 33.7599C8.92 33.5799 9.33 33.4799 9.77 33.5499C10.6 33.6899 10.85 34.3099 10.76 34.8599C10.64 35.5699 10.03 36.0599 9.09 36.6999L8.73 36.9299L10.46 37.2299L10.39 37.6599L7.94 37.2499V37.2599Z" fill="white"/>
<path d="M13.52 37.82L13.49 36.11L12.17 33.81H12.76L13.35 34.9C13.51 35.2 13.64 35.45 13.77 35.73H13.78C13.89 35.46 14.02 35.2 14.17 34.89L14.73 33.76H15.32L14.01 36.09L14.04 37.81H13.51L13.52 37.82Z" fill="white"/>
<path d="M15.8 36.3399C15.91 37.0399 16.4 37.2699 16.93 37.1999C17.3 37.1499 17.52 37.0499 17.7 36.9399L17.84 37.2999C17.67 37.4099 17.37 37.5499 16.91 37.6099C16.03 37.7299 15.41 37.2299 15.29 36.3599C15.17 35.4899 15.58 34.7399 16.42 34.6199C17.36 34.4899 17.72 35.2799 17.8 35.8099C17.82 35.9199 17.81 35.9999 17.82 36.0599L15.8 36.3499V36.3399ZM17.28 35.7499C17.24 35.4199 17.02 34.9199 16.44 34.9999C15.91 35.0699 15.75 35.5899 15.76 35.9599L17.29 35.7399L17.28 35.7499Z" fill="white"/>
<path d="M20.56 36.74L20.42 36.4H20.4C20.31 36.67 20.06 36.95 19.66 37.06C19.09 37.22 18.69 36.9 18.58 36.49C18.39 35.81 18.89 35.28 19.97 34.98L19.95 34.92C19.89 34.69 19.71 34.29 19.13 34.45C18.87 34.52 18.62 34.68 18.46 34.86L18.25 34.56C18.44 34.35 18.75 34.15 19.1 34.06C19.96 33.82 20.32 34.35 20.48 34.91L20.77 35.96C20.84 36.2 20.92 36.44 21 36.62L20.54 36.75L20.56 36.74ZM20.09 35.33C19.53 35.47 18.93 35.75 19.08 36.29C19.17 36.62 19.43 36.71 19.69 36.64C20.06 36.54 20.22 36.24 20.24 35.98C20.24 35.92 20.24 35.86 20.22 35.81L20.09 35.32V35.33Z" fill="white"/>
<path d="M21.29 34.39C21.17 34.07 21.05 33.8 20.94 33.56L21.37 33.39L21.59 33.91H21.61C21.59 33.49 21.8 33.15 22.13 33.02C22.19 33 22.23 32.99 22.28 32.98L22.46 33.44C22.41 33.44 22.35 33.46 22.29 33.49C21.94 33.62 21.8 33.98 21.88 34.38C21.9 34.45 21.91 34.53 21.95 34.62L22.51 36.06L22.02 36.25L21.3 34.39H21.29Z" fill="white"/>
<path d="M23.72 34.98C23.9 35 24.2 34.98 24.44 34.86C24.78 34.69 24.86 34.44 24.76 34.22C24.65 33.99 24.45 33.94 24.04 33.98C23.49 34.04 23.14 33.89 22.99 33.58C22.78 33.16 22.96 32.65 23.52 32.38C23.78 32.25 24.05 32.21 24.24 32.23L24.29 32.63C24.16 32.62 23.93 32.63 23.68 32.74C23.4 32.88 23.32 33.11 23.42 33.31C23.53 33.53 23.73 33.55 24.13 33.51C24.67 33.46 25.01 33.58 25.2 33.96C25.42 34.42 25.23 34.91 24.61 35.22C24.32 35.36 24.03 35.42 23.79 35.4L23.73 34.98H23.72Z" fill="white"/>
</g>
<defs>
<clipPath id="clip0_2374_94">
<rect width="25.28" height="37.82" fill="white"/>
</clipPath>
</defs>
</svg>
