<svg width="40" height="24" viewBox="0 0 40 24" fill="none" xmlns="http://www.w3.org/2000/svg">
<g clip-path="url(#clip0_2374_37)">
<path d="M39.7053 16.1701C38.7256 14.2232 35.3013 14.0617 33.368 13.7386C32.6918 13.6281 31.4955 13.3051 30.5245 13.271C30.5245 13.4326 30.4291 13.5856 30.2124 13.6281C29.2068 13.8492 28.1838 13.9512 27.1695 14.0787C25.0629 14.3337 22.9736 14.7503 20.8583 14.9714C18.717 15.2009 16.619 15.677 14.4777 15.915C12.4231 16.1531 10.3424 16.1701 8.28783 15.898C6.77938 15.694 5.27092 15.2859 4.08323 14.3167C1.6385 12.3104 1.43044 8.45914 2.37539 5.67062C2.76551 4.5144 3.47639 3.4177 4.61206 2.84809C5.97313 2.15946 7.67231 2.24448 9.09407 2.70357C12.267 3.73226 14.417 7.05638 13.342 10.2955C12.8132 11.8768 11.5822 13.0585 9.86564 13.254C8.2965 13.4326 6.1812 13.0925 4.98484 12.0043C3.81449 10.9416 3.5284 9.10526 3.64977 7.60898C3.77981 5.96818 4.71609 4.36138 6.45861 4.05532C8.06243 3.77477 9.80495 4.14884 10.6719 5.60261C11.5388 7.04788 11.2527 9.03725 10.2731 10.372C9.26746 11.7493 7.35155 11.5452 6.12918 10.5505C4.90682 9.55585 4.43867 7.59198 5.70439 6.42726C6.25922 5.91717 7.13482 5.67912 7.86304 5.92567C8.51323 6.15521 8.76464 6.73332 8.89468 7.34544C8.9727 7.71951 9.05072 7.97455 8.76464 8.28061C8.51323 8.54416 8.16646 8.7482 7.80235 8.80771C7.06546 8.92673 6.38926 8.15309 6.45861 7.45596C6.5193 6.92036 7.38623 6.91185 7.32554 7.45596C7.29086 7.74501 7.5336 8.00006 7.83703 7.91504C7.93239 7.88954 8.01908 7.81302 8.08844 7.73651C7.99307 7.20941 7.88037 6.66531 7.20417 6.67381C6.31124 6.68231 5.77374 7.50697 5.80842 8.31462C5.8691 9.73438 7.96707 11.2307 9.25879 10.1935C9.83963 9.72588 10.1344 8.82471 10.2558 8.11908C10.3858 7.35394 10.2644 6.54629 9.82229 5.89166C9.34548 5.18603 8.6346 4.88847 7.80235 4.83747C7.09147 4.79496 6.32858 4.82046 5.71306 5.21154C4.50803 5.97668 4.38666 7.72801 4.52537 8.98624C4.67274 10.3125 5.25359 11.5112 6.59732 11.9958C7.81969 12.4379 9.50153 12.7014 10.7239 12.1743C11.9549 11.6387 12.6051 10.2615 12.7092 9.01175C12.9432 6.24873 10.8799 3.9448 8.20981 3.35819C7.10014 3.11164 5.81709 3.11164 4.81145 3.70675C3.98787 4.19134 3.48506 5.0245 3.1903 5.90016C2.44474 8.11058 2.47075 10.8481 3.84049 12.8205C5.31427 14.9374 8.33118 15.1754 10.7066 15.2349C13.9489 15.3284 17.0351 14.5463 20.2341 14.1807C21.8899 13.9937 23.5371 13.7811 25.1842 13.5091C26.7707 13.254 28.3919 13.1435 29.961 12.8035C30.1604 12.761 30.3164 12.846 30.4118 12.9735C32.1023 12.0468 33.4374 10.1255 32.7872 5.39857C32.059 -0.127466 27.8284 0.187093 27.8284 0.187093C27.8284 0.187093 16.4456 -0.237986 8.20981 0.187093C3.56308 0.425138 0.953629 3.48571 0.216741 7.31143C-0.0693445 8.7822 -0.0693445 10.3635 0.190734 11.9448C1.15302 17.8024 7.35155 21.7556 12.7525 23.2604C18.4742 24.8587 25.4617 23.5155 31.166 22.3848C33.2553 21.9682 35.4226 21.5006 37.3646 20.5909C39.0551 19.8003 40.6849 18.1085 39.7053 16.1616V16.1701Z" fill="#F5F6F8"/>
</g>
<defs>
<clipPath id="clip0_2374_37">
<rect width="40" height="24" fill="white"/>
</clipPath>
</defs>
</svg>
