<svg width="23" height="31" viewBox="0 0 23 31" fill="none" xmlns="http://www.w3.org/2000/svg">
<g clip-path="url(#clip0_2374_2)">
<path d="M0.849998 13.98C0.849998 13.98 2.98 16.45 7.57 19.51C7.57 19.51 9.7 20.28 8.42 21.21C7.14 22.15 5.36 24.27 4.76 25.3C4.16 26.33 3.65 26.83 2.8 25.39C1.96 23.94 -0.0800019 19.94 -1.85799e-06 14.06C-1.85799e-06 14.06 -1.84774e-06 12.7 0.849998 13.98Z" fill="white"/>
<path d="M6.12999 27.17C6.12999 27.17 7.91999 23.34 11.58 21.38C15.24 19.42 19.83 16.44 21.28 14.23C22.73 12.02 22.64 15.17 22.64 15.17C22.64 21.81 18.69 31.4 10.67 30.71C9.47999 30.61 7.02999 30.14 6.20999 29.13C6.20999 29.13 5.44999 28.19 6.12999 27.17Z" fill="white"/>
<path d="M12.33 18.22C12.4 18.19 12.48 18.15 12.56 18.11C12.88 17.94 13.22 17.8 13.54 17.63C14.67 17.04 15.75 16.37 16.76 15.6C18.76 14.07 20.75 11.93 20.84 9.27C21.01 3.83 15.9 0.09 11.48 0L10.88 0.02C6.44999 0.11 1.33999 3.85 1.50999 9.3C1.67999 14.73 9.96999 18.21 10.02 18.24C10.89 18.6 11.55 18.6 12.33 18.24" fill="white"/>
<path d="M11.35 3.56006C13.77 3.67006 15.92 5.31006 16.61 7.64006C16.69 7.90006 16.69 8.21006 16.82 8.46006C16.97 8.75006 17.39 8.84006 17.48 9.15006C17.57 9.44006 17.39 9.61006 17.19 9.79006C16.98 9.97006 16.82 10.1501 16.74 10.4201C16.63 10.7801 16.56 11.1501 16.41 11.5101C16.26 11.8701 16.06 12.2201 15.84 12.5401C15.44 13.1301 14.92 13.6401 14.34 14.0301C12.17 15.4901 9.08001 15.3501 7.11001 13.6101C6.56001 13.1301 6.12001 12.5501 5.78001 11.9101C5.61001 11.5801 5.48001 11.2401 5.38001 10.8801C5.29001 10.5501 5.25001 10.2301 5.00001 9.97006C4.85001 9.82006 4.62001 9.70006 4.54001 9.49006C4.37001 9.07006 4.72001 8.95006 4.97001 8.73006C5.21001 8.52006 5.24001 8.29006 5.30001 7.99006C5.36001 7.68006 5.47001 7.37006 5.59001 7.08006C6.09001 5.88006 7.02001 4.87006 8.16001 4.25006C9.16001 3.70006 10.22 3.57006 11.34 3.56006C11.82 3.56006 11.82 2.81006 11.34 2.81006C10.23 2.82006 9.19001 2.95006 8.17001 3.41006C6.97001 3.95006 5.96001 4.89006 5.29001 6.02006C4.96001 6.59006 4.68001 7.23006 4.56001 7.88006C4.52001 8.08006 4.53001 8.12006 4.36001 8.24006C4.22001 8.34006 4.09001 8.43006 3.99001 8.56006C3.75001 8.86006 3.70001 9.29006 3.80001 9.65006C3.89001 9.96006 4.10001 10.1601 4.33001 10.3601C4.60001 10.6001 4.60001 10.9401 4.71001 11.2801C4.96001 12.0601 5.36001 12.7701 5.87001 13.4001C7.76001 15.7201 11.14 16.3901 13.83 15.1501C15.25 14.5001 16.41 13.3001 17.04 11.8701C17.21 11.4701 17.31 11.0701 17.43 10.6501C17.51 10.3901 17.77 10.2701 17.94 10.0601C18.17 9.78006 18.26 9.43006 18.21 9.08006C18.15 8.68006 17.93 8.44006 17.61 8.21006C17.42 8.07006 17.44 7.98006 17.4 7.76006C17.36 7.59006 17.31 7.42006 17.26 7.25006C17.14 6.89006 16.99 6.54006 16.82 6.21006C16.47 5.56006 16.01 4.96006 15.46 4.46006C14.32 3.43006 12.86 2.85006 11.33 2.78006C10.85 2.76006 10.85 3.51006 11.33 3.53006" fill="#3F5E3E"/>
</g>
<defs>
<clipPath id="clip0_2374_2">
<rect width="22.64" height="30.74" fill="white"/>
</clipPath>
</defs>
</svg>
