<svg width="35" height="34" viewBox="0 0 35 34" fill="none" xmlns="http://www.w3.org/2000/svg">
<g clip-path="url(#clip0_2437_195)">
<path d="M28.34 18.5399C28.51 18.8399 28.65 19.1399 29.03 19.1599C29.72 19.1999 30.39 18.6399 30.96 18.3099C32.01 17.7099 34.21 17.0399 34.21 15.5399C34.21 14.4199 33.22 13.3799 32.72 12.4399C32.16 11.3899 31.41 10.3899 30.96 9.27995C30.67 8.54995 30.35 7.83995 29.99 7.13995C29.77 6.70995 29.48 6.35995 29.28 5.91995C29.09 5.49995 28.86 5.11995 28.44 4.88995C27.77 4.52995 27.08 4.18995 26.39 3.86995C26.14 3.75995 25.82 3.71995 25.59 3.57995C25.43 3.47995 25.36 3.31995 25.2 3.20995C24.22 2.51995 23.38 1.93995 22.82 0.839948C22.55 0.309948 22.12 0.279948 21.55 0.289948C20.54 0.309948 19.53 0.309948 18.52 0.349948C17.75 0.379948 16.97 0.379948 16.22 0.359948C15.12 0.329948 14.01 0.309948 12.91 0.289948C12.35 0.279948 11.91 0.299948 11.64 0.839948C11.08 1.93995 10.24 2.50995 9.25999 3.20995C9.09999 3.31995 9.02999 3.47995 8.86999 3.57995C8.63999 3.72995 8.31999 3.75995 8.06999 3.86995C7.37999 4.18995 6.68999 4.52995 6.01999 4.88995C5.54999 5.13995 5.31999 5.50995 5.06999 5.92995C5.01999 6.00995 4.97999 6.08995 4.92999 6.16995C4.82999 6.32995 4.73999 6.47995 4.64999 6.63995C4.58999 6.74995 4.52999 6.85995 4.45999 6.97995C4.10999 7.67995 3.78999 8.38995 3.48999 9.11995C3.03999 10.2299 2.28999 11.2299 1.72999 12.2799C1.22999 13.2199 0.23999 14.2499 0.23999 15.3699C0.23999 16.8699 2.42999 17.5399 3.48999 18.1399C4.10999 18.4399 4.80999 19.0799 5.53999 18.9799C5.94999 18.9199 6.04999 18.6699 6.19999 18.4199C6.28999 18.2599 6.39999 18.0999 6.60999 17.9999C6.79999 18.9199 6.57999 19.9499 6.56999 20.8799C6.54999 22.3999 6.43999 23.9199 6.45999 25.4299C6.47999 26.6899 6.45999 28.1199 6.22999 29.3999C6.07999 30.2699 6.00999 31.0399 6.00999 31.9399C6.00999 32.7599 6.73999 32.5599 7.33999 32.6999C8.50999 32.9699 9.70999 32.8199 10.89 32.8699C13.01 32.9599 15.13 32.9999 17.24 32.9799C19.36 32.9999 21.48 32.9599 23.6 32.8699C24.78 32.8199 25.98 32.9599 27.15 32.6999C27.75 32.5599 28.48 32.7599 28.48 31.9399C28.48 31.0399 28.41 30.2699 28.26 29.3999C28.04 28.1199 28.02 26.6899 28.03 25.4299C28.05 23.9199 27.94 22.4099 27.92 20.8899C27.91 19.9499 27.69 18.9299 27.87 18.0099C28.1 18.1299 28.23 18.33 28.35 18.5399" fill="white"/>
<path d="M28.12 18.6599C28.37 19.1099 28.65 19.4399 29.21 19.3999C29.75 19.3599 30.23 19.0499 30.68 18.7699C31.41 18.2999 32.23 17.9999 32.97 17.5499C33.65 17.1499 34.34 16.5699 34.44 15.7399C34.57 14.6399 33.77 13.6599 33.21 12.7899C32.87 12.2599 32.59 11.7099 32.26 11.1799C31.94 10.6499 31.61 10.1199 31.34 9.54994C31.04 8.92994 30.81 8.26994 30.51 7.64994C30.24 7.06994 29.89 6.55994 29.59 5.98994C29.33 5.50994 29.13 5.02994 28.65 4.71994C28.07 4.34994 27.41 4.06994 26.79 3.77994C26.53 3.65994 26.28 3.56994 26.01 3.47994C25.71 3.37994 25.58 3.16994 25.34 2.98994C24.89 2.64994 24.43 2.34994 24.01 1.95994C23.58 1.55994 23.31 1.11994 23 0.629942C22.76 0.239942 22.38 0.0799422 21.94 0.0399422C21.29 -5.77495e-05 20.63 0.0399422 19.98 0.0599422C19.27 0.0699423 18.56 0.0999423 17.85 0.119942C16.43 0.149942 15 0.0799422 13.58 0.0599422C13.08 0.0599422 12.48 -0.0400577 12 0.169942C11.52 0.369942 11.37 0.869942 11.09 1.26994C10.77 1.71994 10.35 2.09994 9.91002 2.43994C9.69001 2.60994 9.47002 2.75994 9.25002 2.91994C9.03001 3.07994 8.85002 3.33994 8.60002 3.44994C8.35002 3.55994 8.08002 3.60994 7.83001 3.72994C7.50001 3.87994 7.17001 4.03994 6.85001 4.19994C6.32001 4.46994 5.71001 4.70994 5.31001 5.15994C4.95001 5.56994 4.70001 6.06994 4.43001 6.53994C4.10001 7.09994 3.83001 7.70994 3.57001 8.30994C3.31001 8.90994 3.07001 9.51994 2.75002 10.0899C2.43002 10.6499 2.08001 11.1899 1.76001 11.7499C1.47001 12.2499 1.18001 12.7499 0.860015 13.2299C0.550015 13.6999 0.250015 14.1899 0.100015 14.7299C-0.149985 15.6199 0.150015 16.3999 0.850015 16.9699C1.52002 17.5199 2.34001 17.8399 3.11001 18.2399C3.89001 18.6399 4.91002 19.5799 5.86001 19.1799C6.30001 18.9899 6.35001 18.4699 6.74001 18.2399L6.37001 18.0899C6.53001 18.9499 6.36001 19.8199 6.32001 20.6899C6.28001 21.6199 6.26002 22.5599 6.23001 23.4899C6.17001 25.2799 6.29001 27.0799 6.06001 28.8599C5.95001 29.6999 5.80001 30.5199 5.77001 31.3599C5.75001 31.9399 5.68001 32.6199 6.35001 32.8199C6.58001 32.8899 6.82001 32.8899 7.06001 32.9199C7.47001 32.9699 7.86002 33.0699 8.27002 33.0999C9.18002 33.1699 10.09 33.0999 11 33.1399C14.7 33.2999 18.42 33.3099 22.12 33.1899C23.04 33.1599 23.97 33.1199 24.89 33.1299C25.33 33.1299 25.76 33.1299 26.2 33.0999C26.61 33.0699 27.01 32.9699 27.41 32.9199C27.86 32.8699 28.4 32.8899 28.63 32.4099C28.77 32.1099 28.72 31.7399 28.71 31.4199C28.69 30.9799 28.66 30.5499 28.6 30.1099C28.47 29.1199 28.32 28.1399 28.28 27.1399C28.25 26.1699 28.28 25.1999 28.26 24.2299C28.23 23.1599 28.18 22.0999 28.16 21.0299C28.14 20.0599 27.92 19.0599 28.1 18.0899C27.98 18.1399 27.86 18.1899 27.73 18.2399C27.91 18.3499 28.02 18.4999 28.12 18.6799C28.28 18.9599 28.71 18.7099 28.55 18.4299C28.4 18.1699 28.24 17.9599 27.98 17.8099C27.85 17.7299 27.64 17.7999 27.61 17.9599C27.46 18.7599 27.56 19.5599 27.62 20.3599C27.68 21.2399 27.68 22.1199 27.71 22.9999C27.78 24.7199 27.68 26.4599 27.83 28.1799C27.9 28.9999 28.07 29.7999 28.15 30.6199C28.19 31.0199 28.21 31.4299 28.21 31.8399C28.21 32.1399 28.19 32.3099 27.87 32.3799C27.63 32.4299 27.38 32.4199 27.14 32.4699C26.71 32.5499 26.29 32.6099 25.85 32.6299C24.98 32.6599 24.1 32.6299 23.23 32.6599C19.69 32.8099 16.14 32.8199 12.6 32.7099C11.71 32.6799 10.83 32.6299 9.94001 32.6299C9.06001 32.6299 8.21002 32.6299 7.34001 32.4699C7.11001 32.4299 6.87001 32.4299 6.64001 32.3899C6.31001 32.3299 6.27001 32.1799 6.27001 31.8499C6.27001 30.9799 6.39001 30.1299 6.52001 29.2799C6.81001 27.4099 6.68001 25.5199 6.75001 23.6299C6.78001 22.6599 6.80001 21.6799 6.84001 20.6999C6.88001 19.7799 7.04001 18.8799 6.87001 17.9699C6.84001 17.8099 6.63001 17.7499 6.50001 17.8199C6.31001 17.9299 6.16001 18.0799 6.04001 18.2599C5.94001 18.4199 5.87001 18.6299 5.69001 18.7199C5.21001 18.9599 4.59001 18.5199 4.20001 18.2799C3.51001 17.8499 2.76002 17.5399 2.05001 17.1599C1.43001 16.8199 0.640015 16.3499 0.530015 15.5799C0.390015 14.5599 1.27001 13.5999 1.77001 12.7899C2.06001 12.3199 2.32001 11.8199 2.61001 11.3499C2.92001 10.8499 3.23002 10.3499 3.49002 9.81994C4.03001 8.71994 4.42001 7.56994 5.05001 6.51994C5.30001 6.09994 5.52001 5.61994 5.91001 5.30994C6.38001 4.92994 7.03001 4.68994 7.57001 4.42994C7.84001 4.29994 8.10002 4.14994 8.39002 4.06994C8.64002 3.98994 8.89002 3.93994 9.10002 3.77994C9.29002 3.63994 9.42002 3.45994 9.62002 3.31994C9.84002 3.15994 10.06 3.00994 10.27 2.83994C10.65 2.54994 11.01 2.22994 11.32 1.85994C11.46 1.67994 11.6 1.49994 11.72 1.30994C11.85 1.09994 11.94 0.819942 12.17 0.689942C12.35 0.589942 12.57 0.579942 12.77 0.579942C13.07 0.579942 13.38 0.579942 13.68 0.589942C14.33 0.599942 14.99 0.609942 15.64 0.629942C16.94 0.659942 18.23 0.629942 19.53 0.609942C20.18 0.599942 20.83 0.589942 21.47 0.579942C21.94 0.579942 22.39 0.539942 22.64 0.999942C23.15 1.89994 23.84 2.54994 24.67 3.14994C24.87 3.29994 25.08 3.42994 25.25 3.60994C25.42 3.79994 25.61 3.90994 25.85 3.98994C26.44 4.17994 26.98 4.44994 27.54 4.72994C28.06 4.98994 28.6 5.19994 28.9 5.71994C29.02 5.92994 29.12 6.15994 29.24 6.37994C29.39 6.64994 29.57 6.88994 29.72 7.15994C30.32 8.23994 30.69 9.43994 31.29 10.5199C31.58 11.0299 31.9 11.5299 32.2 12.0299C32.47 12.4899 32.73 12.9599 33.02 13.3999C33.5 14.1299 34.29 15.1699 33.87 16.0799C33.55 16.7799 32.73 17.1799 32.08 17.5099C31.75 17.6799 31.4 17.8299 31.07 17.9999C30.65 18.2199 30.27 18.5099 29.85 18.7199C29.62 18.8399 29.32 18.9699 29.05 18.9299C28.8 18.8899 28.69 18.6299 28.58 18.4399C28.42 18.1599 27.99 18.4099 28.15 18.6899" fill="#3F5E3E"/>
<path d="M13.1 3.75C13.51 4.78 13.98 5.79 14.62 6.71C14.91 7.13 15.24 7.5 15.64 7.82C16.01 8.12 16.59 8.16 16.9 8.54C17.1 8.79 16.97 9.12 16.94 9.42C16.91 9.69 16.91 9.95 16.89 10.22C16.86 10.75 16.71 11.26 16.51 11.75C16.25 12.38 15.92 12.92 15.8 13.6C15.96 13.62 16.13 13.64 16.29 13.67C16.19 12.69 16.09 11.7 15.91 10.72C15.83 10.25 15.73 9.79 15.61 9.33C15.49 8.87 15.3 8.43 15.15 7.98C15.11 7.86 14.98 7.76 14.84 7.81C14.4 7.96 13.99 8.19 13.55 8.36C13.03 8.56 12.51 8.62 11.97 8.68C11.83 8.69 11.49 8.9 11.38 8.85C11.21 8.77 11.15 8.28 11.1 8.12C10.92 7.57 10.75 7.02 10.57 6.46C10.4 5.91 10.22 5.35 10.05 4.8C9.96001 4.52 9.88001 4.25 9.79001 3.97C9.76001 3.86 9.69001 3.74 9.73001 3.65C9.77001 3.55 9.92001 3.44 10.01 3.38C10.71 2.86 11.42 2.38 11.95 1.68C12.08 1.51 12.19 1.34 12.3 1.16C12.41 0.96 12.49 0.76 12.7 0.65C13.07 0.47 13.61 0.56 14 0.57C14.95 0.59 15.9 0.64 16.85 0.63C18.28 0.6 19.71 0.55 21.14 0.53C21.56 0.53 22.21 0.4 22.56 0.69C22.74 0.84 22.82 1.09 22.94 1.29C23.07 1.49 23.21 1.69 23.37 1.87C23.68 2.23 24.05 2.54 24.43 2.83C24.62 2.97 24.81 3.11 25.01 3.25C25.23 3.41 25.39 3.61 25.6 3.77C25.56 3.68 25.52 3.58 25.49 3.49C25.08 4.97 24.67 6.5 24.01 7.89C23.93 8.06 23.84 8.24 23.75 8.41C23.7 8.5 23.52 8.95 23.42 8.98C23.49 8.96 23.16 8.79 23.11 8.77C22.95 8.7 22.78 8.65 22.61 8.61C21.84 8.43 21.08 8.18 20.39 7.77C20.24 7.68 20.08 7.77 20.02 7.92C19.74 8.68 19.44 9.4 19.23 10.19C19.01 11.02 18.84 11.87 18.72 12.72C18.49 14.38 18.43 16.04 18.44 17.71C18.44 18.51 18.44 19.3 18.44 20.1V32.47C18.44 32.79 18.94 32.79 18.94 32.47V25.53C18.94 23.06 18.95 20.59 18.94 18.12C18.94 16.58 18.94 15.05 19.12 13.51C19.23 12.54 19.4 11.57 19.63 10.62C19.85 9.74 20.18 8.92 20.49 8.06L20.12 8.21C20.86 8.66 21.67 8.91 22.51 9.12C22.73 9.17 22.91 9.25 23.11 9.36C23.24 9.44 23.36 9.51 23.53 9.48C23.88 9.42 24.08 8.84 24.22 8.58C25.02 7.04 25.5 5.32 25.95 3.65C25.98 3.53 25.93 3.43 25.84 3.37C25.66 3.23 25.52 3.05 25.33 2.91C25.12 2.76 24.91 2.61 24.71 2.46C24.33 2.17 23.96 1.85 23.65 1.48C23.36 1.12 23.2 0.62 22.85 0.33C22.56 0.03 22.16 0 21.78 0C20.13 0 18.48 0.09 16.83 0.11C15.77 0.13 14.69 0.07 13.63 0.05C13.23 0.05 12.78 0.01 12.41 0.22C12.02 0.45 11.87 0.91 11.63 1.26C11.35 1.65 11 1.99 10.62 2.29C10.24 2.6 9.77001 2.84 9.44001 3.2C9.31001 3.35 9.17001 3.44 9.18001 3.66C9.20001 3.95 9.36001 4.27 9.44001 4.56C9.62001 5.15 9.81001 5.75 10 6.34C10.22 7.03 10.44 7.72 10.66 8.41C10.79 8.82 10.98 9.47 11.55 9.34C11.66 9.32 11.75 9.25 11.85 9.21C12.01 9.14 12.19 9.15 12.36 9.13C12.66 9.1 12.96 9.05 13.25 8.97C13.85 8.8 14.38 8.47 14.96 8.28C14.86 8.22 14.75 8.16 14.65 8.1C14.79 8.52 14.96 8.92 15.08 9.34C15.21 9.79 15.31 10.26 15.39 10.72C15.57 11.69 15.67 12.67 15.77 13.65C15.8 13.91 16.21 14.02 16.26 13.72C16.38 13.01 16.74 12.44 17 11.78C17.19 11.31 17.32 10.82 17.36 10.31C17.38 10.01 17.39 9.71 17.42 9.41C17.45 9.15 17.54 8.87 17.48 8.61C17.36 8.13 16.91 7.88 16.49 7.72C15.98 7.53 15.59 7.17 15.26 6.74C14.52 5.81 14.02 4.71 13.58 3.62C13.46 3.32 12.98 3.45 13.1 3.75Z" fill="#3F5E3E"/>
<path d="M21.56 3.58003C21.2 4.47003 20.79 5.34003 20.27 6.14003C20.16 6.31003 20.06 6.50003 19.9 6.63003C19.74 6.77003 19.55 6.89003 19.38 7.02003C19.15 7.19003 18.97 7.28003 18.69 7.28003C18.44 7.28003 18.21 7.23003 17.99 7.39003C17.71 7.59003 17.52 7.94003 17.33 8.22003C16.93 8.84003 16.95 9.54003 16.87 10.26C16.82 10.75 16.69 11.21 16.52 11.67C16.36 12.11 16.1 12.5 15.95 12.94C15.63 13.84 15.7 14.84 15.67 15.77C15.64 16.67 15.61 17.56 15.61 18.46V31.25C15.61 31.65 15.59 32.05 15.61 32.45C15.61 32.47 15.61 32.49 15.61 32.51C15.61 32.83 16.11 32.83 16.11 32.51V18.79C16.11 18.36 16.11 17.93 16.13 17.5C16.17 16.48 16.18 15.45 16.21 14.43C16.23 13.95 16.28 13.47 16.45 13.02C16.62 12.59 16.86 12.19 17.02 11.75C17.17 11.33 17.29 10.9 17.35 10.46C17.41 10.02 17.4 9.56003 17.48 9.13003C17.54 8.80003 17.69 8.57003 17.87 8.30003C17.98 8.15003 18.08 7.96003 18.22 7.84003C18.33 7.74003 18.38 7.77003 18.51 7.77003C18.83 7.77003 19.11 7.77003 19.39 7.60003C19.64 7.45003 19.86 7.25003 20.1 7.08003C20.42 6.85003 20.61 6.52003 20.81 6.19003C21.06 5.79003 21.28 5.38003 21.49 4.95003C21.69 4.54003 21.87 4.12003 22.04 3.70003C22.16 3.40003 21.68 3.27003 21.56 3.57003" fill="#3F5E3E"/>
<path d="M18.91 8.68999C18.91 8.87999 18.76 9.01999 18.58 9.01999C18.4 9.01999 18.25 8.86999 18.25 8.68999C18.25 8.50999 18.4 8.35999 18.58 8.35999C18.76 8.35999 18.91 8.50999 18.91 8.68999Z" fill="#3F5E3E"/>
<path d="M19.47 7.25C19.41 7.32 19.34 7.4 19.35 7.5C19.37 7.7 19.65 7.68 19.79 7.73C19.95 7.78 20.1 7.86 20.24 7.94" fill="white"/>
<path d="M19.3 7.06996C19.3 7.06996 19.22 7.15996 19.19 7.20996C19.17 7.23996 19.16 7.25996 19.15 7.28996C19.14 7.31996 19.13 7.34996 19.12 7.37996C19.12 7.41996 19.11 7.45996 19.11 7.49996C19.11 7.52996 19.11 7.56996 19.13 7.59996C19.15 7.66996 19.18 7.71996 19.23 7.76996C19.25 7.78996 19.26 7.79996 19.28 7.80996C19.3 7.82996 19.32 7.83996 19.34 7.84996C19.38 7.86996 19.43 7.88996 19.47 7.89996C19.53 7.91996 19.58 7.92996 19.64 7.93996C19.72 7.94996 19.79 7.97996 19.87 8.00996C19.85 8.00996 19.83 7.98996 19.81 7.97996C19.92 8.02996 20.03 8.07996 20.13 8.14996C20.19 8.17996 20.26 8.18996 20.32 8.17996C20.38 8.15996 20.44 8.11996 20.47 8.05996C20.5 7.99996 20.52 7.92996 20.5 7.86996C20.48 7.80996 20.44 7.75996 20.38 7.71996C20.24 7.63996 20.1 7.56996 19.96 7.50996C19.91 7.48996 19.87 7.46996 19.82 7.45996C19.78 7.45996 19.74 7.44996 19.7 7.43996C19.65 7.43996 19.61 7.41996 19.56 7.39996C19.58 7.39996 19.6 7.41996 19.62 7.42996C19.6 7.42996 19.58 7.40996 19.56 7.39996C19.58 7.40996 19.59 7.42996 19.61 7.43996C19.6 7.43996 19.59 7.41996 19.58 7.40996C19.59 7.42996 19.61 7.43996 19.62 7.45996C19.62 7.44996 19.6 7.43996 19.6 7.41996C19.6 7.43996 19.62 7.45996 19.62 7.47996C19.62 7.45996 19.62 7.44996 19.61 7.42996C19.61 7.44996 19.61 7.47996 19.61 7.49996C19.61 7.47996 19.61 7.45996 19.61 7.43996C19.61 7.45996 19.61 7.48996 19.61 7.50996C19.61 7.48996 19.61 7.46996 19.63 7.44996L19.61 7.50996C19.61 7.50996 19.64 7.44996 19.66 7.42996C19.65 7.44996 19.63 7.45996 19.62 7.47996C19.63 7.45996 19.65 7.43996 19.67 7.41996C19.71 7.36996 19.74 7.30996 19.74 7.23996C19.74 7.17996 19.71 7.10996 19.67 7.05996C19.62 7.01996 19.56 6.97996 19.49 6.98996C19.43 6.98996 19.36 7.00996 19.31 7.05996" fill="#3F5E3E"/>
<path d="M12.69 0.72998C12.43 0.97998 12.52 1.39998 12.63 1.73998C12.85 2.42998 13.09 3.10998 13.36 3.77998" fill="white"/>
<path d="M12.51 0.560059C12.09 0.980059 12.32 1.61006 12.48 2.09006C12.68 2.68006 12.89 3.27006 13.12 3.85006C13.17 3.97006 13.29 4.07006 13.43 4.02006C13.55 3.98006 13.66 3.84006 13.6 3.71006C13.38 3.17006 13.18 2.62006 13 2.06006C12.92 1.82006 12.83 1.59006 12.78 1.34006C12.78 1.32006 12.78 1.31006 12.78 1.30006C12.78 1.30006 12.78 1.24006 12.78 1.21006C12.78 1.19006 12.78 1.17006 12.78 1.14006C12.78 1.13006 12.79 1.04006 12.78 1.10006C12.78 1.08006 12.78 1.05006 12.8 1.03006C12.8 1.02006 12.83 0.950059 12.8 1.00006C12.81 0.970059 12.83 0.950059 12.84 0.930059C12.84 0.930059 12.86 0.910059 12.87 0.900059C12.96 0.810059 12.97 0.640059 12.87 0.550059C12.77 0.460059 12.62 0.450059 12.52 0.550059" fill="#3F5E3E"/>
<path d="M14.91 8.03002C15.22 7.93002 15.53 7.96002 15.85 7.96002C15.92 7.96002 15.84 7.68002 15.82 7.65002" fill="white"/>
<path d="M14.97 8.27C15.05 8.24 15.14 8.22 15.23 8.21C15.21 8.21 15.19 8.21 15.16 8.21C15.36 8.18 15.57 8.19 15.78 8.19C15.8 8.19 15.83 8.19 15.85 8.19C15.92 8.19 15.99 8.16 16.04 8.11C16.06 8.09 16.08 8.07 16.09 8.05C16.12 8 16.12 7.96 16.13 7.9C16.13 7.88 16.13 7.85 16.13 7.83C16.13 7.78 16.12 7.74 16.11 7.69C16.11 7.66 16.1 7.63 16.09 7.6C16.08 7.56 16.07 7.53 16.05 7.49C16.02 7.44 15.96 7.39 15.9 7.38C15.84 7.36 15.76 7.38 15.71 7.41C15.66 7.44 15.61 7.5 15.6 7.56C15.59 7.62 15.59 7.7 15.62 7.75C15.62 7.75 15.62 7.76 15.62 7.77C15.62 7.75 15.6 7.73 15.59 7.71C15.61 7.77 15.63 7.84 15.64 7.9C15.64 7.88 15.64 7.86 15.64 7.83C15.64 7.83 15.64 7.84 15.64 7.85C15.64 7.83 15.66 7.81 15.66 7.79L15.7 7.74C15.72 7.73 15.73 7.71 15.75 7.7C15.77 7.7 15.79 7.68 15.81 7.67C15.83 7.67 15.85 7.67 15.88 7.67C15.84 7.67 15.8 7.67 15.77 7.67C15.73 7.67 15.69 7.67 15.65 7.67C15.57 7.67 15.49 7.67 15.41 7.67C15.23 7.67 15.04 7.7 14.87 7.75C14.81 7.77 14.75 7.81 14.72 7.86C14.69 7.91 14.67 7.99 14.69 8.05C14.71 8.11 14.75 8.17 14.81 8.2C14.87 8.23 14.94 8.25 15 8.22" fill="#3F5E3E"/>
<path d="M17.08 13.6401C17.08 13.8301 17.23 13.9701 17.41 13.9701C17.59 13.9701 17.74 13.8201 17.74 13.6401C17.74 13.4601 17.59 13.3101 17.41 13.3101C17.23 13.3101 17.08 13.4601 17.08 13.6401Z" fill="#3F5E3E"/>
<path d="M16.85 18.6201C16.85 18.8001 16.99 18.9401 17.17 18.9401C17.35 18.9401 17.49 18.7901 17.49 18.6201C17.49 18.4501 17.35 18.3 17.17 18.3C16.99 18.3 16.85 18.4401 16.85 18.6201Z" fill="#3F5E3E"/>
<path d="M21.8 3.64005C22.05 3.00005 22.28 2.35005 22.49 1.69005C22.6 1.35005 22.69 0.930054 22.43 0.680054" fill="white"/>
<path d="M22.04 3.71002C22.26 3.15002 22.47 2.57002 22.66 1.99002C22.82 1.52002 23.02 0.92002 22.62 0.51002C22.53 0.42002 22.36 0.41002 22.27 0.51002C22.18 0.61002 22.17 0.77002 22.27 0.86002C22.28 0.87002 22.33 0.94002 22.3 0.89002C22.31 0.91002 22.33 0.94002 22.34 0.96002C22.31 0.91002 22.34 0.96002 22.34 0.98002C22.34 1.00002 22.35 1.02002 22.36 1.05002C22.36 1.08002 22.36 1.08002 22.36 1.05002C22.36 1.06002 22.36 1.08002 22.36 1.09002C22.36 1.12002 22.36 1.15002 22.36 1.17002C22.36 1.19002 22.36 1.21002 22.36 1.23002C22.36 1.24002 22.36 1.26002 22.36 1.27002C22.36 1.24002 22.36 1.24002 22.36 1.27002C22.31 1.51002 22.23 1.74002 22.16 1.97002C21.98 2.51002 21.79 3.05002 21.58 3.58002C21.53 3.70002 21.63 3.86002 21.75 3.89002C21.9 3.92002 22.01 3.84002 22.06 3.71002" fill="#3F5E3E"/>
<path d="M28.88 5.18005C28.58 5.53005 28.42 5.96005 28.3 6.38005C27.75 8.22005 27.7 10.1601 27.69 12.0601C27.69 12.9901 27.66 13.9301 27.64 14.8601C27.62 15.9301 27.64 17.0901 27.76 18.1501" fill="white"/>
<path d="M28.7 4.99995C28.05 5.79995 27.85 6.90995 27.69 7.89995C27.51 8.99995 27.46 10.1199 27.44 11.2299C27.42 12.3999 27.41 13.5599 27.39 14.7199C27.37 15.8599 27.38 16.9999 27.51 18.1299C27.55 18.4499 28.05 18.4499 28.01 18.1299C27.76 15.9599 27.92 13.7499 27.94 11.5699C27.95 10.5199 27.98 9.45995 28.12 8.41995C28.19 7.85995 28.3 7.30995 28.44 6.76995C28.57 6.26995 28.72 5.75995 29.05 5.34995C29.25 5.09995 28.9 4.74995 28.7 4.99995Z" fill="#3F5E3E"/>
<path d="M17.25 8.96995C17.19 8.74995 17.06 8.54995 16.87 8.41995C16.78 8.35995 16.68 8.30995 16.57 8.25995C16.47 8.20995 16.38 8.16995 16.28 8.11995C16.14 8.04995 15.97 8.01995 15.84 7.94995" fill="white"/>
<path d="M17.49 8.90997C17.43 8.67997 17.29 8.44997 17.11 8.29997C16.9 8.12997 16.65 8.02997 16.4 7.91997C16.26 7.85997 16.12 7.81997 15.98 7.75997C16 7.75997 16.02 7.77997 16.04 7.78997C16.01 7.77997 15.99 7.76997 15.96 7.74997C15.84 7.68997 15.68 7.71997 15.62 7.83997C15.56 7.95997 15.59 8.11997 15.71 8.17997C15.86 8.25997 16.03 8.29997 16.18 8.35997C16.16 8.35997 16.14 8.33997 16.12 8.32997C16.24 8.37997 16.35 8.43997 16.47 8.48997C16.58 8.53997 16.68 8.58997 16.78 8.65997C16.76 8.64997 16.75 8.62997 16.73 8.61997C16.79 8.66997 16.85 8.72997 16.9 8.78997C16.89 8.76997 16.87 8.75997 16.86 8.73997C16.91 8.80997 16.95 8.87997 16.99 8.95997C16.99 8.93997 16.97 8.91997 16.97 8.89997C16.99 8.94997 17 8.98997 17.01 9.03997C17.04 9.16997 17.19 9.25997 17.32 9.20997C17.45 9.16997 17.53 9.03997 17.5 8.89997" fill="#3F5E3E"/>
<path d="M16.98 23.34C16.98 23.52 17.12 23.66 17.3 23.66C17.48 23.66 17.62 23.52 17.62 23.34C17.62 23.16 17.48 23.02 17.3 23.02C17.12 23.02 16.98 23.16 16.98 23.34Z" fill="#3F5E3E"/>
<path d="M17.01 28.7501C17.01 28.9301 17.15 29.0701 17.33 29.0701C17.51 29.0701 17.65 28.9301 17.65 28.7501C17.65 28.5701 17.51 28.4301 17.33 28.4301C17.15 28.4301 17.01 28.5801 17.01 28.7501Z" fill="#3F5E3E"/>
<path d="M5.58002 4.92004C5.88002 5.27004 6.04002 5.70004 6.16002 6.12004C6.71002 7.96004 6.76002 9.90004 6.77002 11.8C6.77002 12.73 6.80002 13.67 6.82002 14.6C6.84002 15.67 6.82002 16.83 6.70002 17.89" fill="white"/>
<path d="M5.40003 5.09996C5.73003 5.50996 5.88003 6.01996 6.01003 6.51996C6.15003 7.05996 6.26003 7.61996 6.33003 8.16996C6.47003 9.21996 6.50003 10.27 6.51003 11.32C6.53003 13.5 6.69003 15.71 6.44003 17.88C6.40003 18.2 6.90003 18.2 6.94003 17.88C7.07003 16.75 7.08003 15.6 7.06003 14.46C7.04003 13.3 7.02003 12.13 7.01003 10.97C6.99003 9.85996 6.94003 8.73996 6.76003 7.63996C6.60003 6.64996 6.40003 5.52996 5.75003 4.73996C5.55003 4.48996 5.19003 4.84996 5.40003 5.08996" fill="#3F5E3E"/>
<path d="M13.32 3.19995C16.08 2.73995 18.93 2.75995 21.68 3.25995C21.99 3.31995 22.13 2.82995 21.81 2.77995C18.96 2.26995 16.03 2.24995 13.18 2.71995C12.86 2.76995 13 3.24995 13.31 3.19995" fill="#3F5E3E"/>
</g>
<defs>
<clipPath id="clip0_2437_195">
<rect width="34.45" height="33.25" fill="white"/>
</clipPath>
</defs>
</svg>
