<svg width="32" height="39" viewBox="0 0 32 39" fill="none" xmlns="http://www.w3.org/2000/svg">
<g clip-path="url(#clip0_2374_19)">
<path d="M10.21 27.87C9.58999 27.12 9.02999 26.32 8.53999 25.48C7.56999 23.8 8.35998 21.51 9.39998 20.03C10.49 18.48 12.09 17.28 13.79 16.49C15.35 15.77 16.87 14.96 18.28 13.97C19.01 13.46 20.1 12.17 20.96 11.99C21.78 11.81 22.14 12.83 22.55 13.32C23.13 14.01 24 14.41 24.4 15.27C24.98 16.54 24.98 17.99 24.82 19.37C24.62 21.11 24.2 22.83 23.56 24.46C22.61 26.91 21.26 28.86 18.89 30.06C17.38 30.83 15.67 30.97 14.04 30.52C12.61 30.13 11.13 28.99 10.21 27.86" fill="white"/>
<path d="M24.63 24.96C24.58 25.7 24.59 26.46 24.78 27.18C24.88 27.54 25.02 27.91 25.28 28.19C25.51 28.43 26.19 28.81 25.9 28.15C25.79 27.91 25.62 27.65 25.5 27.41C25.12 26.63 25.21 25.44 25.31 24.6C25.43 23.6 25.67 22.58 25.79 21.59C26 19.96 26.39 18.38 26.84 16.81C27.21 15.49 27.48 14 27.25 12.64C26.92 10.67 25.74 8.93996 24.27 7.60996C24 7.35996 23.71 7.15996 23.42 6.98996C23.09 6.78996 22.68 6.53996 22.3 6.47996C22.25 6.47996 22.19 6.45996 22.15 6.47996C22.11 6.50996 22.1 6.66996 22.13 6.70996C22.23 6.88996 22.33 7.06996 22.44 7.23996C23.17 8.49996 22.63 9.64996 22.78 11C22.91 12.2 23.73 12.95 24.52 13.76C25.45 14.72 25.56 16.15 25.53 17.42C25.53 17.42 25.29 20.34 24.78 23.91L24.64 24.95L24.63 24.96Z" fill="white"/>
<path d="M19.15 4.97004C20.22 5.38004 21 6.34004 21.45 7.39004C22.05 8.78004 21.98 10.35 20.53 11.05C19.81 11.4 19.19 11.7 18.59 12.21C15.52 14.82 11.3 15.81 8.82001 19.12C7.79001 20.49 7.33001 22.1 7.17001 23.79C7.09001 24.62 7.06001 25.45 7.02001 26.27C6.98001 27.08 6.94001 27.99 6.51001 28.71C6.44001 28.83 6.35001 28.95 6.23001 29.04C6.14001 29.11 5.78001 29.29 5.72001 29.09C5.70001 29.01 5.73001 28.93 5.77001 28.85C6.32001 27.59 6.28001 26.15 6.22001 24.8C6.15001 23.46 5.97001 22.12 5.56001 20.84C5.12001 19.45 4.78001 18.18 4.57001 16.71C4.34001 15.12 4.52001 13.49 5.06001 11.97C6.11001 9.01004 8.46001 6.53004 11.35 5.30004C12.6 4.77004 13.96 4.54004 15.32 4.51004C16.6 4.48004 17.78 4.51004 19 4.91004C19.05 4.93004 19.1 4.95004 19.15 4.96004" fill="white"/>
<path d="M3.81999 12.38C5.37 6.78003 10.51 2.85003 16.35 3.00003C22.12 3.15003 26.95 7.30003 28.28 12.84C28.73 14.72 31.63 13.92 31.17 12.04C29.53 5.20003 23.42 0.180031 16.36 3.08831e-05C9.2 -0.179969 2.82999 4.73003 0.929995 11.58C0.409995 13.44 3.30999 14.24 3.81999 12.38Z" fill="white"/>
<path d="M2.05 13.8799C1.31 13.8599 0.590002 14.2899 0.250002 14.9499C-0.0599979 15.5599 -0.0299979 16.1899 0.0600021 16.8499C0.200002 17.9899 0.400002 19.1199 0.670002 20.2499C0.920002 21.2899 1.21 22.3299 1.51 23.3599C1.68 23.9599 1.89 24.5899 2.37 25.0199C2.94 25.5299 3.74 25.7799 4.49 25.5399C5.28 25.2799 5.73 24.5199 5.54 23.6999C4.94 21.1599 4.35 18.6099 3.75 16.0699L3.5 14.9999C3.32 14.2399 2.4 13.7099 1.65 13.9499C0.850002 14.2099 0.410002 14.9799 0.600002 15.7999C1.2 18.3399 1.79 20.8899 2.39 23.4299L2.64 24.4999C2.99 23.8899 3.34 23.2699 3.69 22.6599C3.89 22.6299 4.09 22.6599 4.28 22.7499C4.54 23.0599 4.62 23.1299 4.52 22.9599C4.47 22.8699 4.47 22.8799 4.53 22.9999C4.5 22.9099 4.47 22.8199 4.45 22.7299C4.36 22.4099 4.27 22.0899 4.18 21.7799C3.98 21.0599 3.78 20.3499 3.6 19.6199C3.43 18.9299 3.28 18.2299 3.16 17.5199C3.13 17.3299 3.1 17.1399 3.07 16.9499C3.1 17.1899 3.04 16.6999 3.04 16.6899C3.02 16.5399 3.04 16.3699 3 16.2299C3 16.0499 3 16.0499 2.96 16.2299C2.8 16.6199 2.5 16.8299 2.06 16.8799C2.84 16.8999 3.6 16.1699 3.56 15.3799C3.52 14.5499 2.9 13.9099 2.06 13.8799" fill="white"/>
<path d="M29.33 17.78C28.88 17.74 28.58 17.52 28.43 17.13C28.41 16.97 28.4 16.94 28.4 17.06C28.35 17.21 28.37 17.43 28.35 17.59C28.35 17.59 28.29 18.06 28.32 17.85C28.3 18.01 28.27 18.18 28.24 18.34C28.12 19.07 27.96 19.8 27.78 20.52C27.61 21.22 27.42 21.91 27.23 22.6C27.13 22.94 27.04 23.29 26.94 23.63C26.91 23.72 26.89 23.81 26.86 23.9C26.87 23.87 26.89 23.83 26.9 23.8C26.76 24.02 26.83 23.97 27.1 23.65C27.29 23.56 27.49 23.53 27.69 23.56C28.04 24.17 28.39 24.79 28.74 25.4C29.34 22.86 29.93 20.31 30.53 17.77C30.61 17.41 30.7 17.05 30.78 16.7C30.96 15.94 30.54 15.04 29.73 14.85C28.96 14.68 28.08 15.08 27.88 15.9C27.28 18.44 26.69 20.99 26.09 23.53C26.01 23.89 25.92 24.25 25.84 24.6C25.65 25.42 26.09 26.18 26.89 26.44C27.62 26.68 28.45 26.44 29.01 25.92C29.48 25.48 29.69 24.87 29.87 24.26C30.17 23.23 30.46 22.19 30.71 21.15C30.98 20.03 31.18 18.9 31.32 17.75C31.4 17.11 31.45 16.44 31.13 15.85C30.76 15.2 30.09 14.75 29.33 14.78C28.55 14.8 27.79 15.45 27.83 16.28C27.87 17.07 28.49 17.8 29.33 17.78Z" fill="white"/>
<path d="M4.20001 31.7501H4.19001L3.42001 31.7101L3.54001 31.3101L4.51001 31.3501L4.90001 31.5801L2.92001 34.9401L2.48001 34.6801L4.21001 31.7501H4.20001Z" fill="white"/>
<path d="M4.78 35.27C4.88 35.42 5.13 35.7 5.47 35.85C6.09 36.13 6.46 35.82 6.58 35.52C6.8 35.02 6.45 34.61 5.98 34.4L5.71 34.28L5.87 33.92L6.14 34.04C6.49 34.2 7.01 34.22 7.2 33.79C7.33 33.51 7.26 33.17 6.82 32.97C6.54 32.84 6.21 32.85 6 32.89L6.03 32.48C6.28 32.43 6.7 32.45 7.08 32.62C7.78 32.93 7.91 33.49 7.72 33.93C7.56 34.3 7.2 34.51 6.69 34.47C7.09 34.76 7.3 35.25 7.07 35.75C6.81 36.32 6.15 36.62 5.29 36.23C4.89 36.05 4.6 35.77 4.47 35.57L4.77 35.26L4.78 35.27Z" fill="white"/>
<path d="M9.35999 35.81L9.22999 36.18L7.82999 35.7L7.95999 35.33L9.35999 35.81Z" fill="white"/>
<path d="M11.33 34.69H11.32L10.58 34.89V34.48L11.51 34.23L11.95 34.33L11.06 38.12L10.56 38L11.34 34.68L11.33 34.69Z" fill="white"/>
<path d="M15.33 35.18C15.22 35.16 15.08 35.16 14.93 35.16C14.09 35.22 13.6 35.78 13.44 36.4H13.46C13.67 36.18 14.01 36.01 14.44 36.05C15.13 36.12 15.56 36.66 15.48 37.42C15.41 38.13 14.86 38.74 14.05 38.66C13.22 38.58 12.74 37.88 12.84 36.87C12.92 36.11 13.25 35.53 13.67 35.19C14.02 34.91 14.47 34.75 14.97 34.74C15.13 34.74 15.26 34.74 15.36 34.74L15.32 35.17L15.33 35.18ZM14.96 37.41C15.02 36.86 14.73 36.49 14.25 36.44C13.93 36.41 13.62 36.58 13.45 36.84C13.41 36.9 13.38 36.97 13.37 37.07C13.32 37.71 13.56 38.21 14.11 38.26C14.56 38.3 14.9 37.96 14.96 37.4V37.41Z" fill="white"/>
<path d="M18.41 38.65L18.26 36.94L16.78 34.74L17.37 34.69L18.04 35.75C18.22 36.04 18.36 36.27 18.51 36.54H18.52C18.61 36.27 18.72 35.99 18.85 35.67L19.33 34.51L19.92 34.46L18.78 36.89L18.93 38.6L18.4 38.65H18.41Z" fill="white"/>
<path d="M20.56 37.02C20.72 37.72 21.23 37.91 21.74 37.8C22.11 37.72 22.32 37.61 22.49 37.49L22.66 37.84C22.5 37.96 22.2 38.12 21.75 38.22C20.88 38.41 20.23 37.94 20.05 37.08C19.87 36.22 20.23 35.44 21.06 35.27C21.99 35.07 22.41 35.84 22.52 36.36C22.54 36.47 22.55 36.55 22.55 36.6L20.56 37.02ZM22 36.33C21.94 36 21.69 35.52 21.11 35.64C20.59 35.75 20.46 36.28 20.5 36.65L22.01 36.33H22Z" fill="white"/>
<path d="M25.31 37.1099L25.15 36.7799H25.13C25.05 37.0599 24.82 37.35 24.43 37.49C23.88 37.68 23.46 37.39 23.32 36.99C23.09 36.33 23.55 35.76 24.61 35.4L24.59 35.3399C24.51 35.1099 24.31 34.7299 23.75 34.9199C23.5 35.0099 23.26 35.1799 23.11 35.3699L22.88 35.08C23.05 34.85 23.35 34.6399 23.7 34.5199C24.54 34.2299 24.94 34.7299 25.13 35.2799L25.49 36.31C25.57 36.55 25.66 36.7799 25.76 36.9499L25.31 37.1099ZM24.75 35.74C24.2 35.92 23.62 36.2299 23.8 36.7599C23.91 37.0799 24.18 37.1599 24.43 37.0699C24.79 36.9499 24.93 36.64 24.93 36.38C24.93 36.32 24.93 36.2599 24.9 36.2099L24.73 35.7299L24.75 35.74Z" fill="white"/>
<path d="M25.89 34.72C25.75 34.41 25.62 34.14 25.49 33.91L25.91 33.72L26.16 34.23H26.18C26.14 33.81 26.32 33.46 26.65 33.31C26.7 33.28 26.74 33.27 26.79 33.26L27 33.71C26.95 33.72 26.89 33.74 26.83 33.77C26.49 33.92 26.37 34.29 26.47 34.68C26.49 34.75 26.51 34.83 26.55 34.91L27.19 36.32L26.72 36.54L25.89 34.72Z" fill="white"/>
<path d="M28.36 35.16C28.55 35.17 28.84 35.13 29.07 35C29.4 34.81 29.47 34.56 29.35 34.35C29.23 34.13 29.03 34.08 28.62 34.15C28.07 34.24 27.72 34.11 27.55 33.81C27.32 33.4 27.47 32.88 28.01 32.58C28.27 32.44 28.53 32.39 28.72 32.39L28.79 32.79C28.66 32.79 28.42 32.8 28.19 32.93C27.92 33.08 27.85 33.32 27.96 33.51C28.08 33.72 28.28 33.73 28.68 33.67C29.21 33.59 29.56 33.69 29.77 34.06C30.02 34.51 29.85 35.01 29.24 35.35C28.96 35.5 28.67 35.58 28.43 35.57L28.35 35.15L28.36 35.16Z" fill="white"/>
</g>
<defs>
<clipPath id="clip0_2374_19">
<rect width="31.38" height="38.67" fill="white"/>
</clipPath>
</defs>
</svg>
