<svg width="27" height="38" viewBox="0 0 27 38" fill="none" xmlns="http://www.w3.org/2000/svg">
<g clip-path="url(#clip0_2374_45)">
<path d="M24.15 13.3099C24.01 13.7099 23.99 14.1199 24.32 14.4799C24.42 14.5899 24.57 14.6499 24.7 14.7199C25.99 15.3799 26.55 17.0999 26.04 18.4499C25.77 19.1799 25.22 19.7799 24.57 20.1799C24.02 20.5199 23.06 20.5299 22.69 20.9499C22.14 21.5499 21.98 22.4299 21.58 23.1099C21.11 23.9199 20.45 24.6099 19.78 25.2599C18 26.9899 15.62 28.0699 13.12 28.0699C10.25 28.0699 7.58999 26.6599 5.75999 24.4999C5.28999 23.9499 4.87999 23.3499 4.51999 22.7299C4.18999 22.1499 3.98999 21.0799 3.55999 20.6099C3.17999 20.1899 2.22999 20.1799 1.67999 19.8399C1.01999 19.4399 0.479989 18.8399 0.199989 18.1099C-0.120011 17.2499 -0.0200106 16.2499 0.439989 15.4599C0.969989 14.5399 1.82999 14.3799 2.63999 13.8199C3.45999 13.2499 4.20999 12.5999 4.89999 11.8799C5.52999 11.2099 6.03999 10.3999 6.86999 9.93995C7.89999 9.36995 9.35999 10.3199 10.32 10.7299C11.54 11.2499 13.55 12.2499 14.87 11.6699C15.07 11.5799 15.26 11.4499 15.47 11.3799C16.11 11.1699 16.74 11.5399 17.39 11.3699C17.63 11.3099 17.86 11.1999 18.1 11.1799C18.27 11.1599 18.44 11.1799 18.61 11.2099C19.22 11.2899 19.86 11.4999 20.46 11.4999H21.21C22.03 11.4999 22.55 10.9999 21.5 10.8499C21.15 10.7999 20.79 10.8199 20.44 10.7999C19.95 10.7599 19.48 10.6399 19.01 10.5199C18.69 10.4399 18.3 10.3799 17.97 10.3999C17.35 10.4299 16.92 10.7899 16.26 10.5599C15.53 10.2999 15.48 10.2099 14.84 10.5599C14.32 10.8499 13.67 10.8599 13.1 10.7499C11.89 10.5299 10.85 9.78995 9.75999 9.27995C8.69999 8.77995 7.64999 8.25995 6.50999 8.78995C4.84999 9.54995 4.30999 11.8199 2.46999 12.2999C2.34999 12.3299 2.21999 12.3499 2.10999 12.2999C1.56999 12.0999 1.60999 10.5599 1.60999 10.0999C1.60999 9.22995 1.78999 8.35995 2.06999 7.53995C2.60999 5.95995 3.55999 4.48995 4.83999 3.40995C8.33999 0.429947 13.79 -0.260054 18.09 1.13995C19.06 1.45995 20.16 1.90995 21.02 1.37995C21.41 1.13995 21.53 0.799947 21.78 0.459947C21.87 0.329947 21.78 0.0799465 22 0.0199465C22.57 -0.140053 22.47 0.959946 22.43 1.30995C22.36 1.92995 21.5 3.50995 22.91 2.54995C23.27 2.29995 23.56 1.71995 23.97 1.64995C24.49 1.54995 23.83 3.42995 23.77 3.54995C23.07 4.99995 23.47 5.66995 24.18 6.96995C25.03 8.52995 25.38 10.9499 24.5 12.5599C24.37 12.7899 24.23 13.0499 24.13 13.3199" fill="white"/>
<path d="M1.70001 34.16L1.83001 33.87L2.37001 33.67C3.67001 33.21 4.28001 32.94 4.53001 32.4C4.69001 32.04 4.67001 31.63 4.14001 31.39C3.82001 31.24 3.48001 31.29 3.25001 31.35V30.94C3.59001 30.84 4.01001 30.85 4.42001 31.03C5.19001 31.37 5.27001 32.04 5.04001 32.55C4.75001 33.21 4.03001 33.52 2.96001 33.91L2.56001 34.04L4.16001 34.77L3.98001 35.17L1.71001 34.15L1.70001 34.16Z" fill="white"/>
<path d="M6.65 34.19L6.52 34.56L5.12 34.08L5.25 33.71L6.65 34.19Z" fill="white"/>
<path d="M9.78001 33.2999L8.33001 32.9599L7.95001 33.8999C8.04001 33.8999 8.12001 33.9199 8.26001 33.9499C8.55001 34.0199 8.83001 34.1499 9.03001 34.3499C9.29001 34.5899 9.46001 34.9699 9.34001 35.4499C9.17001 36.1899 8.45001 36.6099 7.62001 36.4099C7.21001 36.3099 6.88001 36.1099 6.73001 35.9499L6.95001 35.5899C7.09001 35.7199 7.37001 35.9099 7.71001 35.9899C8.19001 36.0999 8.68001 35.8899 8.80001 35.3799C8.91001 34.8899 8.67001 34.4599 7.91001 34.2799C7.69001 34.2299 7.52001 34.2099 7.38001 34.1999L8.05001 32.4399L9.87001 32.8699L9.77001 33.2999H9.78001Z" fill="white"/>
<path d="M12.25 37.06L12.34 35.35L11.18 32.96L11.77 32.99L12.28 34.13C12.42 34.44 12.53 34.7 12.64 34.98H12.65C12.78 34.72 12.93 34.47 13.1 34.17L13.74 33.09L14.33 33.12L12.86 35.37L12.77 37.09L12.24 37.06H12.25Z" fill="white"/>
<path d="M14.62 35.75C14.68 36.46 15.16 36.72 15.68 36.69C16.06 36.66 16.28 36.58 16.47 36.48L16.59 36.85C16.41 36.95 16.1 37.07 15.64 37.1C14.75 37.16 14.18 36.61 14.11 35.74C14.05 34.87 14.52 34.14 15.36 34.08C16.3 34.01 16.61 34.83 16.65 35.36C16.65 35.47 16.65 35.55 16.65 35.61L14.62 35.75ZM16.14 35.26C16.12 34.92 15.94 34.41 15.35 34.46C14.82 34.5 14.62 35 14.6 35.37L16.14 35.26Z" fill="white"/>
<path d="M19.35 36.47L19.23 36.12H19.21C19.1 36.38 18.83 36.64 18.43 36.73C17.85 36.85 17.48 36.5 17.39 36.09C17.25 35.4 17.78 34.9 18.88 34.68V34.62C18.82 34.38 18.67 33.98 18.09 34.1C17.83 34.15 17.57 34.29 17.39 34.46L17.2 34.14C17.4 33.94 17.72 33.77 18.08 33.7C18.95 33.52 19.28 34.07 19.4 34.64L19.62 35.7C19.67 35.95 19.73 36.19 19.81 36.37L19.34 36.47H19.35ZM18.97 35.04C18.4 35.14 17.78 35.38 17.9 35.93C17.97 36.26 18.22 36.38 18.49 36.32C18.86 36.24 19.05 35.96 19.08 35.7C19.08 35.64 19.08 35.58 19.08 35.53L18.98 35.04H18.97Z" fill="white"/>
<path d="M20.24 34.18C20.14 33.85 20.04 33.58 19.94 33.33L20.38 33.19L20.57 33.73H20.59C20.59 33.31 20.83 32.98 21.16 32.87C21.22 32.85 21.26 32.84 21.31 32.84L21.46 33.31C21.4 33.31 21.35 33.33 21.28 33.35C20.93 33.46 20.76 33.81 20.81 34.21C20.81 34.28 20.83 34.37 20.86 34.45L21.33 35.92L20.83 36.08L20.22 34.18H20.24Z" fill="white"/>
<path d="M22.64 34.91C22.82 34.94 23.12 34.94 23.36 34.84C23.71 34.69 23.81 34.45 23.71 34.22C23.61 33.99 23.42 33.92 23.01 33.93C22.46 33.96 22.12 33.79 21.98 33.47C21.8 33.04 22 32.54 22.58 32.3C22.85 32.19 23.12 32.16 23.31 32.19L23.34 32.6C23.21 32.58 22.98 32.57 22.73 32.67C22.44 32.79 22.35 33.02 22.43 33.22C22.52 33.44 22.72 33.47 23.13 33.46C23.67 33.44 24 33.58 24.17 33.97C24.37 34.44 24.14 34.92 23.5 35.19C23.21 35.31 22.91 35.35 22.67 35.32L22.64 34.9V34.91Z" fill="white"/>
</g>
<defs>
<clipPath id="clip0_2374_45">
<rect width="26.23" height="37.1" fill="white"/>
</clipPath>
</defs>
</svg>
