<svg width="34" height="33" viewBox="0 0 34 33" fill="none" xmlns="http://www.w3.org/2000/svg">
<g clip-path="url(#clip0_2437_188)">
<path d="M16.2 32.5099C10.05 32.5299 6.80998 32.0499 6.80998 32.0499C6.80998 32.0499 6.77998 29.08 7.04998 25.08C7.31998 21.08 7.11998 13.2899 7.11998 13.2899C6.70998 13.7999 6.32998 14.3899 5.86998 14.8599C5.35998 15.3699 4.94998 14.8299 4.49998 14.4599C3.90998 13.9699 3.43998 13.3599 2.87998 12.8299C2.16998 12.1499 1.46998 11.4699 0.76998 10.7799C0.39998 10.4099 0.25998 10.1599 0.22998 9.97995C0.22998 9.97995 0.29998 9.69995 0.51998 9.42995L5.98998 2.77995L10.6 0.74995C10.6 0.74995 11.8 -0.0100502 12.41 0.36995C12.41 0.36995 14.02 2.11995 16.67 2.11995C19.32 2.11995 21.2 0.36995 21.2 0.36995C21.81 -0.0100502 23.01 0.74995 23.01 0.74995L27.62 2.77995L33.09 9.42995C33.32 9.70995 33.38 9.97995 33.38 9.97995C33.35 10.1499 33.21 10.4099 32.84 10.7799C32.15 11.4699 31.44 12.1499 30.73 12.8299C30.18 13.3599 29.7 13.9699 29.11 14.4599C28.66 14.8299 28.25 15.3699 27.75 14.8599C27.29 14.3899 26.91 13.8099 26.5 13.2899C26.5 13.2899 26.3 21.08 26.57 25.08C26.84 29.08 26.81 32.0499 26.81 32.0499C26.81 32.0499 23.57 32.5299 17.42 32.5099H16.21H16.2Z" fill="white"/>
<path d="M16.2 32.26C13.24 32.26 10.25 32.2 7.30997 31.87C7.18997 31.86 7.05997 31.84 6.93997 31.83C6.85997 31.82 6.96997 31.83 6.86997 31.82C6.92997 31.9 6.98997 31.98 7.04997 32.06C7.01997 29.41 7.21997 26.78 7.33997 24.14C7.46997 21.25 7.43997 18.35 7.39997 15.46C7.38997 14.74 7.37997 14.02 7.35997 13.3C7.35997 13.1 7.07997 12.94 6.92997 13.12C6.62997 13.5 6.35997 13.9 6.04997 14.27C5.91997 14.43 5.75997 14.68 5.56997 14.78C5.33997 14.9 5.12997 14.69 4.96997 14.54C4.26997 13.94 3.67997 13.25 3.01997 12.61C2.26997 11.89 1.44997 11.19 0.769974 10.41C0.669974 10.29 0.609974 10.14 0.509974 10.03C0.499974 10.01 0.499974 9.98001 0.489974 9.97001C0.489974 9.99001 0.459974 10.09 0.489974 10.02C0.529974 9.94001 0.549974 9.86001 0.589974 9.79001C0.639974 9.71001 0.689974 9.63001 0.749974 9.56001C1.77997 8.29001 2.82997 7.03001 3.86997 5.77001C4.44997 5.06001 5.02997 4.36001 5.60997 3.65001C5.76997 3.46001 5.92997 3.26001 6.08997 3.07001C6.11997 3.04001 6.13997 3.00001 6.16997 2.97001C6.07997 3.05001 6.18997 2.97001 6.24997 2.95001C7.02997 2.61001 7.81997 2.26001 8.59997 1.91001C9.29997 1.60001 10.02 1.32001 10.7 0.980011C10.99 0.830011 11.27 0.670011 11.58 0.580011C11.77 0.530011 12.08 0.450011 12.24 0.550011C12.31 0.590011 12.37 0.670011 12.42 0.730011C13.27 1.50001 14.36 2.04001 15.48 2.25001C17.01 2.54001 18.58 2.23001 19.95 1.51001C20.38 1.29001 20.78 1.02001 21.16 0.720011C21.22 0.670011 21.29 0.590011 21.36 0.550011C21.55 0.450011 21.86 0.530011 22.06 0.590011C22.37 0.680011 22.63 0.840011 22.92 0.980011C23.17 1.10001 23.44 1.21001 23.7 1.32001C24.62 1.73001 25.54 2.13001 26.46 2.54001C26.76 2.67001 27.07 2.81001 27.37 2.94001C27.43 2.97001 27.52 3.03001 27.44 2.96001C27.47 2.99001 27.5 3.03001 27.52 3.06001C27.94 3.57001 28.36 4.08001 28.78 4.59001C30 6.08001 31.23 7.56001 32.45 9.05001C32.59 9.22001 32.73 9.38001 32.86 9.55001C32.93 9.63001 32.99 9.72001 33.04 9.82001C33.07 9.89001 33.1 9.95001 33.12 10.02C33.11 9.98001 33.15 9.95001 33.09 10.02C32.98 10.14 32.91 10.31 32.8 10.44C32.1 11.22 31.29 11.92 30.54 12.65C29.88 13.29 29.29 13.97 28.59 14.57C28.44 14.7 28.24 14.88 28.02 14.77C27.83 14.67 27.67 14.42 27.54 14.26C27.23 13.89 26.96 13.49 26.66 13.11C26.52 12.93 26.24 13.09 26.23 13.29C26.18 15.21 26.16 17.13 26.16 19.06C26.16 20.58 26.17 22.1 26.23 23.62C26.29 25.37 26.44 27.12 26.49 28.88C26.52 29.94 26.55 31 26.54 32.06C26.6 31.98 26.66 31.9 26.72 31.82C26.62 31.84 26.74 31.82 26.64 31.83C26.5 31.85 26.36 31.86 26.23 31.88C25.7 31.94 25.18 31.99 24.65 32.03C22.6 32.19 20.54 32.26 18.48 32.27C17.72 32.27 16.95 32.27 16.19 32.27C15.87 32.27 15.87 32.77 16.19 32.77C19.51 32.77 22.83 32.75 26.13 32.39C26.37 32.36 26.62 32.34 26.86 32.3C26.97 32.28 27.04 32.16 27.04 32.06C27.07 29.41 26.87 26.78 26.75 24.14C26.62 21.25 26.65 18.35 26.69 15.46C26.7 14.74 26.71 14.02 26.73 13.3C26.59 13.36 26.45 13.42 26.3 13.48C26.61 13.88 26.9 14.29 27.22 14.68C27.48 14.99 27.79 15.38 28.24 15.33C28.63 15.29 28.92 14.96 29.2 14.72C29.57 14.4 29.91 14.06 30.25 13.7C30.99 12.91 31.79 12.17 32.57 11.41C32.97 11.01 33.82 10.39 33.54 9.74001C33.32 9.23001 32.84 8.78001 32.5 8.35001C31.85 7.56001 31.2 6.77001 30.55 5.97001C29.9 5.17001 29.24 4.38001 28.58 3.58001C28.38 3.33001 28.17 3.09001 27.97 2.84001C27.89 2.75001 27.83 2.64001 27.73 2.58001C27.51 2.44001 27.23 2.36001 26.99 2.26001C26.51 2.05001 26.03 1.84001 25.55 1.62001C24.76 1.27001 23.96 0.950011 23.19 0.580011C22.56 0.270011 21.65 -0.289989 20.98 0.240011C20.1 0.950011 19.11 1.48001 18.01 1.73001C16.43 2.09001 14.78 1.78001 13.43 0.890011C13.13 0.690011 12.88 0.470011 12.61 0.230011C12.23 -0.0999893 11.64 0.0300107 11.21 0.190011C10.93 0.300011 10.67 0.450011 10.4 0.580011C10.1 0.720011 9.78997 0.850011 9.48997 0.980011C8.51997 1.41001 7.55997 1.83001 6.58997 2.26001C6.35997 2.36001 6.07997 2.44001 5.86997 2.58001C5.76997 2.65001 5.69997 2.76001 5.61997 2.85001C5.10997 3.47001 4.59997 4.10001 4.07997 4.72001C2.87997 6.17001 1.68997 7.63001 0.489974 9.09001C0.319974 9.30001 0.149974 9.51001 0.0399737 9.77001C-0.230026 10.43 0.709974 11.11 1.10997 11.5C1.86997 12.24 2.64997 12.96 3.37997 13.74C3.71997 14.11 4.07997 14.45 4.45997 14.79C4.72997 15.03 5.02997 15.34 5.40997 15.34C5.82997 15.34 6.11997 14.98 6.35997 14.69C6.67997 14.3 6.96997 13.89 7.27997 13.49C7.13997 13.43 6.99997 13.37 6.84997 13.31C6.89997 15.23 6.91997 17.15 6.91997 19.08C6.91997 20.6 6.90997 22.12 6.84997 23.64C6.77997 25.39 6.63997 27.14 6.58997 28.9C6.55997 29.96 6.52997 31.02 6.53997 32.08C6.53997 32.18 6.61997 32.31 6.71997 32.32C8.63997 32.6 10.59 32.67 12.52 32.74C13.74 32.78 14.96 32.79 16.18 32.79C16.5 32.79 16.5 32.29 16.18 32.29" fill="#3F5E3E"/>
<path d="M5.80997 2.96001C5.80997 2.96001 5.83997 3.00001 5.85997 3.01001C5.91997 3.07001 5.82997 2.96001 5.87997 3.03001C5.90997 3.07001 5.92997 3.10001 5.95997 3.14001C6.13997 3.43001 6.23997 3.67001 6.33997 3.97001C6.84997 5.41001 6.95997 6.98001 7.00997 8.49001C7.05997 10.09 6.98997 11.69 6.85997 13.28C6.82997 13.6 7.32997 13.6 7.35997 13.28C7.55997 10.8 7.64997 8.27001 7.27997 5.81001C7.13997 4.84001 6.92997 3.80001 6.41997 2.95001C6.34997 2.83001 6.26997 2.70001 6.15997 2.60001C5.91997 2.38001 5.56997 2.74001 5.80997 2.95001" fill="#3F5E3E"/>
<path d="M27.44 2.59995C27.12 2.88995 26.94 3.39995 26.8 3.78995C26.27 5.24995 26.15 6.85995 26.1 8.38995C26.04 10.0199 26.12 11.6599 26.25 13.2899C26.28 13.6099 26.78 13.6099 26.75 13.2899C26.55 10.8599 26.44 8.36995 26.81 5.94995C26.9 5.33995 27.03 4.72995 27.22 4.13995C27.33 3.78995 27.43 3.53995 27.62 3.21995C27.65 3.16995 27.68 3.12995 27.71 3.07995C27.72 3.05995 27.74 3.04995 27.75 3.02995C27.71 3.07995 27.79 2.97995 27.75 3.02995C27.77 3.00995 27.79 2.97995 27.81 2.95995C28.05 2.73995 27.69 2.38995 27.46 2.60995" fill="#3F5E3E"/>
<path d="M21.41 0.319956C21.23 2.17996 20.13 3.88996 18.29 4.47996C17.44 4.74996 16.52 4.75996 15.65 4.53996C14.77 4.31996 14 3.78996 13.42 3.09996C12.77 2.31996 12.43 1.31996 12.34 0.319956C12.31 -4.39435e-05 11.81 -4.39435e-05 11.84 0.319956C12.03 2.31996 13.17 4.20996 15.13 4.89996C17.06 5.58996 19.31 5.04996 20.64 3.48996C21.4 2.59996 21.79 1.47996 21.9 0.319956C21.93 -4.39435e-05 21.43 -4.39435e-05 21.4 0.319956" fill="#3F5E3E"/>
</g>
<defs>
<clipPath id="clip0_2437_188">
<rect width="33.6" height="32.76" fill="white"/>
</clipPath>
</defs>
</svg>
