<svg width="58" height="58" viewBox="0 0 58 58" fill="none" xmlns="http://www.w3.org/2000/svg">
<path d="M24.2964 0.231693C23.7683 0.00961592 23.1862 -0.051059 22.6237 0.0573245C22.0611 0.165708 21.5432 0.438293 21.1354 0.840685L0.835729 21.1404C0.433337 21.5482 0.160752 22.0661 0.0523685 22.6286C-0.056015 23.1912 0.00465993 23.7732 0.226737 24.3014C0.444292 24.8309 0.813741 25.2843 1.28852 25.6042C1.76331 25.9242 2.32217 26.0965 2.8947 26.0993H11.5946V55.0989C11.5946 55.868 11.9001 56.6057 12.444 57.1495C12.9878 57.6934 13.7254 57.9989 14.4945 57.9989H23.1944C23.9635 57.9989 24.7011 57.6934 25.245 57.1495C25.7888 56.6057 26.0944 55.868 26.0944 55.0989V2.89966C26.0915 2.32713 25.9193 1.76826 25.5993 1.29348C25.2793 0.818697 24.826 0.449248 24.2964 0.231693Z" fill="#CE9643"/>
<path d="M57.7619 33.6975C57.5443 33.1679 57.1749 32.7146 56.7001 32.3946C56.2253 32.0747 55.6664 31.9024 55.0939 31.8996H46.394V2.89996C46.394 2.13084 46.0885 1.39323 45.5447 0.849378C45.0008 0.30553 44.2632 0 43.4941 0H34.7942C34.0251 0 33.2875 0.30553 32.7436 0.849378C32.1998 1.39323 31.8942 2.13084 31.8942 2.89996V55.0992C31.8971 55.6718 32.0694 56.2306 32.3893 56.7054C32.7093 57.1802 33.1626 57.5496 33.6922 57.7672C34.0364 57.9295 34.4138 58.009 34.7942 57.9992C35.1759 58.0014 35.5542 57.9282 35.9075 57.7839C36.2608 57.6396 36.5822 57.427 36.8532 57.1582L57.1529 36.8585C57.5553 36.4507 57.8279 35.9328 57.9363 35.3703C58.0446 34.8077 57.984 34.2256 57.7619 33.6975Z" fill="#CE9643"/>
</svg>
