<svg width="62" height="62" viewBox="0 0 62 62" fill="none" xmlns="http://www.w3.org/2000/svg">
<g clip-path="url(#clip0_2333_78)">
<path d="M46.2687 43.7398L45.6523 42.491L45.036 43.7398C44.7714 44.2759 44.26 44.6474 43.6683 44.7334L42.29 44.9337L43.2872 45.9057C43.7154 46.323 43.9108 46.9242 43.8096 47.5134L43.5742 48.8863L44.807 48.2382C45.3362 47.96 45.9683 47.96 46.4974 48.2382L47.7302 48.8863L47.4948 47.5134C47.3938 46.9242 47.5891 46.323 48.0172 45.9057L49.0144 44.9337L47.6361 44.7334C47.0447 44.6474 46.5333 44.2759 46.2687 43.7398Z" fill="#CE9643"/>
<path d="M45.6523 29.3047C36.6382 29.3047 29.3047 36.6382 29.3047 45.6523C29.3047 54.6664 36.6382 62 45.6523 62C54.6664 62 62 54.6664 62 45.6523C62 36.6382 54.6664 29.3047 45.6523 29.3047ZM54.1858 44.9662L51.2368 47.8407L51.933 51.8997C52.1875 53.3836 50.63 54.5151 49.2975 53.8145L45.6523 51.8981L42.0072 53.8144C40.6747 54.515 39.1172 53.3835 39.3717 51.8996L40.0679 47.8406L37.1189 44.9661C36.0408 43.9153 36.6357 42.0843 38.1255 41.8679L42.2009 41.2758L44.0235 37.5828C44.6898 36.2327 46.6149 36.2327 47.2812 37.5828L49.1038 41.2758L53.1792 41.8679C54.669 42.0844 55.2639 43.9154 54.1858 44.9662Z" fill="#CE9643"/>
<path d="M16.964 14.7908L16.3477 13.542L15.7313 14.7908C15.4667 15.3269 14.9553 15.6984 14.3637 15.7844L12.9854 15.9847L13.9826 16.9567C14.4108 17.374 14.6061 17.9752 14.505 18.5645L14.2696 19.9373L15.5023 19.2892C16.0315 19.0111 16.6636 19.0111 17.1928 19.2892L18.4255 19.9373L18.1901 18.5645C18.0891 17.9752 18.2844 17.374 18.7125 16.9567L19.7097 15.9847L18.3314 15.7844C17.74 15.6986 17.2286 15.3269 16.964 14.7908Z" fill="#CE9643"/>
<path d="M32.6953 28.457V4.23828C32.6953 1.90129 30.794 0 28.457 0H4.23828C1.90129 0 0 1.90129 0 4.23828V28.457C0 30.794 1.90129 32.6953 4.23828 32.6953H28.457C30.794 32.6953 32.6953 30.794 32.6953 28.457ZM24.8811 16.0172L21.9321 18.8917L22.6283 22.9507C22.8828 24.4345 21.3253 25.566 19.9928 24.8655L16.3477 22.9491L12.7025 24.8654C11.37 25.5659 9.81247 24.4344 10.067 22.9505L10.7632 18.8916L7.81418 16.0172C6.73608 14.9663 7.33102 13.1354 8.82083 12.919L12.8962 12.3269L14.7188 8.63386C15.3851 7.28379 17.3102 7.28379 17.9765 8.63386L19.7991 12.3269L23.8745 12.919C25.3643 13.1354 25.9592 14.9663 24.8811 16.0172Z" fill="#CE9643"/>
<path d="M38.2656 6.17578H40.6875C46.363 6.17578 50.9805 10.7932 50.9805 16.4688V19.3492L49.2374 17.6062C48.5281 16.8968 47.3781 16.8968 46.6687 17.6062C45.9593 18.3156 45.9593 19.4656 46.6687 20.1749L51.5124 25.0187C52.2218 25.7281 53.3718 25.7281 54.0812 25.0187L58.9249 20.1749C59.6343 19.4656 59.6343 18.3156 58.9249 17.6062C58.2156 16.8968 57.0656 16.8968 56.3562 17.6062L54.6133 19.3492V16.4688C54.6133 8.79007 48.3662 2.54297 40.6875 2.54297H38.2656C37.2625 2.54297 36.4492 3.35623 36.4492 4.35938C36.4492 5.36252 37.2625 6.17578 38.2656 6.17578Z" fill="#CE9643"/>
<path d="M23.7344 55.8242H21.3125C15.637 55.8242 11.0195 51.2067 11.0195 45.5312V42.6507L12.7626 44.3938C13.4719 45.1031 14.622 45.1031 15.3313 44.3938C16.0407 43.6844 16.0407 42.5344 15.3313 41.825L10.4876 36.9812C9.7782 36.2719 8.62817 36.2719 7.9188 36.9812L3.07506 41.825C2.36569 42.5344 2.36569 43.6844 3.07506 44.3938C3.78442 45.1031 4.93445 45.1031 5.64382 44.3938L7.38672 42.6507V45.5312C7.38672 53.2099 13.6338 59.457 21.3125 59.457H23.7344C24.7375 59.457 25.5508 58.6437 25.5508 57.6406C25.5508 56.6374 24.7375 55.8242 23.7344 55.8242Z" fill="#CE9643"/>
</g>
<defs>
<clipPath id="clip0_2333_78">
<rect width="62" height="62" fill="white"/>
</clipPath>
</defs>
</svg>
