<svg width="25" height="32" viewBox="0 0 25 32" fill="none" xmlns="http://www.w3.org/2000/svg">
<g clip-path="url(#clip0_2374_40)">
<path d="M7.44999 21.2599C6.14999 19.6799 4.98999 17.7299 4.63999 15.6899C4.11999 12.6499 7.91999 12.1299 9.91999 11.2499C11.62 10.4999 13.29 9.65995 14.81 8.59995C15.48 8.13995 16.47 6.95995 17.26 6.78995C18.01 6.62995 18.33 7.54995 18.71 7.99995C19.24 8.62995 20.03 8.98995 20.39 9.76995C20.92 10.9199 20.92 12.2499 20.77 13.5099C20.59 15.0999 20.2 16.6599 19.62 18.1499C19.16 19.3499 18.56 20.4999 17.75 21.5099C17.04 22.3999 16.34 22.7699 15.36 23.2599C13.98 23.9599 12.42 24.0899 10.94 23.6799C9.96999 23.1999 8.95999 22.7799 8.15999 22.0399C7.90999 21.7999 7.66999 21.5399 7.43999 21.2599" fill="white"/>
<path d="M0.160011 31.42C0.160011 31.42 0.180011 31.44 0.190011 31.45C0.430011 31.6 0.940011 31.29 1.15001 31.18C2.47001 30.49 3.73001 29.62 4.64001 28.44C6.64001 25.85 5.88001 22.52 4.84001 19.69C4.23001 18.03 3.34001 15.87 3.73001 14.08C4.34001 11.26 7.83001 10.93 10.04 10.09C11.9 9.38001 13.58 8.27001 15.1 6.98001C15.65 6.51001 16.22 6.24001 16.87 5.92001C18.19 5.28001 18.25 3.85001 17.71 2.58001C17.21 1.42001 16.2 0.380008 15.17 0.200008C12.74 -0.209992 10.21 7.62939e-06 7.93001 0.890008C5.64001 1.78001 3.62001 3.36001 2.28001 5.41001C0.370011 8.30001 -0.0899891 11.92 0.0100109 15.38C0.0100109 15.51 0.0100109 15.65 0.0100109 15.78C0.0100109 18.44 0.0200109 21.09 0.0400109 23.75C0.0400109 25.08 0.0500109 26.41 0.0600109 27.73V30.67C0.0700109 30.87 1.09524e-05 31.26 0.160011 31.42Z" fill="white"/>
<path d="M24.87 23.14C24.87 23.34 24.87 23.54 24.87 23.75C24.87 25.08 24.86 26.4 24.85 27.73V30.67C24.84 30.87 24.92 31.26 24.75 31.42C24.74 31.43 24.73 31.44 24.71 31.45C24.47 31.6 23.96 31.29 23.75 31.18C22.43 30.49 21.17 29.62 20.26 28.44C19.63 27.63 19.26 26.63 19.1 25.62C19.02 25.09 18.99 24.55 19.04 24.02C19.11 23.2 19.45 22.45 19.69 21.67C19.88 21.02 20.04 20.37 20.22 19.71C20.4 19.08 20.58 18.46 20.76 17.83C21.43 15.57 21.99 13.08 21.67 10.71C21.54 9.76002 21.16 8.92002 20.5 8.23002C19.79 7.49002 19.04 6.81002 18.92 5.71002C18.79 4.48002 19.27 3.43002 18.61 2.28002C18.51 2.10002 18.4 1.92002 18.3 1.74002C18.24 1.64002 18.18 1.53002 18.17 1.41002C18.63 1.31002 19.59 1.87002 19.97 2.11002C21.1 2.80002 21.91 3.97002 22.63 5.05002C24.53 7.95002 24.99 11.56 24.89 15.02C24.89 17.23 24.89 19.45 24.87 21.66V23.13V23.14Z" fill="white"/>
</g>
<defs>
<clipPath id="clip0_2374_40">
<rect width="24.9" height="31.49" fill="white"/>
</clipPath>
</defs>
</svg>
